<?xml version="1.0" standalone="no"?>
<!DOCTYPE svg PUBLIC "-//W3C//DTD SVG 1.1//EN" "http://www.w3.org/Graphics/SVG/1.1/DTD/svg11.dtd" >
<svg xmlns="http://www.w3.org/2000/svg">
<metadata>
Created by FontPrep 20130207 at Wed Aug 30 13:08:39 2017
 By Cristobal Dominguez
Copyright(c) 1993 Jonathan Smith.
Licensed to Rhode Island Soft Systems, Inc.
</metadata>
<defs>
<font id="04a895ec2b9535ff55881607625d1b84" horiz-adv-x='1024' >
  <font-face 
    font-family="El-RioLobo"
    font-weight="400"
    font-stretch="normal"
    units-per-em="2048"
    panose-1="0 0 0 0 0 0 0 0 0 0"
    ascent="1638"
    descent="-410"
    x-height="905"
    cap-height="1224"
    bbox="-22 -388 3215 1586"
    underline-thickness="20"
    underline-position="-123"
    unicode-range="U+0020-2122"
  />
<missing-glyph horiz-adv-x="1586" 
d="M1388 99v1388h-1190v-1388h1190zM99 0v1586h1388v-1586h-1388z" />
    <glyph glyph-name=".notdef" horiz-adv-x="1586" 
d="M1388 99v1388h-1190v-1388h1190zM99 0v1586h1388v-1586h-1388z" />
    <glyph glyph-name=".null" horiz-adv-x="0" 
 />
    <glyph glyph-name="nonmarkingreturn" horiz-adv-x="450" 
 />
    <glyph glyph-name="space" unicode=" " horiz-adv-x="450" 
 />
    <glyph glyph-name="exclam" unicode="!" horiz-adv-x="564" 
d="M396 166q31 0 31 32t-31 32t-31 -32t31 -32zM408 660q0 32 -32 33q-32 -1 -33 -33q1 -32 33 -32t32 32zM420 1120q0 34 -32 34t-31 -34q-1 -34 31 -33q32 -1 32 33zM258 -42q-90 0 -154 70t-64 154q0 86 78 150t148 64q68 0 91 -23l-180 -206q37 -35 153 -197
q-29 -12 -55 -12h-17zM387 354q23 0 61 -52t37 -118t-31 -127t-67 -61q-23 0 -151 181q138 177 151 177zM214 1064q59 -99 97 -197q-67 -134 -134 -224q14 -28 40 -63t36 -68q-37 -14 -87.5 -16.5t-77.5 -6.5l21 716q6 9 190 49q-24 -37 -85 -190zM357 1270q33 0 133 28
l-17 -753q-18 -14 -156 -33q-58 85 -81 140q35 47 138 213q-54 103 -107 206q26 39 90 199z" />
    <glyph glyph-name="quotedbl" unicode="&#x22;" horiz-adv-x="520" 
d="M68 1025q-11 0 -11 -14t11 -14q17 0 17 14t-17 14zM121 1177q1 14 -11 14t-12 -14t12 -14t11 14zM41 938q-24 0 -28 15l79 287l48 2q11 -36 15 -62q-10 -34 -67 -104q18 -40 26 -68q-8 -35 -16 -48q-33 -22 -57 -22zM273 1240q-22 -75 -99 -255q-4 -5 -23.5 -11.5
t-25.5 -9.5q-1 14 5 22t12 20q-4 12 -14 34t-10 45l22 26q22 26 37 57q0 21 -6 42t-7 30h109zM302 1013q0 14 -13 14t-13 -14t13 -14t13 14zM341 1178q0 14 -12 14t-12 -14t12 -13q12 -1 12 13zM258 940q-20 0 -22.5 4t-3.5 9l79 289h46q12 -30 17 -60q-13 -41 -66 -102
l26 -70q-4 -15 -8.5 -26t-8.5 -22q-39 -22 -59 -22zM383 1242h107q-15 -58 -55 -152.5t-44 -104.5q-17 -8 -46 -19q0 15 16 42q-1 6 -13 30t-12 49q45 53 60 83q0 20 -6 45t-7 27z" />
    <glyph glyph-name="numbersign" unicode="#" horiz-adv-x="1042" 
d="M637 782h-72l-42 -96h70q20 40 44 96zM1079 887q0 -53 13 -102h-239l-43 -103l158 -1q-1 -11 -1 -55t23 -136l-263 -1q-73 -177 -123 -314l-212 48l113 264l-67 -3q-53 -123 -127 -309q-115 46 -205 46q84 205 109 259l-138 -5l-11 211h240q12 23 41 92l-168 -5l-17 205
h275l133 301q37 -39 184 -60l-107 -241h76q74 168 134 294q90 -52 182 -52q-55 -136 -103 -243h154q-11 -37 -11 -90z" />
    <glyph glyph-name="dollar" unicode="$" horiz-adv-x="551" 
d="M425 1203q-50 0 -50 -28q0 -10 40 -17q113 -68 149 -123t37 -117q0 -62 -51.5 -129.5t-116.5 -109.5l-11 -197h-257l12 112l-82 -11l-30 260q142 13 198 33q28 7 41.5 10t15.5 10q-2 14 -31.5 23t-46.5 17q-150 92 -150 211q0 120 142 216l4 187h258l-6 -88l91 11
l17 -284q-123 14 -173 14z" />
    <glyph glyph-name="percent" unicode="%" horiz-adv-x="767" 
d="M188 184q0 34 -32 34t-33 -34q1 -34 33 -33q32 -1 32 33zM302 456q0 32 -32 33q-32 -1 -31 -33q-1 -32 31 -32t32 32zM601 220q0 16 -10 27q-9 11 -29 11t-30 -17t-10 -30t13 -29t27 -15q14 0 27 19q12 18 12 34zM454 812q0 32 -32 32t-33 -32q1 -32 33 -31q32 -1 32 31z
M208 986q35 0 35 44t-37 43q-16 0 -28 -15t-12 -28q0 -12 12 -28t30 -16zM572 109q-48 -1 -88 27t-39 77q0 49 33 83q32 34 82 34t88 -23t38 -74t-34 -87q-32 -36 -80 -37zM230 151q-18 -21 -84 -81q-28 25 -50 35t-41 20l443 1090q37 -29 109 -68q-100 -58 -100 -67
q0 -270 5 -297q4 -16 -74 -70t-95 -75q11 -121 11 -218q-25 -20 -81 -56t-59 -42q-4 -4 6 -76t10 -95zM560 924q0 88 -11 128q40 32 96 72q27 -9 76 -40l-445 -1093q-33 14 -58 29t-37 22q19 24 47 46t41 42q0 51 -22 157q13 15 65 51t77 70q2 16 2 29l-11 170q21 26 115 98
q34 26 54 60q11 71 11 159zM199 918q-113 0 -113 111q0 54 33 86t87 32t84 -31q29 -30 29 -82t-31 -84t-89 -32z" />
    <glyph glyph-name="ampersand" unicode="&#x26;" horiz-adv-x="1298" 
d="M619 365q-1 9 -47 69t-64 60q-32 0 -81 -61t-49 -101t22 -65.5t70 -25.5q48 -1 98 49t51 75zM944 202q0 34 -32 34t-31 -34q-1 -34 31 -33q32 -1 32 33zM660 424q29 0 29 32t-29 33q-34 -1 -34 -33t34 -32zM551 704q0 34 -32 33q-32 1 -32 -33t32 -34t32 34zM385 920
q1 -34 31 -34t30 34t-30 33q-30 1 -31 -33zM678 962q-26 0 -26 -30t46 -102q15 21 28 39q13 19 13 39t-17.5 37t-43.5 17zM589 626q0 -24 30 -46q101 -75 109 -86q19 -74 33 -160q3 -1 86 -20.5t84 -21.5q19 -10 52 -92t64 -163q0 -9 -27.5 -26.5t-35.5 -17.5t-170 176
q-23 -23 -64 -63q-42 -40 -124 -80t-210 -40t-236 87q-110 87 -110 219q0 231 202 360l108 60q-44 67 -44 158q0 36 17 108t41 72q95 -70 100 -88q-7 -26 -7 -56t-8 -64q11 -20 63.5 -64.5t56.5 -51.5q-10 -40 -10 -100zM686 1196q100 0 184 -63q103 -78 103 -215
q0 -74 -27 -132q-26 -58 -54 -89q-28 -30 -56 -50q-28 -21 -27 -27q0 -6 31 -36t45 -44q60 -76 191 -230t131 -173q0 -7 -134 -93q-10 19 -55 130t-60 127q-30 15 -169 49q-22 124 -45 185q-121 72 -125 82q-5 9 1 43t6 60t-53 68q-53 44 -65 54q0 28 11.5 69t11.5 64
q-59 49 -123 98q4 39 91 81t187 42z" />
    <glyph glyph-name="quotesingle" unicode="'" horiz-adv-x="299" 
d="M68 1025q-11 0 -11 -14t11 -14q17 0 17 14t-17 14zM121 1177q1 14 -11 14t-12 -14t12 -14t11 14zM41 938q-24 0 -28 15l79 287l48 2q11 -36 15 -62q-10 -34 -67 -104q18 -40 26 -68q-8 -35 -16 -48q-33 -22 -57 -22zM273 1240q-22 -75 -99 -255q-4 -5 -23.5 -11.5
t-25.5 -9.5q-1 14 5 22t12 20q-4 12 -14 34t-10 45l22 26q22 26 37 57q0 21 -6 42t-7 30h109z" />
    <glyph glyph-name="parenleft" unicode="(" 
d="M593 66q0 32 -33 32t-33 -32t33 -31q33 -1 33 31zM262 308q33 0 33 30t-33 30t-33 -30t33 -30zM253 842q32 0 32 32t-32 32t-32 -32t32 -32zM626 1143q30 0 30 31t-30 31t-30 -31t30 -31zM344 210v-40q0 -41 2 -58q4 0 97.5 24t120.5 33q140 -123 178 -138h13q19 0 28 4
v-135l-96 -3q-96 -3 -125 3q-196 0 -322 214t-126 502q0 290 150 488.5t353 198.5l160 14q19 0 28 -1q-7 -26 -18 -153q-33 6 -81 -41t-98 -95q-194 102 -230 102q-8 -41 -30 -191t-24 -162q-36 -46 -82 -98t-63 -80q58 -91 83.5 -125t87.5 -104q-6 -113 -6 -159zM383 177
l2 219q0 18 -78 100t-78 92q16 25 68.5 80.5t76.5 96.5q10 103 18.5 178.5t8.5 120.5q57 -22 206 -98q4 2 72 68t95 74q2 -7 -1 -27.5t-5 -30.5t-4 -12q-4 1 -6 1q-14 0 -39 -134q-30 -1 -92 -19t-111 -73q-70 -78 -70 -223t100 -220q76 -57 191 -57q0 -47 13 -111t13 -91
h-22l-162 125q-5 -1 -92 -30t-104 -29z" />
    <glyph glyph-name="parenright" unicode=")" 
d="M346 66q0 32 -30 32t-31 -32q1 -32 31 -31q30 -1 30 31zM649 338q-1 30 -33 31q-32 -1 -32 -31t32 -30t33 30zM283 1174q0 31 -31 31t-31 -31t31 -31t31 31zM656 874q0 32 -32 31q-32 1 -31 -31q-1 -32 31 -32t32 32zM114 111q0 47 12 103t16 99q114 0 189 57
q100 76 100 220q0 241 -198 301q-46 14 -75 14q-25 134 -36 134t-13 4q0 8 -3 34.5t-3 30.5q28 -8 62 -41q99 -96 108 -101q107 58 200 98q0 -38 12 -132t20 -167q23 -37 81 -103t63 -74q0 -11 -78 -93t-81 -99l6 -219q-23 0 -104 28t-93 31l-162 -125h-23zM761 616
q-1 -292 -125 -504t-319 -212q-30 -6 -69 -6l-153 6v135q8 -4 40 -4q33 13 84 57t92 81q31 -10 124 -33.5t96 -23.5q3 30 3 102t-7 155q57 63 81 95t90 134q-16 26 -70 88t-75 90q-39 278 -54 353q-27 -1 -128 -51t-104 -50t-93 91q-45 45 -76 45q-7 0 -10 -1q0 106 -14 153
q7 1 10 1h19l159 -14q201 0 350 -198t149 -489z" />
    <glyph glyph-name="asterisk" unicode="*" horiz-adv-x="1120" 
d="M489 610q-1 32 -33 32t-32 -32t32 -33q32 1 33 33zM626 758q0 32 -32 31q-32 1 -32 -31t32 -32t32 32zM607 1028q0 30 -31 30t-31 -30t31 -29q31 -1 31 29zM566 1323q-28 0 -28 -32t28 -32q33 0 33 28q0 36 -33 36zM466 1279q57 -99 63 -120q-6 -22 -21.5 -59t-22.5 -68
q17 -88 31 -112q-42 -36 -89 -81q16 -64 16 -97q-7 -12 -102 -102q16 -75 16 -113q-35 -35 -52 -51t-60 -43h-46q0 9 142 323q0 16 -101 46q-102 30 -114 44t-50 117q-14 51 -28 103q31 0 118 -18t162 -44h59q0 263 86 323zM913 1044q5 0 43.5 -50t112.5 -117v-26
q-59 0 -175 -15t-150 -40q2 -4 95 -127q31 -41 31 -70q0 -3 -16 -64t-28 -141l-17 -7q-71 81 -141 157t-123 96q-45 -72 -89 -144q-22 -34 -83 -46l33 70q0 11 -19 76q26 36 68 77t46 47t-18 112q33 14 45 22.5t58 50.5q-20 27 -70 125q24 56 52 153q-33 44 -61 108
q22 40 45 80q27 29 74 45v-366q117 -11 197 -11q78 5 90 5z" />
    <glyph glyph-name="plus" unicode="+" horiz-adv-x="975" 
d="M897 487h-215l-28 -209h-401l25 209h-215l48 398h217l26 219h402l-26 -219h218z" />
    <glyph glyph-name="comma" unicode="," horiz-adv-x="640" 
d="M166 -196q26 0 26 26t-26 26t-26 -26t26 -26zM270 164q0 25 -26 25t-25 -25q-1 -25 25 -25t26 25zM305 291q25 -74 30 -127q-15 -46 -43 -86t-90 -118l53 -133q-16 -53 -20 -67t-16 -33q-80 -43 -119 -43q-38 0 -43.5 14.5t-6.5 15.5l164 575zM378 146q0 38 -27 143h221
q-39 -128 -118 -313q-79 -186 -84 -201q-10 -9 -50 -22t-46 -15q0 26 10 44t22 40q-10 34 -28 72t-18 85q50 59 68 81t50 86z" />
    <glyph glyph-name="hyphen" unicode="-" horiz-adv-x="840" 
d="M179 406q31 0 31 31t-31 31t-31 -31t31 -31zM638 440q0 32 -32 32t-33 -32q1 -32 33 -32t32 32zM761 527q0 -60 20 -186h-672q-33 160 -33 203q28 22 82 52q32 0 209 -111q111 62 240 116zM760 601q-44 11 -144 64q-36 -11 -114 -47t-137 -73q-53 35 -85 51t-122 56
l-93 -53q-6 25 -14.5 91.5t-13.5 94.5h696q7 -27 17 -93t10 -91z" />
    <glyph glyph-name="period" unicode="." horiz-adv-x="520" 
d="M232 69q0 13 -9 23t-23 10t-23.5 -9t-9.5 -23t9.5 -23.5t23.5 -9.5t23 9.5t9 22.5zM48 197v21q52 0 85 9t97 37q77 -113 166 -251q-105 -27 -183 -50.5t-136 -57.5q-29 33 -29 292z" />
    <glyph glyph-name="slash" unicode="/" horiz-adv-x="767" 
d="M188 243q0 33 -32 33t-32 -33t32 -33t32 33zM302 517q0 32 -32 32t-31 -32q-1 -32 31 -32t32 32zM454 873q0 32 -32 32t-33 -32q1 -32 33 -32t32 32zM507 1139q1 -270 5 -292t-74 -76t-95 -74q11 -117 11 -218q-23 -19 -79 -55t-61 -39q-4 -5 6 -79t10 -96
q-32 -35 -84 -80q-22 18 -91 56l443 1087q31 -23 64 -41t45 -27q-100 -55 -100 -66zM560 986q0 84 -11 127l96 70q28 -6 76 -40l-445 -1092q-52 21 -95 51q21 27 48 48.5t40 39.5q0 55 -22 156q13 18 67 56t75 64q2 16 2 29l-11 170q20 25 115 99q34 26 54 62q11 76 11 160z
" />
    <glyph glyph-name="zero" unicode="0" horiz-adv-x="1215" 
d="M693 612q0 96 -29 157q-38 81 -114 81t-112 -82q-37 -82 -37 -168q0 -88 28 -149q39 -84 119 -84t117 84q28 65 28 161zM358 304q-28 0 -91 -3q1 56 7 85t13 64q-70 86 -74 91t-46 41q0 8 64 87t64 85q-1 6 -19 57q-18 50 -35 83q21 21 119 26t101 5q7 10 41 60t75 99
q18 -26 58 -104t58 -86q142 -15 195 -39q-12 -41 -44 -84t-57 -89l120 -183q-31 -37 -45 -47t-62 -34q-6 -59 -8 -87q-8 -88 -40 -88l-159 65l-88 -102q-31 18 -51 47t-36 48q-32 3 -60 3zM373 144q0 25 -31 25t-31 -25q0 -30 31 -30t31 30zM155 418q1 28 -31 28t-32 -28
q0 -33 32 -33t31 33zM670 144q-32 0 -32 -32t33 -33q33 0 33 32q0 15 -10 24t-24 9zM181 788q1 32 -31 32t-32 -32t32 -32t31 32zM251 446q-24 -157 -30 -188l180 -15q23 -21 53 -49t51 -46q41 34 61 62t41 48q180 -72 193 -72q18 56 34 110t16 89q30 21 65 57t56 54
q-72 96 -139 192q34 44 52 78t54 117q-158 32 -219 48q-20 10 -62 91t-78 117q-35 -35 -89 -97t-70 -78q-163 -22 -225 -39q29 -57 56 -155q0 -20 -54 -80t-77 -111q131 -104 131 -133zM992 334q0 33 -34 33t-33 -33q-1 -33 33 -33t34 33zM398 1143q-31 1 -31 -31t31 -32
q18 0 24 6t7 22q0 35 -31 35zM1036 745q0 33 -32 33t-33 -33q1 -33 33 -33t32 33zM832 1074q0 32 -31 32t-31 -32t31 -31q31 -1 31 31zM1143 580q0 -94 -46 -230q-46 -137 -155 -234q-142 -125 -360 -125q-289 0 -446 196q-136 169 -136 436t169 427t395 159q320 0 449 -217
q130 -217 130 -412z" />
    <glyph glyph-name="one" unicode="1" horiz-adv-x="682" 
d="M496 209q0 32 -32 32t-33 -32q1 -32 33 -32t32 32zM472 568q32 0 33 33q-1 33 -33 33t-32 -33t32 -33zM512 998q0 32 -30 32t-30 -32t30 -32t30 32zM98 805q-13 34 -67 227q49 38 113 82t121 93q36 -9 73 -21t60 -18q-88 -183 -87 -187q45 -64 97 -165q-14 -37 -61 -107
t-78 -121q9 -22 59 -96t59 -98q-7 -12 -118 -173q62 -138 96 -197q-20 -4 -77 -14t-80 -19h-51l-9 814h-50zM330 577q85 124 136 228q-11 37 -49 103t-44 77q9 27 45 98t48 100h107l-7 -1135q-107 -17 -133 -17q-59 113 -113 194q93 115 126 166q-26 51 -66 111z" />
    <glyph glyph-name="two" unicode="2" horiz-adv-x="1119" 
d="M826 276q0 32 -32 32t-33 -32q1 -32 33 -33q32 1 32 33zM793 506q-1 32 -33 32t-32 -32t32 -33q32 1 33 33zM446 1120q0 34 -30 34t-31 -34q1 -34 31 -33q30 -1 30 33zM865 940q-1 31 -33 31t-32 -33t32 -33q14 0 23.5 9.5t9.5 25.5zM958 14h-20l-160 2q-443 0 -736 -83
l8 172q0 52 -15 85q5 4 78 51t230 204q132 126 178 191q45 66 45 112t-25 76.5t-63 30.5q-78 0 -77 -70q-43 -7 -127 -7q0 30 -16 78t-24 84q65 21 221 24q15 8 88 58t136 49q-9 -26 -24 -114.5t-15 -97.5q57 -48 176 -133l-230 -165l-4 -176q-52 -30 -120 -69
q-184 -106 -184 -152q0 -22 12 -26t21 -6l296 70q2 -2 180 -73q45 39 124 85q30 0 75 -15q-28 -76 -28 -185zM719 1113q-83 -1 -158 -37t-141 -70q-128 -20 -232 -20q0 -16 15 -96t15 -107q-30 -11 -90 -28t-107 -36q1 101 49 217t171 202t332 86q71 0 167 -34t171 -118
t75 -220q0 -138 -61 -247q-120 -215 -129 -236l254 5q0 -10 -47 -116l-92 9l-137 -79q-88 59 -131 59q-179 -33 -223 -45l-9 12q0 25 103 80t124 71q-8 74 -8 188q22 17 105 75t137 102q-89 73 -177 147q19 104 21.5 127.5t2.5 108.5z" />
    <glyph glyph-name="three" unicode="3" horiz-adv-x="1039" 
d="M350 33q35 -1 35 33t-35 34q-30 0 -30 -34t30 -33zM802 273q-30 -1 -30 -33t30 -32t31 32q-1 32 -31 33zM174 963q0 32 -32 32t-31 -32q-1 -32 31 -32t32 32zM763 733q-1 -29 31 -29t32 30t-31 31q-18 0 -25 -6t-7 -26zM596 1122q0 32 -32 32t-33 -32q1 -32 33 -31
q32 -1 32 31zM445 745q123 -1 123 71t-86 72q-42 0 -65 -21q-16 -19 -32 -37l-107 -1q-20 0 -22 1q53 45 68 79l-8 106q0 17 3 32q65 -11 125 -43t74 -31q14 0 86 12q71 12 147 21q-46 -123 -58 -149t-104 -190q135 -153 158 -181t23 -48q-4 -8 -53 -50t-83 -86
q-12 -96 -20 -144t-35 -49q-213 93 -247 116q-28 -3 -133 -35q-1 3 -1 29t66 168l68 14q58 -136 160 -136q58 0 82.5 35.5t24.5 85.5q1 50 -35 66t-105 16l-104 -2q-3 21 23 285q36 -6 67 -6zM146 188q0 -38 59 -37q33 0 67 11t60 19q217 -117 289 -128q40 141 54 244
q29 22 52 46t112 84l-185 243l144 369q-18 2 -38 2t-222 -31l-239 109q-20 -21 -24 -78.5t-8 -115.5q-58 -60 -79 -92l-162 8q0 135 148 260t342 125q75 0 170 -28q94 -28 170 -102t76 -183t-32 -173t-61 -86l80 -92q69 -99 69 -207q0 -165 -139 -273t-355 -108t-316 65
q-124 81 -156 285q111 26 170 43q3 -11 -21.5 -86t-24.5 -93z" />
    <glyph glyph-name="four" unicode="4" horiz-adv-x="1138" 
d="M772 81q0 -33 30 -33t30.5 33t-28.5 33q-18 0 -25 -7t-7 -26zM516 556q-2 16 -2 63t3 155q-32 -70 -117 -220zM794 401q32 1 32 33t-32 32t-31 -32q-1 -32 31 -33zM811 821q1 32 -31 32t-32 -32t32 -32t31 32zM401 1196l198 -4q118 -137 149 -179q-14 -38 -60 -118.5
t-81 -127.5l99 -185q-35 -60 -135 -204l161 -230l-106 -155l-116 -19l2 255l-468 -6l-23 331zM958 247h-88q-3 -9 -3 -152v-69q-84 -7 -167 -24q45 94 78 146q0 15 -53 102t-87 133l129 199q-14 18 -54 88t-53 100q59 68 151 255q-28 34 -116 167q75 0 175 4v-647l155 2
q-67 -259 -67 -304z" />
    <glyph glyph-name="five" unicode="5" horiz-adv-x="1021" 
d="M151 173q1 33 -31 33t-32 -33t32 -33t31 33zM195 664q1 32 -31 33q-32 -1 -32 -33t32 -32t31 32zM251 1042q1 32 -31 33q-32 -1 -32 -33t32 -32t31 32zM24 330l118 -17q76 -109 109 -184l-130 -147l-73 18q0 182 -8 233t-16 97zM152 511q-7 0 -56 1h-48q39 150 94 697h94
l105 -145q-26 -46 -139 -227q55 -89 111 -177q-64 -89 -107 -140v-7q3 -1 11 -2h-65zM306 1205q408 16 455 16t48 -1q-25 -84 -45 -162t-38 -142q-163 -22 -232 -22v-120q56 -6 87 -9q324 -35 324 -382q0 -216 -180 -322q-144 -85 -368 -85h-158q-3 16 51 68t69 70
q-78 126 -99 173l116 -11q54 0 108 29t54 83t-62.5 89t-159.5 35q45 64 98 133q-17 34 -118 187q47 58 135 230q-17 38 -47 84t-38 59z" />
    <glyph glyph-name="six" unicode="6" horiz-adv-x="1201" 
d="M157 253q31 0 31 32t-30 32t-29 -34q0 -17 5.5 -23.5t22.5 -6.5zM269 671q-1 33 -31 33t-30 -33t30 -33t31 33zM695 428q1 38 -29 85q-30 48 -70 48q-40 -1 -72 -53q-30 -52 -30 -90t34 -72t68 -35q32 0 65.5 39.5t33.5 77.5zM479 1138q-1 27 -31 27q-30 1 -30 -31
t28 -32q33 0 33 36zM167 123q-41 0 -83 113t-42 224t28 182t118 218q25 50 107 174t151 201l152 -72l-2 -50q-176 -144 -295 -260q66 -178 90 -236q-99 -80 -203 -188q69 -135 90 -188q-38 -46 -68 -82t-43 -36zM1087 427q0 -205 -155 -331t-394 -126q-60 0 -193 33t-133 76
q0 15 52 81t66 96l-85 177q134 105 193 168q0 12 -71 241q223 197 285 268v40q30 -8 74 -20t63 -17l-124 -262q76 0 140 -23q139 -47 210.5 -150.5t71.5 -250.5z" />
    <glyph glyph-name="seven" unicode="7" horiz-adv-x="1191" 
d="M512 26q0 33 -30 33t-30 -33t30 -33t30 33zM651 392q-1 32 -33 32t-32 -32t32 -31q32 -1 33 31zM833 865q-1 32 -31 32q-30 -1 -30 -33t32 -32q17 0 23 7t6 26zM507 814q-223 0 -382 -18l-103 369q5 0 267 13t399 13q34 -43 56 -99t34 -79q-31 -43 -170 -199
q0 -10 59 -153q-19 -29 -121 -138q-101 -108 -126 -140q47 -131 70 -182q-189 -171 -228 -210l-127 13q-3 5 166 368q170 363 206 442zM665 820q112 107 174 177q-26 50 -76 201l306 28l-534 -1277q-67 0 -105.5 4t-107.5 23q100 75 232 214l-79 197q208 193 255 253z" />
    <glyph glyph-name="eight" unicode="8" horiz-adv-x="1015" 
d="M177 362q1 32 -31 32t-32 -32t32 -32t31 32zM490 295q99 0 99 111t-101 111q-47 0 -76 -34t-29.5 -83t33.5 -77t74 -28zM242 715q-32 0 -32 -32t32 -32t32 32t-32 32zM177 1029q-31 -1 -31 -33t31 -32t31 32t-31 33zM586 842q0 32 -18 66q-18 32 -57 32q-40 0 -69 -32
t-29 -56t9 -46q26 -62 69 -62t69 33t26 65zM21 384q0 110 40 178q45 52 90 105q-92 100 -92 197q1 98 61 182t86 83q24 -24 68 -90l-93 -165q116 -120 147 -168q-41 -64 -161 -199q13 -33 97 -185l-97 -110q13 -35 40.5 -85t43.5 -81q-69 0 -149 114t-81 224zM517 1217
q155 1 290 -97t135 -244q0 -80 -23 -133t-82 -91q40 -54 81 -108q30 -67 30 -168q0 -189 -128 -287t-315 -98q-139 0 -194 39q-10 18 -39 78t-51 98q29 42 90 111q-61 102 -101 179q82 103 175 208q-22 20 -81.5 93t-64.5 77q6 4 83 158q-48 83 -75 115q0 16 87 43t183 27z
" />
    <glyph glyph-name="nine" unicode="9" horiz-adv-x="1219" 
d="M673 61q1 31 -31 31t-32 -31t32 -31t31 31zM867 340q0 32 -31 33q-31 -1 -31 -33t31 -32t31 32zM684 759q0 49 -34.5 83.5t-77.5 34.5q-43 1 -85 -35t-42 -75q1 -39 35 -86t88 -47t85 38t31 87zM1029 722q1 34 -31 34t-32 -34t32 -33q32 -1 31 33zM457 332q0 16 -60 29
q-162 34 -261 133.5t-99 284.5t141 315t367 130q110 0 253 -40t166 -97l2 -147q-83 -110 -171 -208q20 -82 70 -194q-124 -79 -253 -165l28 -134q-111 -63 -222 -125l-33 -138q-89 0 -197 -35q85 105 177 239q92 136 92 152zM1097 785q0 -200 -133 -412q-130 -216 -206 -307
q-76 -90 -88 -90q-63 11 -118 11t-106 -9l20 117q33 17 116 51t106 49l-18 150q67 41 141 93t107 69q-37 109 -74 219q90 72 153 129q16 56 16 96v15q0 23 12 55q72 -140 72 -236z" />
    <glyph glyph-name="colon" unicode=":" horiz-adv-x="401" 
d="M109 139q-1 19 -21 19t-20 -19t20 -19t21 19zM98 524q-20 0 -19 -20q-1 -20 19 -19q20 -1 20 19t-20 20zM46 144q0 46 17 90l88 -83q-12 -19 -28 -53t-25 -52q-52 52 -52 98zM86 256q0 12 36 32t84 20q50 0 94.5 -40t44.5 -104t-40 -109.5t-108 -45.5q-21 2 -37 5t-40 23
q33 65 59 130q-25 25 -59 55t-34 34zM123 554.5q43 -38.5 43 -53.5t-57 -100q-33 21 -47 57t-14 54t10 49.5t16 31.5t49 -38.5zM199 656q153 0 153 -129q0 -65 -45.5 -112.5t-88.5 -47.5q-81 0 -81 24q55 88 65 117l-99 113q31 35 96 35z" />
    <glyph glyph-name="semicolon" unicode=";" horiz-adv-x="429" 
d="M70 -85q18 -1 18 19t-18 20t-17 -19q0 -7 5.5 -13.5t11.5 -6.5zM148 155q0 14 -18 14t-19 -14q1 -20 19 -20t18 20zM114 456q0 18 -18 17q-18 1 -17 -17q-1 -18 17 -18t18 18zM32 -151q-23 0 -27 5q-5 13 -7 16l102 360l55 -1q12 -25 22 -78q-11 -31 -43 -73t-42 -56
q18 -39 33 -85q-12 -39 -22 -60q-48 -28 -71 -28zM202 142q0 22 -14 88h136q-31 -102 -127 -322q-11 -11 -60 -22q0 16 8 29t12 22q-3 10 -15 40t-13 60q29 33 41 47t32 58zM76 542q40 -55 75 -92l-39 -83q-53 40 -53 120q7 35 17 55zM203 623q49 0 96 -31t47 -96t-41 -111
t-99 -46q-11 -1 -31 -1t-31 16q7 12 46 103q-16 23 -52 65t-40 62q56 39 105 39z" />
    <glyph glyph-name="less" unicode="&#x3c;" horiz-adv-x="874" 
d="M818 129l-796 575l796 522v-417l-186 -116l186 -139v-425z" />
    <glyph glyph-name="equal" unicode="=" horiz-adv-x="837" 
d="M697 319h-686l40 315h686zM742 684h-685l38 311h686z" />
    <glyph glyph-name="greater" unicode="&#x3e;" horiz-adv-x="916" 
d="M851 682l-805 -580v422l190 132l-190 116v410z" />
    <glyph glyph-name="question" unicode="?" horiz-adv-x="1039" 
d="M564 209q0 32 -32 32t-31 -32q-1 -32 31 -32t32 32zM652 589q34 -1 34 33t-34 34q-29 0 -29 -34t29 -33zM390 1136q0 32 -30 32t-30 -32t30 -32t30 32zM811 1004q1 32 -31 32t-32 -32t32 -33q32 1 31 33zM409 11q-65 -1 -125 59t-61 150q1 90 69 141q68 52 153 52l45 -15
q-179 -133 -179 -162q103 -171 120 -223q-14 -2 -22 -2zM642 230q0 -67 -28 -120q-40 -75 -124 -84l-117 199q57 63 92 96t88 62q89 -36 89 -153zM561 870q0 33 -27.5 62.5t-61.5 29.5t-49.5 -9t-33.5 -46q-76 0 -166 -13l2 123l158 -2q25 14 205 87l29 -162
q38 -28 157 -110q-47 -33 -229 -146q-14 -46 -38 -140q-55 -10 -249 -59v46q46 99 127 161q60 40 121 80q55 41 55 98zM489 1207q177 0 295 -73q141 -87 141 -247q0 -303 -357 -342q11 42 20 116q62 38 142 93.5t102 67.5q-73 65 -198 153q-9 49 -17 168q-28 -5 -117 -36
t-126 -47q-149 11 -184 11q-9 -61 -9 -158v-27q-94 -6 -144 -16q0 43 26 103q101 234 426 234z" />
    <glyph glyph-name="at" unicode="@" horiz-adv-x="1494" 
d="M898 -150q16 0 16 -51t-16 -129q-358 0 -627 206t-269 516t200 497q200 186 484 186q222 0 334 -18q177 -29 275 -112q154 -131 154 -406q1 -186 -81 -326t-186 -201q-139 0 -163 -4l44 122q-31 30 -101 119l78 142q-15 19 -39 67l-28 56q23 46 51 105t42 89l98 6v-310
q45 32 52 107q3 33 3 143q1 110 -123 152t-400 43q-189 0 -328 -109q-165 -130 -165 -358t203.5 -380t491.5 -152zM845 302v36q1 64 -13 84t-60 21q-46 0 -70.5 -30t-24.5 -68t28.5 -64.5t64.5 -26.5t56 8q19 8 19 40zM1103 261q-1 25 -25 25t-24 -25t24 -25t25 25z
M1107 548q1 26 -25 27q-26 -1 -26 -27t26 -26t25 26zM932 5q-14 0 -37 -12q-18 28 -28 28q-179 -28 -206 -28q-101 0 -193 88q-113 108 -113 279q0 130 81 229q81 100 260 100q98 0 130 -23l12 30q40 0 90 3t94 3l-88 -188l63 -123q-34 -77 -71 -137q41 -59 100 -124
q-16 -34 -31 -74t-20 -46.5t-17 -5.5t-26 1z" />
    <glyph glyph-name="A" unicode="A" horiz-adv-x="1397" 
d="M153 90q35 0 35 34t-35 33q-30 1 -30 -33t30 -34zM295 571q0 -31 30 -31t30 32t-31 33q-17 0 -23 -7t-6 -27zM760 420l-76 361q-35 -105 -88 -361h164zM487 1064q1 34 -31 33q-32 1 -32 -33t32 -34t31 34zM551 1043q-19 -38 -208 -265q0 -33 35 -101t72 -137
q-14 -28 -69 -74t-109 -90t-60 -68q0 -9 62 -284q-158 -21 -199 -21t-44 1q34 65 174 529q139 463 193 641l103 9q20 -30 35 -71.5t15 -68.5zM686 90q-168 0 -197 -35q-12 -17 -23 -34q-80 5 -142 5q-4 16 -30.5 134.5t-26.5 126.5q9 19 68 75t117 111.5t58 67.5t-52 106
t-52 113q9 22 61 86t102 126t50 76t-18.5 58t-29.5 76q33 7 187 19t193 12l330 -1154q-40 -14 -225.5 -36.5t-188.5 -22.5l-7 49q-6 41 -174 41z" />
    <glyph glyph-name="B" unicode="B" horiz-adv-x="1230" 
d="M175 91q0 32 -32 32t-32 -32t32 -32t32 32zM175 528q1 34 -31 33q-32 1 -32 -33t32 -34t31 34zM704 324q0 62 -26 89t-78 27q-53 0 -81 -7t-53 -13v-200l62 -1q80 0 119 17q57 26 57 88zM155 977q1 33 -31 33t-32 -33t32 -33t31 33zM640 814q0 91 -105 91q-16 0 -78 -17
l4 -167q107 0 135 11q44 17 44 82zM280 512q0 -54 -78.5 -133t-78.5 -105t89 -114t89 -104t-8 -26t-35 -39q-35 -5 -94 -5l-151 3l-4 1184l105 9l153 -224q-63 -83 -144 -214q57 -62 91 -102q66 -76 66 -130zM1075 897q0 -137 -69 -202q-63 -50 -125 -99q122 -14 191 -87
t69 -203t-70 -203q-69 -73 -169 -95t-214 -22h-358l39 67q-192 204 -192 213q0 10 84 111t84 131t-59 101q-59 72 -109 133q99 144 143 231q-22 37 -68 97t-60 115l534 30q145 0 247 -90.5t102 -227.5z" />
    <glyph glyph-name="C" unicode="C" horiz-adv-x="960" 
d="M232 355q0 34 -32 34t-33 -34q1 -27 33 -27t32 27zM607 110q1 32 -31 32t-32 -32t32 -31q32 -1 31 31zM223 852q0 34 -33 33q-33 1 -33 -33t33 -34t33 34zM686 1124q0 30 -32 30t-31 -30q-1 -30 31 -31q32 1 32 31zM303 245q0 -64 3 -90q7 0 117 21t156 32
q161 -109 221 -127h18q23 0 32 5v-42q-72 -68 -264 -68q-245 0 -406.5 188t-161.5 450t186 436t439 174q188 0 238 -56q-17 -33 -22 -55q-40 4 -101.5 -39.5t-123.5 -87.5q-248 96 -288 96l-68 -322q-46 -48 -102 -93t-78 -71q75 -83 101 -110t112 -97q-8 -80 -8 -144z
M350 214l4 199q-4 17 -100 91.5t-96 83.5q11 12 84 72t99 91q13 97 25 168t12 102q102 -27 252 -89q105 65 211 130q2 -8 -2 -26.5t-7 -32.5q-13 -19 -25 -38q-17 -41 -37 -121q-45 -3 -90 -5q-251 -32 -251 -234q1 -125 73 -195t173 -71q43 0 88 16h41q4 -35 14 -95
t10 -107h-30l-200 114q-26 -5 -123 -29t-125 -24z" />
    <glyph glyph-name="D" unicode="D" horiz-adv-x="1260" 
d="M129 35q29 1 29 33t-29 32q-34 0 -34 -32t34 -33zM169 454q0 34 -30 33q-30 1 -30 -33t30 -34t30 34zM151 911q1 38 -31 38t-32 -38q0 -16 7 -22t25 -6t24.5 5.5t6.5 22.5zM733 582q0 89 -40 145t-129 56q-64 -6 -118 -18q0 -220 4 -420q151 0 198 26q85 47 85 211z
M247 420q-94 -123 -136 -181l167 -184l-23 -64q-78 0 -220 -12l-9 1206l74 -2q38 -87 141 -298q-101 -164 -153 -243q31 -54 159 -222zM301 420q0 1 -74 106.5t-74 123.5t74 127t74 115q-1 6 -63 119q-62 112 -80 174q67 7 167 21t220 14q291 0 459 -187t169 -467
q0 -315 -225 -478q-141 -98 -397 -98h-25l-65 1h-131q13 17 20 44q-70 86 -183 201q134 159 134 184z" />
    <glyph glyph-name="E" unicode="E" horiz-adv-x="985" 
d="M114 143q0 -32 34 -32t33 32q1 32 -33 32t-34 -32zM164 610q0 32 -33 32t-33 -32t33 -33q33 1 33 33zM199 1050q0 34 -32 34t-32 -34q0 -29 32 -29t32 29zM57 1224h117q74 -157 123 -236q-84 -89 -149 -199q110 -176 128 -212q-19 -32 -153 -190q156 -227 183 -276
q-61 -83 -77 -107l-215 -15q0 209 21.5 620.5t21.5 614.5zM477 751q49 0 130 9q0 -195 16 -329l-155 -7l-2 -122q218 -17 389 -17q-57 -197 -83 -299l-496 18l78 96q-123 185 -177 276q47 55 155 206q-16 21 -68 113t-58 105q50 75 151 186q-24 51 -123 238l651 -32
q-7 0 -33 -122t-34 -185l-341 9v-143z" />
    <glyph glyph-name="F" unicode="F" horiz-adv-x="950" 
d="M164 146q0 32 -33 33q-33 -1 -33 -33t33 -32t33 32zM166 588q0 32 -33 33q-33 -1 -33 -33t33 -32t33 32zM166 1040q0 32 -32 33q-32 -1 -32 -33t32 -32t32 32zM96 1200q46 0 62 7q62 -128 81 -171l-119 -231l135 -204q-74 -109 -135 -240q120 -184 131 -204
q-25 -44 -41.5 -82.5t-51.5 -81.5l-134 -23l-2 850v387q28 -7 74 -7zM443 804q0 -44 -5 -81l181 -2q0 -112 27 -320l-116 2q-74 0 -92 -16l-9 -332q-40 -13 -209 -46q61 93 79 153q-66 102 -132 205q104 154 144 238q-72 105 -144 211q49 64 118 214q-16 40 -33 92t-32 85
q296 0 626 10q-79 -284 -103 -332h-305q5 -37 5 -81z" />
    <glyph glyph-name="G" unicode="G" horiz-adv-x="1298" 
d="M274 214q0 33 -31 33t-31 -33q0 -26 31 -26t31 26zM132 508q35 0 35 32t-35 33q-30 -1 -30 -33t30 -32zM243 888q0 34 -31 34t-31 -34t31 -33q31 -1 31 33zM40 602q0 106 58 254t147 215q17 -20 42 -67.5t33 -71.5q-30 -40 -132 -217q13 -39 49.5 -110t61.5 -109
q-47 -75 -93 -150q18 -22 140 -158l-70 -85q-30 0 -89 82q-59 83 -103 197t-44 220zM220 707q73 104 149 233q-5 18 -61 155q26 41 142 80.5t210 39.5q178 0 332 -100t191 -223q-22 0 -168.5 -33t-203.5 -50q-22 26 -44 53q-30 24 -97 24q-103 0 -158 -92t-55 -226
q-1 -136 71 -207t172 -71q40 0 77 34t37 107q-25 11 -44 11l-33 -2q-26 0 -53 6q-51 128 -91 251q12 0 219 6t379 6q-7 -10 -7 -21t6 -52.5t6 -103.5t-16 -172t-56 -172q-133 -209 -454 -209q-103 0 -212 31t-147 76q19 23 41 63t31 57q-34 39 -125 159q53 77 78 120z" />
    <glyph glyph-name="H" unicode="H" horiz-adv-x="1386" 
d="M174 108q0 32 -32 32t-33 -32q1 -32 33 -32t32 32zM188 578q0 32 -32 32t-31 -32q-1 -32 31 -33q32 1 32 33zM181 1020q1 32 -31 32t-32 -32t32 -32t31 32zM258 568q-30 -53 -129 -244q97 -163 129 -213q-8 -10 -26 -45t-33 -57q-31 -14 -101 -34t-72 -21v1261
q30 -13 55 -13h25q24 0 36 1q87 -120 122 -197q-11 -25 -52 -98t-64 -130q21 -43 65 -126t45 -84zM814 361l-331 -11l-6 -324h-212q25 40 31.5 54.5t16.5 54.5q-125 188 -125 204q0 17 60 121t65 111q-18 38 -114 207q51 113 123 232q-12 38 -62 98t-68 88l291 7
q0 -109 4 -425q224 7 291 7l7 439q63 -7 149 -7t345 18l-16 -1235q-172 0 -193 -1q-118 -6 -263 -58z" />
    <glyph glyph-name="I" unicode="I" horiz-adv-x="608" 
d="M144 156q0 32 -32 32t-33 -32q1 -32 33 -31q32 -1 32 31zM175 566q0 33 -32 33t-32 -33t32 -33t32 33zM153 1052q1 33 -31 33t-32 -33q0 -27 31 -27q18 0 25 5.5t7 21.5zM56 1198q48 0 97 7q22 -43 50 -91t38 -73q-64 -122 -127 -243q27 -71 127 -271q-98 -159 -120 -193
q17 -24 66 -116.5t64 -129.5q-5 -8 -39 -44t-48 -62q-60 -19 -143 -41l5 1257h30zM489 -2h-234l55 81q-30 62 -60 122t-75 123q45 75 126 192q-59 129 -137 277l128 236q-4 10 -20 58t-47 126q41 3 264 11v-1226z" />
    <glyph glyph-name="J" unicode="J" horiz-adv-x="765" 
d="M266 188q0 33 -30 33t-30 -33t30 -33t30 33zM287 579q32 0 32 32t-32 32t-32 -32t32 -32zM279 1084q-32 0 -32 -32t32 -32t32 32t-32 32zM110 326q46 0 73 36t27 101v696q48 0 118 14q42 -91 61 -148l-111 -175l113 -254q-4 -11 -117 -211q52 -127 104 -253
q-61 -86 -157 -185q-50 -14 -84 -14t-56 8q-15 44 -74 422q57 -37 103 -37zM320 385q88 152 125 199q-83 216 -109 267q12 28 110 153q-20 65 -66 181q187 27 271 55v-628q0 -255 -30.5 -375.5t-94.5 -172.5t-206 -97q21 32 61 82t57 86q-24 62 -118 250z" />
    <glyph glyph-name="K" unicode="K" horiz-adv-x="1340" 
d="M155 131q-1 33 -33 33t-32 -33t32 -33t33 33zM155 673q-1 33 -33 33t-32 -33t32 -33t33 33zM100 1080q-32 0 -32 -34t32 -34t32 34t-32 34zM22 -9v1182l81 7q55 -69 92 -148q-47 -95 -100 -191q26 -48 139 -213q-59 -77 -149 -219q156 -282 156 -311q-9 -22 -55 -107
h-164zM468 797v-43q82 87 271 481l431 -62q-220 -432 -298 -535l335 -553q-247 -14 -446 -61q-25 38 -108 166t-181 237l-6 -436h-208q18 70 44 107q-135 281 -158 322q19 34 151 210l-144 220q28 28 94 175q-13 28 -39 74t-49 88q7 2 133 28t182 42q-4 -28 -4 -460z" />
    <glyph glyph-name="L" unicode="L" horiz-adv-x="820" 
d="M179 166q-1 34 -33 33q-32 1 -32 -33t32 -34t33 34zM137 599q30 0 30 32t-30 32t-30 -32t30 -32zM120 1102q-32 0 -32 -32t32 -32t31 32q1 32 -31 32zM46 1194q63 0 100 15q28 -45 56 -115t32 -79q-37 -107 -97 -220q52 -99 99 -242l-104 -168q56 -115 113 -230
q-13 -20 -35 -74t-43 -83l-146 4l9 1192h16zM457 378h275l-61 -380h-428q9 37 31 91t28 78q-61 100 -118 222q35 37 60 75t53 78q-61 170 -102 253q33 50 92 218l-79 207l249 27v-869z" />
    <glyph glyph-name="M" unicode="M" horiz-adv-x="1827" 
d="M157 74q31 0 31 32t-32 31q-32 0 -31 -34q0 -17 7 -23t25 -6zM265 578q0 34 -32 34t-32 -34t32 -33q32 -1 32 33zM341 1106q-1 32 -33 32t-32 -32t32 -33q32 1 33 33zM401 1215q41 -88 62 -155q-128 -160 -190 -253q91 -198 121 -243q-35 -48 -125 -150t-94 -106
q13 -22 73 -116t71 -118q-19 -18 -37 -40t-37 -43q-33 -5 -99.5 -9t-134.5 -22q127 621 164 1024q13 140 13 214q8 8 213 17zM468 1219l247 12q152 -383 167 -453t29 -115q128 291 227 563q244 -39 417 -39q48 0 93 5l74 -1225l-440 -4q-14 364 -14 492q-30 -53 -123 -254
q-94 -200 -120 -243l-284 -6q-65 123 -185 468l-66 -429q-72 0 -108 -1t-41 1q14 18 55 83q-34 65 -84 138t-67 99q19 32 103 120t107 114q-81 196 -109 251q50 68 112 156t62 108q-33 119 -52 159z" />
    <glyph glyph-name="N" unicode="N" horiz-adv-x="1397" 
d="M169 148q0 34 -30 33q-30 1 -30 -33t30 -34t30 34zM135 518q32 0 32 32t-32 32t-32 -32t32 -32zM169 992q0 33 -30 33q-30 -1 -30 -33t31 -32q17 0 23 7t6 25zM125 1224q116 -244 133 -276q-16 -51 -38 -117t-67 -147q124 -203 127 -209q-38 -50 -122 -130l109 -210
q-27 -54 -44 -72q-68 -22 -193 -42l14 960l-20 243h101zM1282 -40h-322q-55 -11 -90 -11q-64 91 -179 267t-151 218t-65 56l8 -402q-41 0 -181 -20l6 18q6 18 14 26l-112 199q9 15 129 176q-47 62 -125 195q81 203 114 278q-23 39 -131 264l286 16q46 -64 147 -218t214 -301
l4 271v162q126 24 261 48q134 25 173 33v-1275z" />
    <glyph glyph-name="O" unicode="O" horiz-adv-x="1332" 
d="M670 851q-94 0 -156 -49q-62 -50 -62 -174t70 -194t164 -69q95 1 147 71t52 169q-1 99 -61 173t-154 73zM387 482v17q-1 7 -3 17t-52 74t-79 94q21 13 147 123q12 9 14 33t3 135q108 -35 167 -35q58 52 96 86t64 69q19 -36 58 -114t58 -109q69 -28 129 -54t84 -51
q-34 -27 -90 -109t-56 -94q66 -93 94 -170q-172 -73 -225 -88q-30 -31 -84 -139q-12 -1 -82 69t-95 77l-168 9q-2 12 9 80t11 80zM490 146q0 33 -29 33q-34 -1 -34 -33t34 -32q17 0 23 7t6 25zM236 467q0 32 -34 32t-33 -32q-1 -32 33 -32t34 32zM255 955q-32 1 -32 -33
t32 -34t32 34t-32 33zM960 186q34 0 34 30t-34 31q-34 -1 -33 -31q-1 -30 33 -30zM380 997q0 -153 -19 -175q-37 -30 -78 -71l-86 -86q52 -61 153 -178q-7 -26 -40 -192h200q48 -52 92 -97t110 -84q44 54 78 104t42 58q35 9 71 18q46 18 170 82q-33 59 -88 190q0 38 60 118
t83 111q-24 15 -122 57t-118 53q-37 93 -144 243q-152 -142 -195 -173q-22 5 -88 26t-81 24v-28zM540 1087q32 -1 33 33q-1 34 -33 34t-32 -34t32 -33zM1099 578q0 -34 31 -33q31 -1 31 33t-31 34t-31 -34zM1025 996q1 32 -31 33q-32 -1 -32 -33t32 -32t31 32zM1247 579
q0 -259 -182 -420t-466 -161q-243 0 -409 186t-166 402q0 274 190 454t472 179q106 1 237 -67t227 -212t97 -361z" />
    <glyph glyph-name="P" unicode="P" horiz-adv-x="1226" 
d="M137 80q30 0 30 32t-30 32t-30 -32t30 -32zM114 529q0 -33 34 -33t33 33q1 33 -33 33t-34 -33zM179 1010q-1 34 -33 33q-32 1 -32 -33t32 -34t33 34zM524 621q36 0 73 35t37 81q0 114 -107 114q-39 0 -45.5 -24.5t-6.5 -137.5l-1 -44q0 -18 7 -21t43 -3zM132 278
q95 -145 113 -169q-23 -51 -37 -81t-44 -74q-16 -3 -60.5 -8.5t-73.5 -10.5l-6 1263q25 -3 68.5 -3.5t51.5 -2.5q115 -166 130 -198q-6 -15 -71 -106t-82 -121q116 -190 141 -257q-26 -38 -72 -124t-58 -108zM1106 726q0 -162 -71 -258q-128 -173 -416 -173
q-34 -4 -73 -10.5t-73 -6.5v-282q-13 -2 -95 -10t-144 -17l63 116q-9 21 -52 97t-57 113q124 187 132 213q-136 238 -145 270q80 101 153 205l-120 222l424 15q218 0 346 -138t128 -356z" />
    <glyph glyph-name="Q" unicode="Q" horiz-adv-x="1434" 
d="M872 592q0 77 -52 155q-64 97 -172 97t-165 -64q-56 -64 -56 -158q0 -92 51 -158q30 -39 93 -73q42 48 141 188q120 -67 138 -80q22 16 22 93zM311 472q-1 22 -57 70t-106 90q26 15 87 72t95 101l20 181q32 0 103 -13t140 -13q73 39 203 122q21 -127 37 -197
q37 -19 117 -41t100 -30q-31 -64 -95 -165l132 -238q-17 -6 -99 -40t-195 -54q-27 -39 -63 -75t-44 -50q-111 92 -162 119q-84 -11 -229 -37q16 119 16 198zM494 156q0 32 -32 32t-31 -32q-1 -32 31 -33q32 1 32 33zM192 448q0 31 -32 31t-31 -31q-1 -31 31 -31t32 31z
M214 873q0 32 -32 32t-31 -32q-1 -32 31 -32t32 32zM1102 173q0 33 -32 33t-32 -33t32 -33t32 33zM273 463q0 -36 -13 -111t-13 -116q37 0 135 14t130 24l183 -142q29 28 47 52t63 94q159 25 326 113q-15 45 -53 119t-72 139q71 94 102 199q-26 12 -121 36t-106 27
q-21 51 -32 120t-19 108q-187 -82 -268 -131q-176 19 -254 19l-28 -222l-194 -171q3 -4 95 -82t92 -89zM566 1124q0 35 -33 35q-28 0 -28 -32t28 -32q33 0 33 29zM1180 664q0 32 -32 33q-32 -1 -33 -33q1 -32 33 -32t32 32zM1010 1027q0 33 -33 33t-33 -33t33 -33t33 33z
M573 -14q-86 0 -188 46q-148 67 -237 202q-117 178 -117 454q0 242 232 401q67 47 175 91t225 44q256 0 428 -187t172 -451q0 -105 -34 -184q-7 -17 -59 -103q62 -39 146 -85q-109 -122 -217 -244l-174 97q-177 -81 -352 -81z" />
    <glyph glyph-name="R" unicode="R" horiz-adv-x="1191" 
d="M144 238q0 32 -32 31q-32 1 -33 -31q1 -32 33 -32t32 32zM131 684q-33 0 -33 -34t33 -33q33 -1 33 33t-33 34zM134 1119q-32 1 -32 -33t32 -34t32 34t-32 33zM660 793q0 60 -57 84q-35 15 -63 15h-23h-39t-24 -10t-8 -66t2 -77q6 -60 42 -60q41 0 91 21q79 33 79 93z
M76 1183h32q36 0 59 9q46 -69 84 -156l-140 -203q7 -11 61 -87t79 -125l-161 -183q71 -109 142 -217q-71 -139 -125 -214l-81 4l7 1165q11 7 43 7zM1075 850q0 -152 -35 -213q-35 -60 -107 -95t-94 -57l236 -387q-167 -35 -275 -63t-114 -28q-40 47 -138 192
q-99 145 -108 153l-2 -376q-32 -5 -281 22q108 163 133 208q-18 33 -139 218q108 111 150 193q-13 37 -67 115t-68 100q8 13 58 82t77 115q-2 9 -31 66t-34 97l286 6q176 0 290 -21t188 -98t75 -229z" />
    <glyph glyph-name="S" unicode="S" horiz-adv-x="918" 
d="M151 310q-37 0 -37 -36t37 -35q37 -1 37 35t-37 36zM352 587q0 36 -36 36t-36 -36t36 -36t36 36zM398 1007q0 36 -34 36t-34 -36t34 -36t34 36zM564 1231q32 0 32 36t-32 36q-37 0 -37 -40q0 -32 37 -32zM398 805q30 26 140 139q-25 83 -49 166q68 17 206 84
q72 -84 109 -140l-128 -102q-92 -91 -92 -200q0 -16 16.5 -93t16.5 -139v-21q0 -72 -26.5 -131t-83.5 -132q-208 -262 -249 -262q-6 0 -58 60.5t-58 79.5q42 27 109 51.5t104 48.5q-7 42 -60 160q22 13 204 159q-75 219 -101 272zM262 666q0 72 -15 145t-15 111t22 103
q22 66 61 116q39 49 119 117t143 123q23 -45 47 -77t41 -62l-236 -114q4 -23 27.5 -77t32.5 -87q-23 -25 -77 -72t-71 -64q7 -33 46.5 -135.5t50.5 -141.5q-125 -119 -195 -166l54 -146q-50 -30 -186 -93q-5 0 -50 46t-52 49q14 6 79 80q66 74 120 173q54 100 54 172z" />
    <glyph glyph-name="T" unicode="T" horiz-adv-x="1084" 
d="M445 124q-1 32 -33 33q-32 -1 -32 -33t32 -32t33 32zM396 487q31 0 31 31t-31 31t-31 -31t31 -31zM346 973q37 1 37 33t-37 32q-27 0 -27 -32t27 -33zM472 9h-171q-6 6 -6 59v754q-112 0 -214 4l-59 381l335 -2q24 -19 91 -85t96 -91q-66 -111 -153 -285q20 -26 147 -213
q-29 -60 -140 -232q45 -76 146 -196q-15 -19 -37 -57t-35 -37zM706 826v-844q-42 0 -95 6t-69 5q26 42 57 105q-87 128 -144 197q103 164 141 238l-141 218q75 142 150 285q-49 47 -84 82t-76 91l477 -2l51 -381h-267z" />
    <glyph glyph-name="U" unicode="U" horiz-adv-x="1237" 
d="M181 287q1 35 -33 35t-34 -35q0 -29 34 -29t33 29zM164 674q0 32 -33 32t-33 -32t33 -32t33 32zM142 1085q0 35 -32 35t-31 -31q-1 -31 31 -31t32 27zM183 571q-53 -78 -53 -91t137 -211q-22 -45 -112 -146q-79 94 -99 178q-32 137 -32 531v351q41 0 140 24q8 -6 72 -66
q-16 -22 -138 -276q34 -62 145 -204q-7 -12 -60 -90zM622 -22q-164 0 -249 18t-174 92q8 17 53 85.5t59 100.5q-7 21 -63 96t-73 103q61 95 135 181q-46 81 -84.5 124.5t-74.5 83.5q76 177 132 292q3 18 -13 35t-27 31q12 -4 35 -4l160 13q0 -100 4 -204.5l8 -209t4 -208.5
v-58q0 -123 29 -159t100 -36t98 59q20 43 20 148l-1 71v10q0 125 -5.5 314t-5.5 282q56 -6 193 -32t246 -26l10 -793q0 -93 -54 -186t-176 -158t-286 -65z" />
    <glyph glyph-name="V" unicode="V" horiz-adv-x="1478" 
d="M544 225q0 33 -34 33t-33 -33q-1 -33 33 -33t34 33zM350 673q0 33 -32 33t-31 -33q-1 -33 31 -33t32 33zM201 1061q0 32 -32 32t-32 -32t32 -32t32 32zM556 109q69 -96 95 -149q-21 -14 -65 -27t-59 -21q-450 1076 -501 1208q63 13 206 48q43 -58 87 -116l-83 -169
l214 -195q-35 -103 -70 -205q221 -183 260 -228zM895 1226q373 -73 463 -102q-25 -93 -140 -394t-180 -489q-65 -189 -90 -250q-163 -14 -242 -28q-9 19 -47 67t-43 58q53 90 93 185q-135 113 -264 234q0 21 44 193q-20 24 -188 185l66 179q-9 12 -29 53t-30 56q61 0 193 30
q86 -225 144 -371q57 -147 62 -167q166 456 188 561z" />
    <glyph glyph-name="W" unicode="W" horiz-adv-x="1998" 
d="M322 212q32 0 32 32t-32 32t-32 -32t32 -32zM269 638q1 32 -31 32t-32 -32t32 -31q32 -1 31 31zM202 1048q0 36 -35 36q-27 0 -27 -32t27 -32q35 0 35 28zM267 435q187 -176 206 -201q-9 -18 -59 -104t-68 -126l-70 7q-27 221 -195 968q-30 131 -59 263q40 -7 81 -13h54
q36 -33 82 -94.5t71 -109.5q-17 -39 -41 -111l-46 -138q96 -91 144 -146q-36 -93 -100 -195zM239 1228l191 10q17 0 25 -1l87 -555q47 96 122 272q75 175 125 283q102 -18 372 -18q92 -324 142 -567q28 55 77 208.5t113 324.5q61 -22 208 -60t179 -38q-186 -577 -271 -797
q-84 -220 -103 -279q-248 0 -448 -51l-35 142q-70 284 -107 336q-30 -54 -106 -223t-103 -241q-50 0 -298 35l120 225q-17 24 -108 118t-99 103q70 112 109 185q-58 71 -148 156q17 47 84 247q-54 88 -128 185z" />
    <glyph glyph-name="X" unicode="X" horiz-adv-x="1434" 
d="M897 53q1 -29 33 -29t32 32t-32 32t-33 -35zM693 346q-1 -27 33 -27t34 27q0 17 -10 28t-24 11q-33 0 -33 -39zM472 718q0 32 -32 33q-32 -1 -32 -33t32 -32t32 32zM218 1038q0 32 -32 33q-32 -1 -33 -33q1 -32 33 -32t32 32zM1036 71q0 -66 -15 -80q-36 -16 -88.5 -24.5
t-67.5 -12.5q-70 180 -198 310q-27 -20 -59 -91t-68 -152l-132 9q-46 0 -386 -74l347 637q-26 46 -74 130q-138 241 -271 376q0 3 68 29t72 26q37 -14 80 -42t73 -41l-18 -167q29 -22 123 -78t142 -96q-10 -25 -24 -88t-18 -78q128 -93 298 -179l2 -165q50 -42 100 -66
t114 -54v-29zM726 1226q123 -19 218 -19q120 10 250 10q-34 -87 -133 -271t-167 -290l422 -582q-48 -4 -108 -24t-135 -46l13 86l-1 34v11q-81 39 -220 120l7 158q-290 161 -290 185q23 115 23 156q-61 54 -111 86t-144 85q0 65 5.5 94.5t5.5 73.5q-6 5 -44 37t-70 44
q188 62 198 68q124 -177 156 -217q33 23 47 45t78 156z" />
    <glyph glyph-name="Y" unicode="Y" horiz-adv-x="1373" 
d="M529 63q33 0 33 33t-33 33t-33 -33t33 -33zM564 385q0 33 -33 33t-33 -33t33 -33t33 33zM462 717q0 31 -32 31t-32 -31t32 -31t32 31zM287 1020q0 32 -32 32t-32 -32t32 -32t32 32zM198 1201q16 0 99 -50q82 -50 109 -91l-39 -190q45 -44 125 -92t96 -61
q-42 -104 -59 -155q21 -32 76 -94t60 -67l-120 -178q51 -63 120 -190q-190 -46 -236 -63l-2 557l-403 658q46 0 102 8t72 8zM645 988q51 73 142 225l455 -52q-17 -55 -201 -332q-184 -278 -187.5 -288t-3.5 -478q-49 -4 -117 -19q-58 60 -123 164q0 22 42 80t81 113
q-13 21 -83 92t-71 73q17 42 45 96t41 80q-39 20 -111 74t-127 89l39 188q-32 29 -68 63t-70 57q6 3 70.5 10.5t95.5 16.5q86 -168 151 -252z" />
    <glyph glyph-name="Z" unicode="Z" horiz-adv-x="1281" 
d="M346 253q0 32 -33 32t-33 -32t33 -32t33 32zM551 628q0 32 -32 32t-32 -32t32 -32t32 32zM732 1020q0 32 -31 32t-31 -32t31 -32t31 32zM206 842q34 154 34 198t-26 180q1 0 173.5 -16.5t255.5 -16.5q38 -5 161 -5q20 -57 41.5 -118t21.5 -89q-89 -100 -233 -208
q56 -136 63 -183q-38 -27 -114 -86t-150 -109q0 -36 54 -183q-160 -102 -231 -155q10 -12 18 -62q-21 -5 -108 -8.5t-162 -13.5l495 838q-61 23 -165.5 27.5t-127.5 9.5zM922 960l-50 213h335q-420 -680 -479 -843q32 0 141 -10t216 -10q-60 -96 -103 -196t-57 -158
q-74 0 -300 15t-286 15q0 14 -11 67q60 51 120 83t90 50q-40 129 -51 197q202 141 276 183l-66 186q17 23 225 208z" />
    <glyph glyph-name="bracketleft" unicode="[" horiz-adv-x="717" 
d="M88 -208q0 305 4 1001l-4 503q459 45 517 53l27 -285q-92 0 -236 -16l-2 -484v-182q0 -181 2 -327l209 2l27 -287q-155 0 -312 11t-232 11z" />
    <glyph glyph-name="backslash" unicode="\" horiz-adv-x="767" 
d="M579 243q0 -33 32 -33t32 33t-32 33t-32 -33zM464 517q0 -32 32 -32t31 32q1 32 -31 32t-32 -32zM311 873q1 -32 33 -32t32 32t-32 32t-33 -32zM262 1139q0 11 -100 66q13 9 48 30t57 38l442 -1087q-5 -3 -33 -18t-55 -38q-56 48 -86 80l18 162q-1 10 -7 16t-54 35
t-81 56q0 118 13 218q-14 19 -94 73t-77 72q9 69 9 297zM206 988q0 -78 12 -162q20 -34 84 -84t85 -77l-13 -173q0 -12 2 -26q22 -28 76 -65t68 -55q-24 -86 -24 -156q14 -18 41.5 -40t48.5 -48l-21 -15q-23 -16 -76 -36l-443 1092q48 34 74 40l98 -70q-12 -47 -12 -125z
" />
    <glyph glyph-name="bracketright" unicode="]" horiz-adv-x="626" 
d="M566 623l13 -748q-84 0 -162 -10.5t-167.5 -22t-201.5 -11.5l-8 289l224 5l3 332l-3 658l-213 -2l-18 294q59 1 257 -11t289 -12z" />
    <glyph glyph-name="asciicircum" unicode="^" horiz-adv-x="925" 
d="M826 929l-144 -324l-236 237l-190 -276l-188 299l354 438z" />
    <glyph glyph-name="underscore" unicode="_" horiz-adv-x="1095" 
d="M1025 -256h-972v256h972v-256z" />
    <glyph glyph-name="grave" unicode="`" horiz-adv-x="756" 
d="M670 1254l-135 -207l-389 228l182 285z" />
    <glyph glyph-name="a" unicode="a" horiz-adv-x="1147" 
d="M621 378v45q0 79 -17 105t-74 26t-88 -37.5t-31 -85.5t35 -81t81 -33q46 1 70 11t24 50zM73 198q-64 104 -64 259q0 154 93 273q112 132 332 132q123 0 164 -30q3 4 14 38q12 0 86 3.5t144 3.5l-109 -235l78 -153q-46 -102 -88 -172q61 -87 125 -155q-16 -32 -36 -76
t-28 -53t-41 -18t-59 -24q-12 19 -18 27t-17 8q-215 -35 -275 -35q-59 -1 -148 51t-153 156zM865 489q-24 30 -84 153q20 41 51 107t65 136l123 7l1 -560q0 -100 20 -258q-87 -11 -136 -21t-66 -13q21 40 55 122q-41 41 -127 149z" />
    <glyph glyph-name="b" unicode="b" horiz-adv-x="1120" 
d="M153 191q0 18 -6 25t-24 7q-31 0 -31 -33q0 -16 6 -20t26 -4t24.5 3.5t4.5 21.5zM167 622q-1 18 -3 24t-22 6q-31 0 -31 -29q0 -21 7.5 -24t23.5 -3t20.5 4t4.5 22zM530 313q50 1 87 31t37 86t-41 78t-91 21q-50 0 -60.5 -6.5t-10.5 -27.5v-23q0 -24 1 -39l-1 -47
q0 -38 14 -56q15 -18 65 -17zM155 1048q0 32 -26 32q-19 0 -25 -7t-6 -23t6 -20.5t21 -4.5t22.5 3t7.5 20zM129 1226q56 -130 85 -218l-74 -167l89 -242q-87 -136 -109 -175q28 -53 105 -243q-57 -135 -74 -167q-30 -17 -111 -28l4 1240h85zM1038 443q0 -200 -82 -314
q-100 -138 -311 -138l-293 19q-83 0 -160 -14q43 86 98 183l-109 230q81 129 106 187q-97 242 -97 246q66 117 86 164q-26 95 -75 218q191 34 262 57q-28 -193 -28 -350q0 -46 13 -63t43 -17l171 18q77 0 154 -28q114 -45 168 -151t54 -247z" />
    <glyph glyph-name="c" unicode="c" horiz-adv-x="826" 
d="M137 266q30 0 30 32t-30 32t-30 -32t30 -32zM454 64q0 34 -34 34t-33 -34q-1 -34 33 -33q34 -1 34 33zM311 696q0 32 -32 32t-32 -32t32 -31q32 -1 32 31zM486 -33q-92 0 -200 44q-108 43 -185 149t-77 278q0 55 20 125q40 141 137 229q135 122 364 122q122 0 170 -29
q-19 -46 -26 -71t-7 -75h-42q-104 57 -155 70q-54 -88 -140 -188q-100 -19 -208 -76q98 -150 132 -234q-1 -23 -7 -103t-6 -101l179 59q97 -75 138 -92q13 6 51 28t69 33q16 -49 30 -113q-42 -34 -93.5 -44.5t-143.5 -10.5zM682 184q-41 -34 -105 -70q-4 3 -122 98
q-37 -9 -136 -45q-8 21 -8 38l8 82q-16 63 -39 108t-78 121q100 38 181 57q18 30 67.5 95t61.5 86q158 -83 158 -89l-21 -86q-17 5 -48 5q-78 0 -135 -47t-57 -111t50 -94q50 -31 107 -31t79 16q6 -21 37 -133z" />
    <glyph glyph-name="d" unicode="d" horiz-adv-x="1084" 
d="M586 345q0 21 1 43t1 58t-14 61t-59 25q-11 0 -17 -1q-54 0 -86 -32t-32 -81q0 -50 32 -80t82 -30q49 0 70.5 8t21.5 29zM859 166q33 0 33 32t-33 32t-33 -32t33 -32zM844 586q33 0 33 32t-33 32t-33 -32t33 -32zM886 1072q0 32 -30 32t-30 -32t30 -33q30 1 30 33z
M571 826l-22 437h205l-84 -248q20 -29 46 -87t38 -84q-88 -209 -109 -245q83 -192 109 -232q-45 -61 -62 -85t-32 -59q11 -77 68 -202q-28 -7 -179 -19.5t-182 -12.5q-141 -1 -249 119t-107 335q0 257 197 362q104 54 190 54t173 -33zM931 1264v-471l40 -705
q-85 -33 -186 -58q-33 79 -48 111.5t-22 66.5q19 22 45.5 74.5t48.5 78.5q-44 83 -105 258q50 109 101 218l-84 202q6 27 42.5 119t47.5 106h120z" />
    <glyph glyph-name="e" unicode="e" horiz-adv-x="1200" 
d="M192 166q0 34 -32 33q-32 1 -31 -33q-1 -34 31 -34t32 34zM494 -56q0 32 -32 32t-31 -32q-1 -32 31 -32t32 32zM174 512q0 33 -32 33t-33 -33q0 -27 33 -27q17 0 24.5 5.5t7.5 21.5zM665 501v44q-11 23 -38 47t-63 24t-72.5 -30.5t-36.5 -84.5h210zM437 744q31 0 31 34
t-31 33q-31 1 -31 -33t31 -34zM865 662q32 0 32 32t-32 32t-32 -32t32 -32zM355 105l-33 -2q-4 22 -5.5 63.5t-3.5 53.5q-36 49 -52 68t-73 62q35 20 84.5 64.5t49.5 57.5q-37 123 -37 149t71 26l107 -5q103 0 141 50t39 52q18 -17 37 -33q32 -65 64 -129q118 -88 144 -108
t26 -31q-137 -158 -188 -158h-206q0 -30 58 -69q64 -33 129 -65q-3 -14 -33 -58t-57 -84l-162 91zM450 685l-62 -2l-26 1h-55q-73 1 -73 -41q0 -26 15 -65t15 -74q0 -36 -53 -80t-102 -83q43 -28 83 -66t73 -69l-9 -171q38 0 94 9t81 9q3 -3 62 -40t93 -64q-21 -37 -59 -79
q-83 0 -197 52t-202 161q-88 110 -88 274q0 245 142 383t368 137q397 0 507 -307l40 -148q5 -45 5 -137q-2 -2 -87 -2t-162 2l-9 14q0 5 58 65t84 81v16q-68 53 -128 95t-75 63q-50 71 -86 131t-52 61l-102 -104q-31 -22 -79 -22h-14z" />
    <glyph glyph-name="f" unicode="f" horiz-adv-x="881" 
d="M320 985q0 32 -31 32t-31 -32t31 -32t31 32zM367 216q-1 -18 -47 -70t-90 -102q35 -68 35 -87t-84 -34v564l-133 -10q-5 52 -10 143t-16 173h166l-2 116q0 84 38 158t87 106q34 -51 106 -179q0 -19 -148 -262l118 -187q-9 -23 -107 -190q17 -25 52 -73t35 -66zM644 946
q-28 0 -65 -41q-11 -35 -11 -110v-21l162 2q-59 -204 -90 -278l-78 -2q0 -470 -4 -471t-215 -55q-5 0 -31 31t-34 36q28 28 78 90t75 91l-101 139l105 187l-122 200q134 215 151 250l-32 72q-34 74 -65 132q54 26 129 26q76 0 188 -21t134 -49q-31 -55 -118 -236
q-28 28 -56 28z" />
    <glyph glyph-name="g" unicode="g" horiz-adv-x="1207" 
d="M723 -288q1 35 -33 35t-34 -35q0 -28 34 -28t33 28zM440 452q0 -40 36 -87q36 -46 86 -46q82 0 87 56q0 44 1 102t-15.5 74.5t-70.5 22.5t-89 -38t-35 -84zM1010 62q0 32 -31 32t-31 -32t31 -33q31 1 31 33zM997 510q0 37 -33 37q-28 0 -28 -32t28 -32q33 0 33 27z
M805 -155q-51 0 -165 13q-50 -29 -161 -83q-26 74 -36 127h41q82 0 120 15q62 24 84 94q0 21 -25 21q-131 -19 -223 -19q-206 0 -310 124t-104 301q0 176 78 274t188 132q108 34 193 34t141 -8q35 28 63 44q21 -22 91 -102t87 -104l-128 -268l128 -202q-11 -25 -106 -167
q2 -13 23 -117t21 -109zM501 -272q50 23 131 86l235 -12q0 15 -20.5 127.5t-30.5 141.5l102 178q-44 72 -118 204q40 72 136 264q-63 71 -67 76q-55 71 -55 112q6 -1 8 -1h21q62 0 150 13t106 25l3 -885q0 -179 -172 -301t-344 -122q-32 0 -59 6z" />
    <glyph glyph-name="h" unicode="h" horiz-adv-x="1128" 
d="M201 167q0 39 -34 39q-14 0 -23 -11t-9 -28q0 -27 33 -27t33 27zM195 620q-1 32 -33 32t-32 -32t32 -32t33 32zM169 1050q0 34 -30 34t-30 -34t30 -33q30 -1 30 33zM265 1044l-114 -239q76 -98 116 -165q-45 -154 -100 -262q115 -179 123 -190q-29 -95 -70 -197
q-44 -5 -132 -21q0 205 -24.5 671.5t-37.5 605.5q88 10 138 23q3 0 52 -110t49 -116zM638 354v23q0 165 -84 165q-103 0 -103 -151q0 -28 4 -63l11 -339h-181l65 178q-22 43 -64 113t-57 107l112 256q0 5 -59 94t-59 97t48 112t48 118l-89 217q48 0 183 26q0 -86 9 -259.5
t9 -210.5q57 37 222 37q167 0 251 -87t84 -203q0 -181 27 -505q-73 -13 -159 -32t-205 -69q-13 214 -13 376z" />
    <glyph glyph-name="i" unicode="i" horiz-adv-x="545" 
d="M114 269q0 -28 35 -28t35 22t-11 32.5t-25 10.5t-24 -10t-10 -27zM137 579q30 0 30 32t-30 32t-30 -32t30 -32zM151 1040q1 32 -31 33q-32 -1 -32 -33t32 -32t31 32zM255 286q0 -10 -56.5 -91t-56.5 -89t36 -62q36 -52 51 -84q-130 -41 -170 -45v826q20 7 45.5 10
t48.5 14q27 -31 55 -65t37 -70l-81 -250q4 -6 48 -45t43 -49zM313 296q0 14 -41.5 45.5t-41.5 47.5q80 244 80 263l-90 129q53 0 215 24l5 -796q-112 -22 -164 -35q-39 64 -77 112q0 5 57 100.5t57 109.5zM26 1064q0 19 15.5 59.5t39.5 67.5q33 -15 93 -57t84 -74
q-40 -73 -138 -175q-94 67 -94 179zM236 1261q104 0 160 -61t56 -148t-58 -136t-137 -49q-78 0 -78 18q49 53 75 83t57 80q0 11 -77.5 77.5t-115.5 89.5q56 46 118 46z" />
    <glyph glyph-name="j" unicode="j" horiz-adv-x="529" 
d="M125 118q-1 -6 -3 -17t6 -19t12 -14l15 9v31q-14 7 -30 10zM179 434q0 6 -2 19h-26l-11 -25q6 -8 6 -14q14 -4 31 0q2 14 2 20zM167 743v21q-4 6 -16 8q-13 -13 -15.5 -20t-5.5 -15zM166 1054q0 4 -2 18h-34q-7 -9 -18 -20q4 -10 8 -19q8 -2 22 -2t22 2q2 17 2 21z
M276 406q0 -4 -60.5 -71.5t-60.5 -77.5t30 -94t51 -134q-65 -56 -122 -97q-6 -12 -7 -49.5t-17 -70.5q-55 69 -55 94q15 40 27 72.5t12 62.5l-6 751l224 37q-24 -82 -117 -223q17 -22 59 -109t42 -91zM297 24q0 8 -35 92t-56 122q118 124 118 160l-103 210q100 147 113 217
q16 12 97 28q5 -7 -13 -260l6 -497q0 -94 -65 -230t-151 -203q-41 48 -66 99q4 17 22 149q38 26 86 65q48 40 47 48zM112 924q-17 0 -45 39t-28 96t42 111q16 0 80 -53t75 -76q-20 -26 -69.5 -71.5t-54.5 -45.5zM236 1262q73 0 135 -56t62 -146t-41 -128l-95 -57
q-24 -7 -71 -7t-59 22q79 77 99 98q13 21 36 47q-91 88 -182 177q22 24 60 37t56 13z" />
    <glyph glyph-name="k" unicode="k" horiz-adv-x="1242" 
d="M148 184q0 6 -5 11t-8 11h-24q-6 -13 -19 -27v-24l20 -4q36 0 36 33zM153 654v52l-24 3q-1 0 -37 -23q22 -35 43 -35q9 3 18 3zM128 1168q-10 0 -20 -9t-10 -21t14.5 -21t22.5 -9l23 5v41q-20 14 -30 14zM155 1307q58 -66 109 -146q-14 -45 -63 -147t-53 -120
q29 -46 61 -125t38 -120q-15 -41 -54 -109t-58 -105q30 -88 123 -217q-23 -81 -91 -209q-53 0 -119 4v154q0 199 -8.5 594t-8.5 546q17 -3 42 -3t82 3zM328 1324h24q44 0 77 5l2 -761q45 50 248 262h434l-295 -443l301 -396q-52 0 -218 -18t-215 -30q-59 65 -128 147
t-113 135q0 -62 2.5 -150t2.5 -106q-198 24 -211 29q24 80 83 208q-22 33 -63 110t-71 115q28 51 62 113t72 99q-34 53 -73 149t-48 113q20 25 38 60t95 200q-5 7 -25 41t-73 113q27 5 92 5z" />
    <glyph glyph-name="l" unicode="l" horiz-adv-x="554" 
d="M181 122q-1 30 -31 29q-30 1 -30 -29t30 -30t31 30zM179 508q1 30 -29 30t-30 -30t30 -29q30 -1 29 29zM155 974q-1 30 -29 30t-28 -30t28 -30t29 30zM129 748q84 -204 118 -258q-69 -113 -107 -160q81 -172 92 -207q-10 -49 -16 -75t-28 -44q-11 -6 -18 -6q-57 6 -115 6
l-18 1179q32 0 79 10t65 10q26 -112 66 -200l-70 -150q-29 -62 -48 -105zM297 501q-76 154 -109 247q7 14 120 246q-22 77 -38 118t-38 97l188 20l26 -1259h-199q22 52 55 144q-81 159 -101 194q69 108 96 193z" />
    <glyph glyph-name="m" unicode="m" horiz-adv-x="1711" 
d="M190 262q0 18 -6.5 24t-23.5 6t-24 -5.5t-7 -22.5q0 -34 29 -34q20 0 26 7t6 25zM155 684q0 20 -6.5 22.5t-21.5 2.5t-25 -2.5t-10 -22.5t9 -26.5t26 -6.5t22.5 6.5t5.5 26.5zM241 679q-27 -46 -104 -225q5 -8 69 -90t84 -117q-122 -130 -158 -179q17 -22 39 -56t35 -52
q-60 0 -149 -25l-20 937l43 3q9 -1 12 -1q42 -50 86 -104t63 -91zM657 885q107 0 177 -28q59 -31 119 -61q62 43 141 76t146 33q147 0 224 -61q76 -61 102 -158t26 -231v-418q-25 0 -167.5 -33.5t-223.5 -62.5q0 66 -9 278t-12 227q-32 99 -87 99q-29 0 -53.5 -22.5
t-24.5 -49.5l12 -464q-56 0 -201 -27t-192 -58q-11 404 -24 500q0 114 -77 114q-83 0 -83 -135q0 -28 5 -75l11 -354q-20 2 -32 2l-169 -13l-66 116l174 168q-92 113 -183 226q69 106 105 231q-26 50 -140 170q204 22 253 37q6 -12 35 -52q107 26 214 26z" />
    <glyph glyph-name="n" unicode="n" horiz-adv-x="1060" 
d="M126 310q-32 0 -31 -32q-1 -32 31 -31q32 -1 32 31t-32 32zM148 689q0 37 -34 37q-29 0 -29 -32t29 -31q34 0 34 26zM234 283q0 -21 -61.5 -90.5t-61.5 -79.5t18 -46t24 -71q-1 -2 -56 -16t-71 -17l-2 881q47 0 56 1t41 10q64 -31 111 -149l-100 -233q10 -29 56 -107
t46 -83zM946 4q-21 0 -26 7q-66 0 -241 -41h-78v517q0 37 -30.5 62.5t-62.5 25.5q-86 0 -86 -137v-424q-27 0 -106.5 -5.5t-107.5 -12.5q-41 100 -41 109q-1 10 61 83t80 99l-124 177q7 12 108 255q0 13 -91 151q92 10 208 39l4 -28q195 33 247 33q126 0 227 -79t101 -183
l7 -643q-28 -5 -49 -5z" />
    <glyph glyph-name="o" unicode="o" horiz-adv-x="1128" 
d="M688 440q0 64 -32 110t-99 46q-66 0 -105 -44t-39 -106t37 -104q36 -43 100 -43t101 39q37 38 37 102zM447 223q-25 0 -137 -26l18 190q-23 19 -73 47t-88 53q9 18 64 45t114 57q17 105 40 172q106 -81 142 -100q62 26 238 81q2 -10 2 -34q-1 -24 -19 -102t-22 -98
q42 -52 76 -97t35 -75q1 -18 -63 -32t-90 -31q-44 -25 -50 -108q-2 -35 -17 -35q-57 36 -101 64t-69 29zM151 274q30 0 30 25q0 31 -30 31t-30 -31q0 -25 30 -25zM463 81q0 31 -31 31t-31 -31q0 -26 31 -26t31 26zM221 667q26 -1 26 29t-26 30q-33 0 -33 -30t33 -29z
M358 168q60 20 70 20t202 -120q14 29 30 80t28 88q92 44 216 94q-60 96 -128 187q29 145 29 279q-41 -10 -143 -44t-131 -35q-1 1 -55 33t-124 59q-16 -43 -33 -121t-31 -88t-96 -44t-113 -51q30 -22 197 -150q0 -22 -7 -97t-7 -116q36 6 96 26zM839 180q0 28 -29 28
t-29 -28t29 -29q29 1 29 29zM508 818q0 -23 29 -23t29 23q0 32 -28 32q-10 0 -20 -10t-10 -22zM931 572q1 27 -29 27t-30 -27t30 -27t29 27zM21 452q1 198 155 326q154 127 374 127t362 -123q142 -122 142 -346t-169 -348q-149 -109 -386 -109q-199 -1 -339 137t-139 336z
" />
    <glyph glyph-name="p" unicode="p" horiz-adv-x="1043" 
d="M109 -169q23 0 23 24t-23 24t-23 -24t23 -24zM135 271q-1 26 -25 26t-24 -26t24 -26t25 26zM132 670q21 0 21 26t-21 27q-29 -1 -29 -27t29 -26zM477 322q43 0 91 35t48 86q0 97 -118 97q-58 0 -72 -16t-15 -104l-1 -40q0 -30 12 -44t55 -14zM132 876q63 -67 119 -176
q-121 -163 -163 -269q34 -33 78 -75t81 -98q-112 -158 -152 -225q19 -29 77 -101t58 -94q-26 -48 -51 -96q-49 10 -158 29l5 1089q19 2 52.5 9t53.5 7zM975 413q0 -131 -60 -231q-90 -151 -171 -167.5t-135 -16.5l-163 8q-41 0 -59 -10v-265q-30 -6 -56 -6l-56 8
q-16 0 -28 -2q18 69 40 107q0 42 -139 206q18 15 58 81t86 144q-35 58 -150 188q17 37 69 122t81 142q-12 19 -46 71t-58 93l230 19q0 -39 6 -39l105 4q175 0 272 -71t135 -163t39 -222z" />
    <glyph glyph-name="q" unicode="q" horiz-adv-x="1047" 
d="M573 419q0 72 -4 85t-34 38q-81 0 -116.5 -28.5t-35.5 -86.5q-1 -58 23 -84t57 -26q76 0 93 15t17 87zM883 64q1 34 -33 34t-34 -34t34 -33q34 -1 33 33zM885 490q0 37 -34 37q-29 0 -29 -32t29 -32q34 0 34 27zM783 -144q0 -57 -182 -111v93q0 91 -8 158h-162
q-220 0 -315 124t-95 344q0 159 71 254q71 94 172 134t179 40t111 -15q5 3 27 23t35 20q27 -21 80 -91.5t82 -122.5q-98 -201 -126 -293q32 -56 68 -98t52 -68q-2 -2 -50 -85t-61 -120q12 -19 67 -93t55 -93zM840 -136q0 12 -3 22l-128 149q4 8 111 223q-14 20 -58 84
t-58 91q20 70 124 279q-54 88 -107 176q93 0 219 9v-1048q-22 -2 -64 -9t-43 -7q7 19 7 31z" />
    <glyph glyph-name="r" unicode="r" horiz-adv-x="810" 
d="M135 268q32 0 32 32t-32 32t-32 -32t32 -32zM169 677q0 32 -30 32t-30 -32t31 -32q17 0 23 7t6 25zM239 667q-43 -110 -102 -212q7 -13 45 -75t57 -104q-51 -108 -109 -184q18 -42 34 -75t24 -50q-92 -25 -135 -30l-13 946h69q51 -99 130 -216zM440 319q0 -22 7 -124
t7 -182q-20 -8 -92 -22.5t-100 -14.5q-41 84 -70 133q30 35 71 103t45 75l-122 179q82 154 106 211q-20 39 -68 116t-55 92l239 7q5 -7 23 -33q135 18 190 38q22 -1 49 -2t72 -9q-20 -56 -55 -180q-36 -124 -45 -152l-116 -32q-86 -48 -86 -203z" />
    <glyph glyph-name="s" unicode="s" horiz-adv-x="780" 
d="M313 279q0 32 -31 32t-31 -32t31 -32t31 32zM383 624q0 32 -32 32t-32 -32t32 -31q32 -1 32 31zM520 888q0 34 -32 34t-33 -34q1 -29 33 -29t32 29zM601 826q70 -86 92 -107q-54 -59 -107 -118q-35 -65 -35 -163l5 -127q0 -155 -168 -313q-69 -64 -126 -116
q-49 27 -96 85q21 79 35 103q149 91 210 136l-48 229q82 80 124 118q-20 82 -47 164q110 62 161 109zM301 455q60 -211 64 -234q-6 -3 -87 -50t-121 -76q-29 -66 -43 -86q-56 48 -90 94q65 58 103 101q37 44 79 118t50.5 107.5t8.5 65.5l-14 124q0 161 145 290q45 38 91 76
q29 -32 59 -64q20 -26 33 -62q-176 -112 -188 -131q25 -100 52 -146q-47 -52 -142 -127z" />
    <glyph glyph-name="t" unicode="t" horiz-adv-x="877" 
d="M295 184q-1 34 -33 34t-32 -34t32 -33q32 -1 33 33zM295 550q-1 32 -33 32t-32 -32t32 -33q32 1 33 33zM232 997q0 -28 32 -28t31 28q1 33 -31 33t-32 -33zM385 548q0 -23 -93 -218q0 -13 45.5 -77t45.5 -86q-39 -81 -93 -176q-44 -11 -139 -28v601h-103l-35 330l138 -2
v262q22 11 70.5 19t54.5 10q10 -22 40 -83t39 -105l-82 -219q0 -25 56 -115t56 -113zM446 184q0 8 -50 73t-50 73t50 111t50 125t-59 102t-59 93l42 105q43 108 43 119t-72 213q59 15 120 25t107 19l-4 -338l124 -4q32 0 79 4q-62 -333 -69 -342l-134 -1v-517
q-79 -28 -199 -53q81 168 81 193z" />
    <glyph glyph-name="u" unicode="u" horiz-adv-x="1163" 
d="M188 326q0 31 -34 31t-33 -31q-1 -31 33 -31t34 31zM556 61q0 31 -33 31t-33 -31t33 -31t33 31zM155 764q0 32 -30 32t-30 -32t30 -32t30 32zM888 267q34 1 34 33t-34 32q-29 0 -29 -32t29 -33zM934 744q30 0 30 32t-33 33q-16 0 -21.5 -7t-5.5 -24q0 -34 30 -34z
M1047 885v-479q0 -221 -168 -334q-138 -93 -350 -93q-137 0 -259 69t-161 140q-3 0 -19 34q-48 96 -48 277l-2 373h118q69 -77 83 -109l-127 -230q4 -5 62 -65t100 -122q4 -24 14 -112t16 -136q123 44 221 90q33 -8 109 -38t106 -38l6 249q51 46 183 184q-46 59 -94 125
t-48 90q22 33 94 125h164zM553 354q100 0 100 159q0 36 -11 113v301q178 -34 178 -51q-51 -87 -92 -144q22 -27 70 -82t69 -86q-118 -128 -161 -158q-8 -80 -8 -225l-182 60q-73 -39 -182 -67l-6 187q0 23 -68 97t-79 86q59 77 114 216q-19 32 -41 69t-31 52q65 0 119.5 15
t111.5 31v-260l-2 -120q0 -93 16 -134q23 -59 85 -59z" />
    <glyph glyph-name="v" unicode="v" horiz-adv-x="1201" 
d="M507 81q0 33 -32 33t-32 -33t32 -33t32 33zM391 392q1 32 -31 32t-32 -32t32 -31q32 -1 31 31zM223 744q0 37 -35 37q-30 0 -30 -32t32 -32t33 27zM473 406q0 -21 -67 -167q0 -17 91.5 -96t91.5 -91t-17 -32t-27 -20q-32 9 -93 9h-12q-61 117 -400 865l178 20
q8 -3 37 -29q53 -49 53 -109q0 -12 -10 -74t-11 -96q0 -53 93 -106t93 -74zM520 413q0 40 -55 74q-119 73 -119 101q0 52 15 217q0 21 -30 54t-36 46q80 19 160 39l124 -314q21 26 61 126t67 158q188 -44 377 -88q0 -23 -369 -852q-12 9 -94 24q0 11 33 69q-48 42 -118 104
t-70 91q54 111 54 151z" />
    <glyph glyph-name="w" unicode="w" horiz-adv-x="1683" 
d="M366 330q0 33 -30 33t-30 -33t30 -33t30 33zM167 698q32 0 32 32t-32 32t-32 -32t32 -32zM466 324q-32 -97 -70 -176q24 -28 66 -88.5t54 -73.5q-32 0 -80 3.5t-95 6.5l-332 846l149 9l150 -128q0 -59 -25 -224q11 -13 79 -73t104 -102zM455 151l72 185q-38 43 -102 98
t-79 73q10 117 21 235q-49 48 -69 66t-75 52q51 4 109 10t103 35q9 -34 51 -135.5t63 -135.5q44 34 71 123t45 150q107 0 316 31q35 -84 50.5 -114t70.5 -126q68 150 81 240q324 -83 402 -83q-15 -70 -77 -236q-63 -167 -66 -169q-54 -154 -91 -274t-55 -132
q-84 -12 -190 -40t-153 -37l-123 346q-34 -49 -68.5 -150.5t-49.5 -186.5h-91q-43 40 -103 106t-63 69z" />
    <glyph glyph-name="x" unicode="x" horiz-adv-x="1434" 
d="M842 102q0 32 -32 33q-32 -1 -32 -33t32 -32t32 32zM582 370q0 31 -32 31t-33 -31q1 -31 33 -31t32 31zM236 733q0 -27 32 -27t31 27q1 34 -31 34t-32 -34zM67 862q107 0 169 15q52 -23 108 -45t69 -36v-78q0 -93 14 -174q78 -19 154 -41.5t105 -30.5l-16 -185
q56 -32 129 -70t110 -64v-179q-12 -6 -83 -22l-183 194q-28 -18 -53 -59t-50 -83q-12 -8 -167 -24q-154 -17 -362 -43l374 501q-17 30 -175 205t-186 219h43zM975 952q157 0 288 24q0 -3 -182 -245t-184 -242l355 -412q-143 -54 -279 -86v184q-18 12 -129 73t-118 72v176
q-48 24 -143 50t-110 31l6 245q-17 9 -55 23t-90 54q30 4 160 41q7 0 57 -70t77 -96q14 16 64 82t82 104q44 -8 201 -8z" />
    <glyph glyph-name="y" unicode="y" horiz-adv-x="1215" 
d="M338 -167q0 32 -32 32t-32 -32t32 -32t32 32zM466 217q0 32 -32 32t-33 -32q1 -32 33 -32t32 32zM372 528q0 32 -32 32t-32 -32t32 -32t32 32zM164 884q0 32 -32 32t-32 -32t32 -32t32 32zM435 345l129 -140q-36 -41 -98 -125t-83 -111q15 -32 41 -77t26 -46
q-32 -64 -48 -92t-61 -77q-63 -19 -141 -37t-119 -28l265 620q-85 158 -324 693q41 22 129 43q11 0 50 -36t61 -71q0 -48 -12 -121t-14 -93q36 -24 128 -56t115 -44q-44 -134 -44 -202zM582 686l95 271q113 -21 398 -44q-17 -49 -135 -309q-118 -259 -158 -358t-113 -277
q-74 -178 -92 -240q-46 -17 -159 -47q53 91 89 162q-17 46 -34 70t-38 53q61 66 111 123t80 116q-57 98 -141 153q0 24 64 222q-71 39 -257 84q28 126 28 216q-22 22 -52 59t-39 47q14 5 104 28t96 23q45 -134 65 -176t88 -176z" />
    <glyph glyph-name="z" unicode="z" horiz-adv-x="1246" 
d="M301 100q0 32 -32 32t-32 -32t32 -32t32 32zM541 440q0 32 -32 33q-32 -1 -32 -33t32 -32t32 32zM683 787q1 35 -31 35t-32 -35q0 -27 31 -27q18 0 25 5.5t7 21.5zM651 367l-270 -192q49 -144 49 -153q-68 0 -132 -7t-231 -22l391 569q-34 0 -134.5 1t-123.5 1
q5 45 5 150t-29 217l603 -13q7 -30 17 -86t14 -72q-159 -147 -221 -211q-1 -13 23 -81t39 -101zM878 744q0 4 -40 161l243 -19l-265 -576q62 -8 104 -13t194 -5q-126 -275 -138 -283q-138 0 -496 13q-2 8 -23 68.5t-21 64.5q33 27 138 87t139 92q-39 132 -58 220
q29 30 117 102t106 88z" />
    <glyph glyph-name="braceleft" unicode="{" 
d="M593 66q0 32 -33 32t-33 -32t33 -31q33 -1 33 31zM262 308q33 0 33 30t-33 30t-33 -30t33 -30zM253 842q32 0 32 32t-32 32t-32 -32t32 -32zM626 1143q30 0 30 31t-30 31t-30 -31t30 -31zM344 210v-40q0 -41 2 -58q4 0 97.5 24t120.5 33q140 -123 178 -138h13q19 0 28 4
v-135l-96 -3q-96 -3 -125 3q-176 0 -300 174t-148 436q-2 14 -46 57t-44 63t44 70q44 51 46 65q36 231 181 384.5t322 153.5l160 14q19 0 28 -1q-7 -26 -18 -153q-33 6 -81 -41t-98 -95q-194 102 -230 102q-8 -41 -30 -191t-24 -162q-36 -46 -82 -98t-63 -80
q58 -91 83.5 -125t87.5 -104q-6 -113 -6 -159zM383 177l2 219q0 18 -78 100t-78 92q16 25 68.5 80.5t76.5 96.5q10 103 18.5 178.5t8.5 120.5q57 -22 206 -98q4 2 72 68t95 74q2 -7 -1 -27.5t-5 -30.5t-4 -12q-4 1 -6 1q-14 0 -39 -134q-30 -1 -92 -19t-111 -73
q-70 -78 -70 -223t100 -220q76 -57 191 -57q0 -47 13 -111t13 -91h-22l-162 125q-5 -1 -92 -30t-104 -29z" />
    <glyph glyph-name="bar" unicode="|" horiz-adv-x="554" 
d="M198 130q32 0 32 36t-32 36t-32 -36t32 -36zM197 595q31 0 31 35t-31 35t-31 -35t31 -35zM203 1189q-1 36 -31 36t-30 -36t30 -36t31 36zM300 1223l-125 -306q41 -111 67 -182t58 -127q-70 -130 -113 -192q79 -187 97 -249q-10 -61 -16 -91t-23 -44q-16 -14 -26 -14
q-51 7 -122 7l-19 1414q33 0 80 12t72 12q27 -132 70 -240zM238 917q2 5 127 296q-24 95 -41 143t-40 115l200 24l27 -1511h-211q13 32 59 173q-97 211 -108 232q77 141 102 232q-78 180 -115 296z" />
    <glyph glyph-name="braceright" unicode="}" 
d="M371 66q0 32 -33 32t-33 -32t33 -31q33 -1 33 31zM636 308q33 0 33 30t-33 30t-33 -30t33 -30zM272 1143q30 0 30 31t-30 31t-30 -31t30 -31zM645 842q32 0 32 32t-32 32t-32 -32t32 -32zM140 1039q-8 0 -9 4q0 6 -4 33t-3 32q32 -9 88 -68t79 -74q132 67 206 98
q-1 -44 7 -112t20 -187q22 -36 80 -101t65 -76q0 -10 -78.5 -92t-78.5 -97v-53t3 -169q-21 -1 -99 27t-97 32q-159 -124 -162 -125h-22q0 41 13 94t13 108q114 0 190 57q101 76 101 220q0 241 -198 301q-46 14 -75 14q-25 134 -39 134zM552 112q1 5 1 84.5t-5 172.5
q62 70 87.5 104t83.5 125q-19 33 -67 86t-78 92q-21 140 -32.5 219t-21.5 134q-26 -1 -99 -37l-131 -65q-5 4 -94 92q-46 45 -75 45q-7 0 -10 -1q-11 126 -18 153q8 1 11 1h19l158 -14q177 0 321.5 -153t181.5 -385q3 -20 46.5 -66.5t43.5 -68.5t-44 -62.5t-46 -57.5
q-24 -262 -148 -436t-300 -174q-30 -6 -69 -6l-152 6v135q10 -4 41 -4q28 11 76 51t102 87q31 -10 122 -33.5t96 -23.5z" />
    <glyph glyph-name="asciitilde" unicode="~" horiz-adv-x="925" 
d="M416 1071l-150 151l-122 -177l-120 191l227 281l258 -240v-1l150 -151l121 177l121 -191l-227 -281l-258 240v1z" />
    <glyph glyph-name="exclamdown" unicode="&#xa1;" horiz-adv-x="552" 
d="M185 302q1 34 -31 33q-32 1 -32 -33t32 -34t31 34zM199 762q-1 32 -33 32t-32 -32t32 -33q32 1 33 33zM146 1192q31 0 31 32t-31 32t-31 -32t31 -32zM225 910q58 -85 81 -140q-35 -47 -138 -213q53 -103 107 -206q-22 -33 -90 -199q-25 0 -133 -28l17 753q18 14 156 33z
M231 555q67 134 134 224q-14 28 -40 63t-36 68q37 14 87.5 16.5t77.5 6.5l-21 -716q-2 -3 -84 -23t-106 -26q24 37 85 190q-59 99 -97 197zM155 1068q-23 0 -61 52t-37 118q0 66 30.5 127t67.5 61q23 0 151 -181q-138 -177 -151 -177zM267 1464h17q90 0 154 -70t64 -154
q0 -86 -78 -150t-148 -64q-68 0 -91 23l180 206q-37 35 -153 197q29 12 55 12z" />
    <glyph glyph-name="cent" unicode="&#xa2;" horiz-adv-x="1500" 
d="M-2 1194h1502v-1192l-1502 -6v1198z" />
    <glyph glyph-name="sterling" unicode="&#xa3;" horiz-adv-x="1417" 
d="M336 529q0 -529 350 -529q152 0 263 110t111 266t-99 244t-222 87q-123 0 -134 -32l21 -288q0 -59 -29 -59t-43 245l-10 516l-148 -5q-38 0 -60 5v-560zM236 -30q0 -38 22 -38t34 -11q-23 -41 -62 -41q-46 0 -78 80t-32 144q0 62 42 134q39 60 113 84q27 9 27 21
q0 17 -37.5 26t-54.5 31q-10 29 -24 57t-42 28t-43 -18t-15 -29q0 -20 28 -32t28 -23q0 -18 -21 -18q-44 0 -66 43q-22 44 -22 92q0 91 81 169q50 46 110 49t66 14l-8 411h311v-84q0 -281 12 -299h191q16 22 46 45t57 23l46 -3q67 0 67 47q0 30 -46 62q-8 0 -52 -35l-24 8
q18 79 92 79q73 0 126 -62t53 -127t-34 -115q-38 -41 -75 -81q0 -18 39.5 -32.5t63 -56t55.5 -69.5t48 -28t31.5 17.5t15.5 27.5t-18.5 17t-18.5 23t32 16t51 -36t19 -98t-58 -129t-147 -67h-16q-24 0 -71 15l-26 -44q21 -68 21 -87v-26l-21 -75q0 -30 5 -38t26 -8
q48 0 48 28q-13 13 -25 33q26 20 37 20q12 0 19.5 -21t7.5 -34q0 -54 -50 -95.5t-116 -41.5t-126 47l-104 102q-23 0 -30.5 -29.5t-20.5 -42.5q-28 -22 -50 -41t-22 -41q0 -34 42 -34q16 0 33 22t26 21t9 -39q0 -53 -113 -53t-171.5 61.5t-58.5 179.5q0 43 18 75l-5 15h-9
q-30 -26 -108 -28.5t-78 -56.5z" />
    <glyph glyph-name="currency" unicode="&#xa4;" horiz-adv-x="1882" 
d="M745 7q-25 -1 -93 -71t-77 -87l293 5q-26 56 -62 104t-61 49zM603 440q-36 0 -174 -173l116 -5l59 -1q72 0 122 12q-28 87 -63 127t-60 40zM1138 -62q-52 56 -71 55q-19 0 -147 -144l253 -16q10 0 28 3q-11 46 -63 102zM758 232l-179 -11l-108 8q-30 0 -51 -6v-17
q31 -130 50 -157h545l111 -21h151q23 0 46 -19q33 49 51 105t31 76v11q-398 0 -463 13q-60 6 -119 12t-65 6zM339 673l183 -3q52 0 108 10q-40 64 -76 120t-69 72q-66 -72 -102 -116t-44 -83zM1075 260q-32 48 -87 100t-102 75l-132 -162zM1307 473q11 -2 26 -2h29
q15 1 50 1t72 -22l22 176h-558l-179 16q-146 -19 -428 -19q7 -44 17 -94t36 -56l246 12q285 0 366 -11t91 -11zM656 680q78 0 103 2t64 -4t95 -13q-71 184 -137 211q-112 -178 -125 -196zM1145 253l162 -14q29 0 80 8q9 0 21 -8v17q-34 53 -80 113t-47 62zM962 670
q21 -6 50 -6l73 6q3 0 49 -5t51 -5q-15 36 -59 109t-44 86l3 17q-1 -2 -61 -100t-62 -102zM1497 660q-35 46 -71 113t-40 97q-28 -18 -46 -42t-107 -163zM269 832q0 93 103 93q35 0 157 -9l389 -2q6 -7 9 -7l454 -3q71 0 144 -15t73 -52q0 -30 -30 -142q-30 -113 -31 -183
q0 -70 -39 -174t-76 -205q-37 -100 -100 -218t-89 -145h-16q-5 12 -9 24q-4 8 -11 8t-19 -4l-277 12h-357q1 -22 1 -31q-1 -9 -15 -9t-50 76t-47 131t-31 127t-47 189l-21 133q-15 95 -21 122q-6 26 -25 140t-19 144zM1849 1002q0 -78 -19 -148t-59 -205q-22 -167 -76 -295
q-54 -129 -95 -214q-40 -84 -50 -130t-41 -107t-67 -148q-26 -42 -62 -42t-36 27q6 14 29 63t62 159q40 110 90 219t91 224t77 303t36 278q0 4 -10 12t-18 8h-85q-12 -5 -18 -5l-190 22q-18 -3 -84 -3t-285 21h-554q-8 0 -15 -5l-275 9q-24 -24 -24 -186l4 -173
q0 -37 32 -187q32 -151 45 -231t65 -250t84 -232v-39l-42 -2q-62 0 -88 63q-32 109 -72 220q-40 112 -58 208q-17 96 -40 156q-53 139 -53 529l-4 109v17q9 76 56 83q73 11 74 11l668 -13l148 19h112l448 -48l175 9q42 -6 84 -11q40 -17 40 -95z" />
    <glyph glyph-name="yen" unicode="&#xa5;" horiz-adv-x="1493" 
d="M1001 457q0 108 -79 180t-189 72q-109 1 -185 -77t-76 -174t78 -180q78 -85 184 -85q107 0 187 78t80 186zM455 447q0 126 88 207t194 81q107 0 195 -77q88 -78 88 -192t-73 -200t-193 -87q-120 0 -210 71t-89 197zM804 62q0 10 -6 28q-6 19 -11 54l-13 -4l17 -70
q-6 -22 -128 -92l-29 173q13 -7 42 -43t57 -69q6 28 15 37l-13 16q0 6 19 17q-13 12 -13 21h13v10h-17q-12 -12 -16 -22q8 -7 8 -13q-9 -14 -1 -26q-15 2 -26 17q-33 45 -83 68l28 -213q77 49 117 75t40 36zM357 385q-13 0 -57 55t-45 59v8q80 30 161 60q28 13 36 31
l-229 -84q15 -12 69 -80t60 -67l72 20l-2 13q-53 -15 -65 -15zM301 454q16 0 103 -39l14 2v12q-8 1 -42 15t-37 22q13 14 51 42t45 51zM330 645q4 0 46 12t76 20t40 14q21 70 205 313q56 74 68 74l46 -20l-50 24q-6 0 -23 -22t-83 -104q-66 -83 -101 -145q-35 -61 -68 -119
q-41 -7 -150 -40h-13q4 -7 7 -7zM1045 459q1 129 -95 214t-214 85t-214 -88t-96 -213q0 -124 93 -214t221 -90q128 1 216 89t89 217zM1138 529q-12 -1 -46 -11t-40 -11q2 -5 2 -7t3 -4q5 4 25 8t46 16l110 -155l-3 -10l-194 -10q-4 -6 -7 -13l232 16q-23 29 -69 105
q-47 76 -59 76zM737 828v-12q-15 -4 -22 -11q3 -2 9 -12v-10l-18 -7v-7h18l20 10l-7 25q11 1 21 5v7l-10 12q8 14 17 14q19 -28 41 -56t53 -44q-71 96 -101 128q-9 -21 -30 -33q9 -7 9 -9zM695 763v16l-16 60q5 7 72 37t82 42h13q10 -46 16 -106t30 -86l-33 218
q-60 -16 -128 -56t-68 -46l19 -79h13zM918 715l-5 150q1 14 15 21t47 18q-7 1 -13 7q-3 -13 -22 -17t-35 -20v-102q3 -41 13 -57zM758 1097q31 0 125 -61l214 -150l2 -5q-39 -15 -77 -29q-39 -19 -39 -54q0 -94 23 -112q141 -63 205 -102q196 -121 196 -139q0 -35 -82 -167
t-136 -155q-7 9 -23 58t-23 49q-22 0 -41 -2q19 6 43 15h16q3 -17 15 -53t13 -51q53 27 128 151q-81 -125 -123 -142l-33 100h-20l-140 -26q-3 -1 -8 -6q13 -7 41 -4q-28 -12 -47 -31q-112 -178 -204 -292q-47 -72 -63 -72t-130 67t-182 125q12 10 63 21t51 23
q0 108 -69 164q-79 43 -121 69t-88 55q-47 29 -82 55t-58 43t-23 24q0 27 75 141t89 132t42 36q9 -41 49 -107q92 0 142 50q16 16 71 107t139 190q68 85 70 85zM975 754q0 27 -6 39v53q-3 -1 -5 -2q0 -20 2 -60t10 -109q30 -3 100 -39t109 -61q199 -109 199 -137
q0 -18 -11 -46l24 48q-55 48 -85 68t-106 62t-123 64t-71 32t-30 27q-6 18 -7 47v14zM394 68h28q12 0 46 17q-7 42 -14 63q-13 40 -54 40q-4 0 -142 85t-186 131t-48 66t29 78q73 146 239 307h9q1 -3 27 -67t41 -64q55 0 85 34t53 86t79 126q56 73 56 78q96 99 118 99
q102 0 418 -275v-12q-63 -13 -151 -56q2 -32 4 -53q-11 23 -11 53q0 14 69 38t79 30q-216 199 -362 253q-34 13 -48 13t-56 -48t-46 -52q-101 -107 -173 -249q-35 -68 -120 -68q-13 0 -35 56t-36 67q-96 -87 -178 -212t-81 -171q0 -12 16 -27q37 -30 94 -78t172 -110
q115 -63 140 -69l20 -103l-158 -37q123 -155 319 -239q66 -28 84 -28t71 62t112 148q59 88 91 142t33 53q25 -1 61 7t38 8q3 -24 44 -141q206 171 259 341q13 41 13 63q0 35 -89 87q-27 22 -54 45q-41 29 -126 76l-104 50q-17 10 -28 25l153 -71q3 -1 21 -15t31 -14l120 -89
q50 -39 66 -59t17 -54q-1 -34 -27 -83q-26 -50 -52 -98q-119 -176 -153 -176q-21 -21 -47 -37q-11 12 -31 78q-21 66 -33 65q-25 0 -83 -23q-91 -155 -91 -164q-36 -33 -108 -134t-89 -101q-79 0 -79 18q-118 49 -177 98q-123 104 -139 122t-34 34v7q36 13 60 13q25 0 28 15
zM438 -4v11l88 25q-57 -9 -95 -25q7 -3 7 -11zM536 35l8 2v9q-17 75 -33 150q0 1 -10 7q5 -13 19 -83q15 -70 15 -74zM118 448q-21 15 -19 23q-2 -4 -5 -8q12 -7 24 -15zM267 736l6 6h7q18 -30 28 -56t14 -33q-3 13 -16 39q-12 25 -30 62q-3 -8 -9 -18zM946 855q4 -32 4 -90
t8 -79q0 96 -10 151l3 20l99 33q-8 5 -16 11v-11q-19 -4 -88 -35zM876 1002q-92 58 -101 57q-8 -1 -9 -2q12 -2 53 -24q41 -23 57 -31zM534 736q18 26 33 54q45 81 139 200q-119 -144 -172 -254zM467 664q-123 -30 -133 -34h-17q-9 29 -22 52t-22 39q-8 -10 -15 -21
q9 9 16 9q8 0 26 -40t20 -50q69 30 101 34q33 3 46 11zM238 674q-77 -108 -118 -204q13 -9 26 -17q-19 17 -19 32q0 16 45 83t55 85q9 18 11 21zM475 243q43 -27 45 -27q-4 9 -15 14q-11 4 -30 13zM561 24q-29 0 -79 -18l89 20v11q-9 16 -23 78t-24 91q4 -14 7 -47
q3 -34 30 -110v-25zM479 4q-6 -2 -11 -4q8 -4 17 -9q-4 3 -6 5v8zM709 -140q-4 0 -12 4l15 -10q81 76 222 304q18 30 30 48q-22 -28 -48 -71q-109 -179 -177 -249q-26 -26 -30 -26zM1370 433q0 15 -60 50q56 -36 56 -48q0 -37 -60 -125t-95 -126h-10q-8 36 -31 90h-9
q-37 -16 -87 -16t-62 -8l-18 -12l162 27q15 0 30 -40t15 -58q2 4 4 4q165 199 165 262zM1205 544q-144 85 -229 117q86 -37 151 -73q65 -37 78 -44zM1099 464q-11 0 -14 -1l-9 20l-19 -10q3 -12 3 -16q11 6 16 6q2 -11 9 -23q3 7 17 10q1 -7 8 -21q23 7 35 7l3 -16
q-41 -16 -61 -27t-38 -35q19 8 75 37q55 29 61 31q-11 2 -43 20t-43 18zM863 1032q-31 18 -40 22h-10q27 -11 50 -22zM954 976q42 -29 103 -72q-47 36 -103 72zM1102 228q-40 -13 -68 -16q29 12 68 16zM448 -7q120 -88 273 -164q15 17 32 38q-25 -27 -36 -27t-83 38
q-73 39 -129 77t-57 38zM824 -39q79 109 81 118q38 55 56 86t24 42q-22 -27 -71 -107q-50 -80 -90 -139zM976 849q20 4 54 17q34 14 50 20q-4 0 -9 8v-8q-9 -6 -43 -18t-52 -19zM1041 736l-7 3q-1 1 -3 12q4 -8 10 -15z" />
    <glyph glyph-name="brokenbar" unicode="&#xa6;" horiz-adv-x="2300" 
d="M2038 1075q14 0 148 98q34 -40 70 -73t44 -42v-22h-170q-26 -10 -108 -114t-172 -157q-140 -83 -341 -83l-9 -15q0 -19 93 -111q4 -4 140 -134t148 -160t12 -130q-1 -100 -39 -183q-38 -84 -97 -84q-11 0 -42 38t-62 38t-61 -33t-70 -33t-71 48t-56 88l301 11l17 40
q-2 7 -2 39t-26 92q-35 81 -93 81q-24 0 -72 -62t-94 -95q-79 -56 -188 -56q0 -157 -5 -201q-15 -133 -114 -133q-75 0 -95 72q-2 8 -13 140q-7 79 -49 89q-177 41 -255 92q-51 40 -102 81q-52 0 -52 -59q8 -80 8 -120q49 0 130 -6t139 -11q-15 -39 -44 -77t-49 -39l-112 74
q-11 0 -62 -44t-74 -44q-109 0 -109 182q0 17 7 115.5t10 103t137 131.5t222 218q-86 22 -140 22t-96 -5q-34 13 -187 169q-153 157 -172 165t-58 8l-46 -1q-34 0 -61 9q16 22 95 85.5t87 63.5t60.5 -44.5t54.5 -44.5q12 0 74.5 39.5t76.5 39.5q31 0 223 -123
q-52 -22 -105 -24.5t-92 -30.5q41 -63 105 -93q63 -30 119 -30t85 2t34 0l-113 128q40 36 108 114t112 111q30 -5 102 -5l242 5q38 -37 114 -81t139 -96l-133 -114l16 -24h353q18 0 39 16t92 83q-26 42 -78 42l-61 -3q-1 4 -16 28q79 58 124 94t57 35q12 0 55.5 -45
t72.5 -45z" />
    <glyph glyph-name="section" unicode="&#xa7;" horiz-adv-x="2300" 
d="M392 -260q-8 0 -57 44t-69 45q-20 0 -155 -98q-31 37 -69 71t-44 43v26h171q27 10 109 113t171 156q140 83 340 83l11 15q0 18 -92 106t-185 176q-94 88 -105.5 120.5t-11.5 132.5q0 101 38.5 183t97.5 82q11 0 42.5 -37t61.5 -37t61 33t80 33q29 0 63 -54t54 -84
l-299 -7q-19 -35 -18 -43q1 -6 1 -38t30 -103t88 -71q24 0 74 64t92 93q78 55 188 55q0 157 5 201q15 133 115 133q75 0 95 -71q3 -10 13 -138q6 -80 48 -91q175 -41 256 -93q51 -40 102 -79q54 0 54 57q-10 72 -10 124q-58 0 -269 16q14 38 43.5 76t50.5 38l111 -75
q10 0 61 45t75 45q109 0 109 -184q0 -20 -7.5 -114t-9.5 -100t-123 -121t-236 -233q80 -21 134 -21t77.5 3t25.5 2q38 -14 259 -242q81 -83 84 -85q38 -15 70 -15t56 1q24 0 53 -9q-19 -21 -96 -84.5t-85 -63.5t-59.5 45t-59.5 45t-70.5 -40.5t-81.5 -40.5t-217 122
q49 23 102.5 26t93.5 31q-85 123 -239 121q-70 -1 -80 -1h-15q-7 2 -11 2l116 -129q-44 -41 -112 -117t-107 -108q-31 4 -91 4l-254 -6q-34 34 -110 78t-143 99l131 114q-4 9 -17 26h-353q-16 0 -50 -30t-79 -70q28 -43 80 -43l59 3q9 -16 17 -24q-67 -51 -119 -91t-60 -40z
" />
    <glyph glyph-name="dieresis" unicode="&#xa8;" horiz-adv-x="1550" 
d="M1397 449q-1 265 -191 451t-453 185q-263 1 -443 -183t-181 -451q0 -267 186 -453t450 -186t448 186t184 451zM872 886l25 2v-309l-25 26v281zM798 1036h25v-410l-25 12v398zM698 1034h23l2 -396l-25 -13v409zM630 886l24 2v-272l-24 -28v298zM319 559l-6 25h313l-21 -25
h-286zM157 483v25h418l-7 -25h-411zM1349 479h-394l-13 26h407v-26zM1347 392h-409l13 26h396v-26zM1217 332h-312l24 23h288v-23zM1209 551h-287l-21 24h308v-24zM308 320l2 26h286l23 -26h-311zM904 5l-30 2v280l30 23v-305zM654 2l-20 -2v310l20 -34v-274zM702 -135v408
l26 -13l-4 -395h-22zM153 391v26h418l13 -26h-431zM804 -129v396l24 9l-2 -405h-22zM1447 454q0 -284 -199 -486t-483 -202t-484 201t-200 487t194 486q193 199 477 199q284 -1 490 -201t205 -484z" />
    <glyph glyph-name="copyright" unicode="&#xa9;" horiz-adv-x="1362" 
d="M415 -16q246 -187 489 -6q-65 104 -134 193q-125 0 -232 8q-8 -13 -56 -94t-67 -101zM739 218q-21 60 -85 137q-16 -29 -48 -72t-42 -62q13 0 51.5 -1.5t123.5 -1.5zM714 551q-34 0 -104 -7q5 -14 25 -50t21 -39q44 54 58 96zM756 589q46 56 77 104q0 13 -15 53.5
t-37 71.5q-48 -58 -95 -116q-25 22 -57 60t-54 64l-49 -124q33 -76 54 -113h176zM709 870q-4 43 -14 74q-10 -26 -11.5 -39.5t-4.5 -34.5h30zM741 1066q0 36 -46 36q-17 0 -31.5 -14.5t-14.5 -34.5q0 -21 16 -33q17 -12 37 -12q40 0 39 58zM1150 611q0 19 4 46t3 45
q-97 -41 -128 -66h-26q-21 119 -34 143q-19 -15 -93 -93t-135 -159t-61 -111t56 -110t108 -174l100 -141q15 -106 32 -137v-21q-9 -7 -16.5 -7t-106.5 67q-25 -26 -28 -75t-5 -63q-26 12 -52 42t-53 63q-14 -15 -35 -61t-31 -63q-23 16 -41 67t-31 72q-29 -21 -61 -61
t-48 -53q-9 61 -9 132l-11 12q-49 -33 -93 -91h-19q27 89 27 122l-6 21q0 7 82 142q83 134 137 214t54 96q-14 33 -38 89t-80 136q-56 82 -130 138q-32 -48 -32 -151l-14 -9q-32 23 -97 42h-38q-3 -18 -3 -47t3 -95q-15 -5 -33 -5t-138 44v26q140 139 284 205t329 83
q0 39 6 75q-1 16 -41 48t-87 36q-154 11 -202 24q41 9 254 23q49 92 124 92q44 0 76 -29t32 -77q0 -18 -35 -67t-35 -72l4 -53q86 -17 175.5 -35t179.5 -66t215 -166v-21q-63 -15 -111 -33h-41q-7 48 -7 67z" />
    <glyph glyph-name="ordfeminine" unicode="&#xaa;" horiz-adv-x="1336" 
d="M656 1020q0 -23 -15 -36t-33 -13t-33 14q-16 14 -16 32q-1 17 13 33t32 16t34 -12q18 -12 18 -34zM130 132q0 33 1 57l-1 205q0 524 65 601q11 11 75 43t82 37l-32 16q-8 -6 -95 -34q-49 -16 -88 -121q-3 -5 -5 -25t-7 -39q-14 -602 -14 -778q3 -1 18 1q1 4 1 37z
M571 700q-29 8 -66 8t-69 -15q47 -69 104 -17q24 22 31 24zM871 446q10 14 9 31q0 19 -8 31t-29 11t-47 -47q0 -16 18 -28t32 -12q15 0 25 14zM610 948q28 0 48 20q22 20 20 52t-22 50q-20 17 -40 18q-20 0 -53 -22q-32 -22 -32 -53q5 -25 28 -45t51 -20zM570 -227
q-76 -10 -272 -10t-206 12q-6 54 -6 95q23 88 81 110t71 31l8 116q9 48 60 54l107 -7q16 -51 16 -178q13 -17 83 -24t79 -83q0 -35 -7 -62zM446 49q0 82 24 118l308 -14q63 0 121 -3t58 -30q0 -120 -50 -138q-63 -22 -66 -24q-34 -19 -43 -49t-9 -80t-11 -58l-155 2
q-4 38 -4 122v63q-29 30 -101 36t-72 55zM901 -46q43 -16 45 -28q0 -158 -23 -162q-50 0 -62 2q-40 7 -45 48q0 31 30 121q34 19 55 19zM376 1054q0 -14 -80 -55t-80 -123v-236q0 -34 -21 -58t-21 -38t1 -22q0 -8 12 -32l12 -24v-371q-6 -37 -34 -69q-29 -32 -69 -33t-44 31
t-12 43l21 709l-6 91q-1 143 79 212t205 69q15 2 28 -6t13 -20q-4 -40 -4 -68zM691 827q63 0 65 -23q0 -1 -8 -40q-8 -38 -6 -74t-44 -116t-44 -128q2 -46 27 -80t52 -40q0 -46 -3 -72t-6 -59l-105 -5q0 32 -3 92q-24 141 -65 177l-18 -2q21 -18 38 -77t17 -153
q0 -25 -16 -27t-84 2q-68 6 -81 13q-12 7 -31 33q-18 26 -42 26t-42 16t-19 32q0 40 32 40q10 -1 14 -1h12l69 -6q26 0 40 12q-12 21 -47 21t-91 -2t-57 36q-1 19 15 28t69 9t69 10t15 34q-12 98 -65 98q-11 -2 -26 -17q51 0 51 -42q1 -26 -11 -38t-42 -12h-15
q-103 0 -103 39q0 15 32 60t86 84t75 125q8 32 22 32l262 -6q7 1 12 1zM966 204q0 -14 -28 -20l-171 -1q0 36 7 123q18 -21 77 -21q58 0 89 34q16 22 22 29q11 -16 11 -22q-7 -77 -7 -122zM245 724v136q-3 36 37 84t79 48q10 1 13 -11t8 -61q0 -34 -7 -45q-13 -9 -25 -18
v-13q0 -158 -86 -158q-19 -2 -19 38zM1003 216q0 90 13 246t13 196v45q0 75 28 75l63 1l16 -60l-39 -728q0 -173 -13 -205t-71 -33q-31 19 -35 39q25 334 25 424zM852 334q-56 0 -104 38t-53 100q1 36 39 88t80 52q66 0 114 -30t55 -90q1 -62 -37 -110t-94 -48zM1124 -214
l37 638v16q-11 11 -11 24q9 72 9 115q4 20 4 130q7 32 7 65t-18 74q-21 26 -42 53q3 21 3 65q0 112 39 112q52 5 73 -48q12 -30 19 -101l2 -326q0 -299 -8 -541t-12 -268q-5 -26 -15 -30t-34 -3q-24 0 -37 4t-16 21zM988 772v-164l-7 -3q-42 44 -158 44q-25 2 -58 -11
q26 91 26 167q197 -6 197 -33zM635 1175q172 0 172 -27q5 -35 -13 -163t-61 -128l-64 10l-265 -5q0 6 -4 10q17 102 17 294q46 9 218 9zM809 879q1 29 25 154t38 126q120 -12 120 -51q1 -6 1 -18l-18 -214q0 -18 -7 -24q-8 -6 -32 -8t-76 8t-51 27zM1107 1076q-1 -20 -7 -80
q-6 -61 -8 -82t-4 -51q-5 -33 -34 -33q-12 0 -26 8t-15 17q30 231 44 273q11 1 31 -6t18 -16q1 -10 1 -30z" />
    <glyph glyph-name="guillemotleft" unicode="&#xab;" horiz-adv-x="2424" 
d="M605 306q-10 4 -29 4q-5 0 -113 128q0 22 -73 56t-73 81q-9 9 -9 19t5 18q-9 8 -17 16t-26 8t-68 -19t-62 -19q-10 0 -19.5 9.5t-9.5 20.5t18 41q-90 7 -90 52q1 29 71 76t94 74q58 64 58 151t33 117h13q12 -17 26 -42l7 -4q16 20 16 43v11q0 10 17 10q16 0 48 -38
t57 -67q5 -4 55 -18t85 -31q82 -48 114 -48q82 -10 177 -10t228 10l137 5q73 0 121.5 -9t101.5 -19q106 0 216 -74t111 -123q0 -3 45 -51t45 -70q0 -24 42.5 -77.5t42.5 -81.5l26 -61q0 -7 -4 -14q22 -16 32 -24t2 -20q16 -13 48 -52.5t54 -59.5t59 -49t37 -45h11
q2 0 11 -11t24 -16v-13q-28 -40 -64 -40l-47 11q-7 0 -7 -8t-28 -8q-28 -1 -80 27t-94 78t-120 122q-77 72 -105 85l4 -97q0 -26 73.5 -83.5t73.5 -97.5v-140q17 -20 17 -43l-4 -36q5 0 -7 -37q0 -7 19.5 -19t19.5 -24t-3 -18q-28 -8 -39 -8t-42 7q-74 81 -74 148l13 73
q-84 54 -151 121q-13 -48 -13 -110l18 -209l-4 -54q0 -8 3 -22h-215v80q30 6 52.5 32t22.5 81t-11 111t-22 62q-69 66 -105 102t-46 36q-15 0 -47 70t-57 70q-96 0 -160 -12l-46 -30v-315l-5 -83q0 -95 5 -104t5 -31q0 -21 -11.5 -31.5t-176.5 -10.5q-6 9 -6 19t6 19
q25 8 29 10q36 24 47 134q0 17 -40.5 130.5t-40.5 160.5l-19 28q-32 -29 -40.5 -65.5t-23.5 -47.5q5 -4 7 -5q-66 -276 -66 -382q-35 -8 -96 -8t-85 8q-14 20 -14 26t5 22q32 15 65 15q14 55 26 167.5t12 212.5l-9 89q0 23 6 38z" />
    <glyph glyph-name="logicalnot" unicode="&#xac;" horiz-adv-x="1801" 
d="M913 -291q0 11 9.5 28t9.5 25t-1 11q-9 8 -9 15l-9 29q-5 8 -19.5 16t-16.5 10l-5 9l-12 172l-34 61h-15l-72 -142q40 -33 40 -62t-9 -47q-8 -10 -34 -10t-48 19v9l49 21l4 22l-8 24l-54 20v10q6 12 26 39.5t25 46.5q11 119 23 238q0 66 -16 125q-43 36 -193 172
t-252 218t-207 135q-3 7 -3 13t6 8h47l22 -10h88l56 41l90 19l45 73q88 8 148 26t95 66q10 -8 14 -14q124 -259 297 -375q16 0 16 11q-25 75 -25 137q1 62 29 137q28 76 92 119q41 19 65 19q23 0 36 -8l2 -7q-13 -18 -13 -31t2 -23q78 -186 78 -325q0 -11 -1 -25t-1 -20
q26 13 66 68q104 108 208 217q22 16 59 16q89 0 89 -59q0 -23 -26 -80q7 -46 54 -103q-4 -5 -7 -9l-98 77q-16 2 -23 2h-11q-53 -9 -83 -45t-59 -101q-11 -48 -11 -105l2 -106q-32 -157 -44 -196q-12 -40 -46 -88q-33 -48 -95.5 -75t-140.5 -27q-61 -55 -168 -73l-20 -202
l46 -58l4 -69q-8 -27 -30 -31q-6 0 -14 -5q-8 -4 -9 7z" />
    <glyph glyph-name="minus" unicode="&#xad;" horiz-adv-x="1493" 
d="M1017 118q-120 0 -237 110.5t-117 207.5q0 25 7 45q-59 -16 -125 -127t-86 -222l-68 51q73 177 179 269t217 92q-35 66 -126 116t-239 49q17 42 48 63q343 -71 398 -354q74 60 121 145t47 182v19q-2 13 -2 19q46 -36 59 -53q-28 -190 -147 -290t-237 -101
q76 -79 124 -106q101 -58 254 -58l-40 -55q-20 -2 -30 -2zM1124 241q-117 0 -185 12t-152 58q126 35 218 111t143 162q51 85 63 148q-19 36 -117.5 97t-149.5 68q0 -361 -59 -383q-39 154 -187 260q-98 71 -235 114q-46 -34 -99 -120t-65 -136q77 11 153 11t149 -20
q74 -25 106 -35q-209 -68 -350 -270q-50 -71 -81 -144q44 -68 246 -170q0 133 16 204t69 179q73 -141 102 -177q78 -96 182 -154t145 -54q54 0 177 239h-89zM558 94q0 -83 15 -175q-128 14 -307 176l-58 56q28 53 66 127q99 191 352 311q-72 28 -185 28t-251 -35
q26 114 62 184t142 185q48 -13 115 -33t150 -68t134 -110t67 -96q16 -35 26 -58q29 65 29 175t-23 227q88 -12 194 -62t166 -133q0 -39 -8 -65t-44 -102q-71 -154 -220 -250q-31 -20 -108 -59q82 -40 199 -40t220 45q5 -29 -35.5 -119.5t-93.5 -168.5q-54 -78 -80 -76
q-45 3 -83 16q-123 36 -195 92t-121 133q-1 1 -78 140q-47 -84 -47 -245zM1454 455v14q0 30 -5 60q-94 -94 -247 -149t-230 -55q-7 1 -10 1l90 68q82 41 107 56q203 128 203 341q-116 253 -440 324q-118 26 -252 26q81 -87 115 -131q83 -107 83 -306q-35 44 -70 89
q-35 102 -160.5 189t-233.5 87q-110 -51 -194 -165t-129.5 -242.5t-45.5 -221.5q0 -12 2 -32q69 84 191 133t224 49q30 0 49 -4q-34 -33 -149 -75q-53 -20 -111.5 -77.5t-103.5 -143.5t-45 -126q140 -304 456 -383q92 -23 154 -23t79 3q-33 40 -65 80q-115 162 -115 410
q35 -75 82 -169t122 -155q103 -84 245 -84q68 0 153 75q54 53 78 75q63 63 118 190t55 272zM1506 452q0 -316 -225 -539.5t-541 -223.5t-539 224.5t-223 540.5t227 539q227 222 537 222t537 -223.5t227 -539.5z" />
    <glyph glyph-name="registered" unicode="&#xae;" horiz-adv-x="1368" 
d="M650 529q-56 -1 -83 -35t-27 -88t26 -76q26 -20 74 -20t96 34t49 78q0 44 -39.5 75.5t-95.5 31.5zM30 489q0 70 19 116q17 18 117 30t194.5 25.5t94.5 41.5t-56 96q-4 4 -82 92t-78 105q1 56 93 104t123 48q65 0 93 -147t59 -147q43 0 104 116t103 116t102 -71.5
t60 -99.5t-42 -86t-84 -114t-41 -76q-1 -20 19 -45t48 -25q3 0 123.5 38.5t143.5 38.5q51 0 88 -60.5t37 -134.5t-67 -108q-25 -14 -109 -35t-84 -47q0 -43 126.5 -90.5t126.5 -113.5q1 -66 -63 -128t-97 -63q-74 85 -137 151t-113 67q-14 -1 -28 -19t-14 -24
q27 -91 27 -158q0 -68 -10 -109q-21 -39 -69 -39t-96 19t-68 39q-11 73 -11 133t9 99h-92q-35 -14 -158 -148q-47 -50 -97 -50t-91 72t-41 120q0 30 78 66t152 71q82 44 82 84t-109 69h-225q-60 68 -60 181z" />
    <glyph glyph-name="macron" unicode="&#xaf;" horiz-adv-x="1275" 
d="M1170 403q0 -123 -46 -123q-28 0 -44 30.5t-37 52.5q-193 -172 -262 -269t-96 -177t-62 -118v92l135 276v12q-14 1 -54 -95t-49 -113q-42 -86 -82 -117q0 17 -11 35q122 244 122 282q0 19 -77 41t-173 22t-128 -36q-33 -36 -33 -113q-1 -25 39 -99t80.5 -151.5
t40.5 -108.5q-77 66 -212 339l-13 -47q-44 26 -44 30q0 12 -3 12q-4 -3 -4 -7q0 -33 71 -121q86 -101 173 -203q-19 1 -35 -1t-96 67t-130 138q-49 69 -62 115l-10 72q-4 8 -32.5 23.5t-28.5 46.5t17 58h43v-67l5 -2q48 111 50 113q50 53 217 53l343 -28q101 0 210 58
t109 102q0 8 -34 37t-53 57l-1 55q29 -16 59 -47t34 -31t4 13t-83 123q-5 6 -27 22t-31 27t-16 36t-14 33t-49 32q-42 25 -55.5 38.5t-18.5 50t-16 46.5q-138 153 -138 186q25 -11 51 -22q57 -46 131 -130q8 -8 14 -44t17.5 -48t46.5 -33t48.5 -33.5t20.5 -42.5t16 -41
q26 -21 53 -42q2 -2 44 -57t74 -103h7v5q0 32 -72 116t-82 98t-10 25l6 41q1 21 -35 38q-36 16 -39.5 25t-3.5 22l5 50q0 8 -3 16q-62 132 -58 134q6 9 41 -17t67 -87q3 -6 3 -13l-6 -47q0 -12 4 -22t34 -29q29 -19 34 -29t5 -25l-6 -45q0 -8 4.5 -14.5t60.5 -73.5t92 -139
q26 39 44 59t61 50q-25 -70 -46.5 -122t-21.5 -62q7 -51 7 -110z" />
    <glyph glyph-name="degree" unicode="&#xb0;" horiz-adv-x="2195" 
d="M636 76q20 0 54 -27t33 -77q0 -50 -43 -75q50 0 84 32t34 85q0 102 -133 102q-64 0 -100 -39t-36 -73t18.5 -56t40.5 -22t36 17t14 35t-27 36t-27 30t16 22t36 10zM1912 669q25 0 25 45q0 18 -12.5 36.5t-26.5 18.5t-31.5 -22.5t-17.5 -36.5t19 -27.5t44 -13.5zM1679 396
q1 -31 43 -31q22 0 41 18t26 18t16.5 -8.5t9.5 -14.5q0 -26 -18 -26q-10 0 -20 5q-7 0 -31 -17.5t-24 -27.5t31 -30.5t31 -41.5q0 -34 -31 -34q-36 67 -114 67l-78 -18q-129 1 -173 21q-45 20 -97 112q-19 34 -54 34t-48 7l-24 26q-55 0 -91 16t-150 95t-191 79
q-76 -1 -125 -35t-70 -88q89 -43 115 -59t54 -98q32 81 82 81q19 0 33.5 -11.5t14.5 -28.5t-41.5 -31.5t-53.5 -33.5q14 -2 35 3.5t37 5.5t42 -12q25 -12 25 -28q0 -6 -8.5 -14.5t-15.5 -8.5q-26 17 -51 17q-26 0 -46 -26q20 -24 48.5 -27.5t28.5 -18.5q0 -22 -23 -22
q-7 0 -40 22q-115 44 -162 81q-31 57 -41.5 66t-73.5 17.5t-86.5 19t-34.5 10.5q-128 -86 -128 -161q0 -38 78 -184q50 -79 91 -124q41 -46 54 -46q8 0 8 13q-27 60 -27 108t64 108q64 62 158 62t178 -56t84 -143t-91 -162t-204 -75t-261 104q-38 26 -140 104
q-210 158 -210 371q0 73 32 154.5t82 142.5l130 130q36 52 45 62q47 52 87 52q13 0 64 -21q129 75 245 75t314 -109q53 -29 188 -110q35 48 72 48q39 0 55 -21t20 -27q50 33 76 33q27 0 53.5 -8.5t27.5 -8.5q32 0 93 41.5t76 41.5h159q42 0 66.5 22.5t51.5 22.5t44.5 -38.5
t32.5 -45.5q109 -35 109 -58q0 -99 -117 -143q-30 -10 -175 -40t-185 -49t-79 -39q-45 -14 -72 -14q-28 0 -58 5q-24 -37 -67 -23l-5 -9q0 -72 195 -72q56 0 60 40.5t31 63.5h27v-17q-29 -17 -29 -30z" />
    <glyph glyph-name="plusminus" unicode="&#xb1;" horiz-adv-x="2149" 
d="M2 77h2151v-73h-2151v73zM2 1194h2151v-75h-2151v75zM564 95q-14 1 -20 3q-5 2 -20 -3v44q22 16 49 63l-5 8q-19 -14 -98 -49.5t-95 -35.5q-16 1 -16 17t61 103t63 94q-3 -1 -83 -59t-116 -80q-36 -23 -66 -49t-47 -26l-31 2v30l238 313q0 13 -5 13q-251 -109 -265 -109
q-32 0 -32 17q44 55 110 123q51 60 115 138l-16 15q-179 -85 -192 -85q-12 0 -12 21l35 45q80 103 131 166q-9 13 -15 13l-77 -5q-25 0 -25 19q19 47 23 101t7.5 76.5t24.5 22.5t38 -30t47 -85t67 -106q29 -68 61 -130t59 -117t114 -225q52 -120 120 -225q0 -28 -127 -28z
M874 125q-30 -22 -48 -22l-47 8l-100 199q-36 69 -71 126l-55 117q-17 55 -83 155q-3 4 -16.5 38t-35.5 70t-46 90q-24 52 -27 58q-10 10 -24.5 36.5t-14.5 34.5q0 17 39 17l72 -25l88 -174q11 -26 125 -246q29 -62 132 -259q103 -196 112 -223zM1697 572q0 -38 -114 -38
h-31q-30 0 -49 1h-12q-48 0 -64 52q-11 35 -11 111v43q0 70 18.5 99.5t62.5 29.5l316 6q60 0 60 -327v-180q0 -9 -16 -24t-25 -17l-582 -9q-42 23 -42 103q0 35 3 41q-10 23 -10 51q10 144 10 432q9 106 57 106l735 2q15 0 34.5 -6t25.5 -15t6 -77t-3 -97q2 -8 5.5 -82
t3.5 -95q-8 -64 -8 -148l10 -261q-12 -28 -12 -51q-1 -23 1 -53t-10.5 -40.5t-86.5 -10.5t-154 -7l-23 12l-695 -5h-94q-41 16 -83 88t-141 292q-12 12 -69 126t-99 191q-41 77 -45 87t-26 50q-21 40 -41 78q0 11 19 20.5t35 9.5h77q6 0 18 -9t12 -13l-39 -60h24
q149 60 163 60q15 0 17 -2t7 -16l-139 -194l9 -6l360 216q25 -14 25 -26q-9 -12 -33 -48t-83 -104q-58 -68 -73 -89q-15 -30 -19 -36q-59 -56 -59 -67q0 -10 17 -10q1 0 108.5 50t139.5 57l2 -22q0 -15 -91 -115t-108 -114q9 -5 24 -5t150 28q22 -11 22 -21t-60 -77t-78 -85
v-9q3 -2 9 -2q164 25 183 33q18 -8 18 -15t-120 -160l909 3q22 0 29.5 26.5t7.5 76.5l-4 143q0 156 7 218t7 83t-3.5 57t-5 99.5t-35.5 63.5h-571q-74 0 -74 -20v-540h472l3 374q-35 13 -99 13q-58 -11 -91 -11q-28 5 -44 5q-17 0 -35 -7q1 -10 1 -14l-3 -77q0 -6 1 -14
t2.5 -23t17.5 -26t40 -11t58 7t41 4t18.5 -23t11.5 -34z" />
    <glyph glyph-name="twosuperior" unicode="&#xb2;" horiz-adv-x="3209" 
d="M311 573q-8 -3 -33 -3t-31 18t-6 55q5 5 7 27q22 5 169 5l3 -190h-260v298l385 -16q212 0 721 109q9 -4 18 -4v-10q0 -15 -254 -147q-36 -19 -137 -64t-119 -55q52 -16 147 -29t145 -13h265q-24 -30 -134 -62q-109 -32 -267 -66t-178 -43q91 -40 240.5 -67t299.5 -52
q-124 -39 -329 -68.5t-362 -29.5l-205 -6q-24 0 -160 16t-179 32h-46l2 -106l3060 1l-6 632l-387 -5l2 -260h245l-2 160q-15 -3 -23 -3l-46 4q-17 0 -28 -1l2 -62h21q4 12 4 22t-2 22l19 5q17 0 28 -21t11 -37q0 -47 -38 -47l-40 2h-75l-4 183l259 5l6 -296h-157
q-156 0 -335 1t-456 -57t-287 -60q262 161 571 244q111 30 130 41q-283 32 -548 32q-40 0 -97 -1t-74 -1q49 32 280 80t337.5 51t128.5 25q-264 67 -333 78q-86 14 -312 33v14q221 51 479 90q55 4 129 10t156 11t139 9l439 -18v-946l-3202 2v1047h3204l4 -55h-3130l3 -581
h385l-1 87q-3 144 -11 156l-216 -5q-18 -22 -18 -41v-18l3 -80q86 0 115 -3l3 25q2 26 -4 34t-18 7q-20 0 -20 -18q0 -8 5 -26z" />
    <glyph glyph-name="threesuperior" unicode="&#xb3;" horiz-adv-x="2389" 
d="M1462 662q32 0 55 3l278 277l258 13l256 -222l-320 -10l-590 -430l-175 -144q39 -29 118.5 -114t140.5 -130t133 -45q-26 -12 -36 -26t-17 -40l-592 -33l-62 70l77 12l-240 247l-53 59q0 14 15.5 24.5t15.5 19.5l-101 115q-63 9 -153 9l-382 -15q-24 8 -25 20l202 415
q57 -15 182 -79t161 -80t78 -34l116 94l-382 234q-2 3 -4 8q4 0 4 6l360 14q78 0 136 -8l199 -178q56 0 185 -26q130 -26 162 -26z" />
    <glyph glyph-name="mu" unicode="&#xb5;" horiz-adv-x="1305" 
d="M656 1194q80 -136 98 -190q0 -16 -47 -516t-47 -636h-41q0 168 -26.5 584t-26.5 568q4 22 90 190zM752 -157l-28 17q0 116 24 287t48 335t24 294q20 -40 40 -79q17 -49 53 -151t53 -146q-115 -271 -214 -557zM554 -167q-149 438 -208 571q15 50 76 209t63 165
q0 -125 23 -295.5t47 -344t24 -291.5l-13 -5zM811 -212l-6 4l-18 22l233 485l116 -271q-140 -97 -204 -142t-121 -98zM496 -223q-60 55 -183 141q-122 85 -142 100l119 269l226 -486l-17 -22zM844 -301q-10 19 -14 53l336 156l80 -205zM473 -257q0 -17 -14 -40q-5 0 -168 2
t-232 2l81 203l333 -155v-12z" />
    <glyph glyph-name="paragraph" unicode="&#xb6;" horiz-adv-x="862" 
d="M820 1003h-96v-1103h-210v1103h-42v-1103h-208v684q-115 21 -179 86q-85 86 -85 228t92 230q95 87 263 87h465v-212z" />
    <glyph glyph-name="periodcentered" unicode="&#xb7;" horiz-adv-x="547" 
d="M313 822q144 -223 186 -266q-55 -31 -150 -96t-105 -71t-47 -35q-87 227 -140 313q103 46 256 155z" />
    <glyph glyph-name="periodcentered" unicode="&#x2219;" horiz-adv-x="547" 
d="M313 822q144 -223 186 -266q-55 -31 -150 -96t-105 -71t-47 -35q-87 227 -140 313q103 46 256 155z" />
    <glyph glyph-name="cedilla" unicode="&#xb8;" horiz-adv-x="2061" 
d="M2014 767l21 -341q0 -87 -18 -92q0 147 -33 368q0 -84 -20 -164t-61.5 -201t-57.5 -186q16 -46 16 -110l-16 -215q0 -36 4 -60h-67q20 73 20 134q0 60 -7 105q-24 -114 -57 -252l-57 17q31 90 31 166t-9 132q-9 12 -47 73t-78 98q-12 23 -38 49t-29 32q-49 -42 -107 -88
t-117 -75q-53 0 -105 27l-231 -5q11 -38 11 -94l-15 -202q0 -37 4 -69q-44 -49 -96 -113q-7 1 -17 21t-18 22l17 18q-44 103 -65 207q-12 13 -28 13t-30 13q-37 74 -49 123q-21 33 -77 116t-140 120q-59 -21 -89 -43.5t-53 -65.5q-27 19 -74 24t-67 42q-58 107 -58 150
q-39 37 -60.5 109t-21.5 134t6 105q24 17 31.5 62t27.5 71q73 41 115 41q43 0 85 -14q228 146 355 186q128 39 225 39q78 -7 160 -45t163.5 -74.5t167.5 -47.5q85 -11 229 -31t268 -56q70 -12 109 -68q18 -26 47 -105z" />
    <glyph glyph-name="onesuperior" unicode="&#xb9;" horiz-adv-x="1296" 
d="M431 883q-4 1 -32 1t-44 -19q-47 -41 -84 -107q1 -11 3.5 -14t3.5 -7q37 -37 61 -92q17 -11 37 -11q22 -5 48 -5t51 11q3 5 1 12.5t-14 93.5t-31 137zM365 561h-18q-7 1 -10 1q-19 25 -38 51q-17 17 -34.5 10.5t-19.5 -11.5q22 -126 54.5 -191t115.5 -147
q140 -93 208 -93t112 14q67 41 155 95t113 46q13 -89 29 -186t53 -157q4 -3 12.5 -3t12.5 -1l73 46q31 2 52 -28q0 -41 -53 -77t-100 -37q-6 0 -16 2q-24 13 -40 55t-25 70q-10 28 -18 50l-92 -73q27 -104 27 -139l9 -41q11 -6 22 -6l72 19q8 0 15 -4l16 -16
q-19 -29 -67 -69t-81 -40q-12 1 -28 15t-23 17q-13 23 -23 73t-21 69q-527 81 -684 373q-66 126 -66 260t44 229q66 178 288 197q10 5 32.5 8t31.5 6q11 14 6 18q-26 41 -102 79q-87 37 -173 74l74 19q17 -4 117.5 -59.5t112.5 -72.5q15 0 18 24q-18 24 -77 52t-136 63
l59 12q181 -97 193 -121q17 0 23 9q0 19 -60 51t-127 69l57 13q73 -49 122 -86.5t52 -66.5q4 -2 12 -2t10 9q-8 42 -62 80t-102 71l70 11l74 -74q49 -54 63 -144q-49 -96 -80.5 -99t-46.5 -3h-35t-32 -21q0 -24 11 -83t18 -73l39 -336q-17 -3 -33 -6q-10 33 -21 123t-14 101
q-5 4 -16 4l-31 -4q-23 -18 -73 -18z" />
    <glyph glyph-name="ordmasculine" unicode="&#xba;" horiz-adv-x="1576" 
d="M988 994v-384l-31 28v348zM868 1170h27l4 -501l-31 15v486zM770 1170l4 -488l-32 -15v501zM688 994l1 -340l-31 -33v371zM269 616h385l-28 -32h-353zM74 490v32h517l-9 -32h-508zM1546 487h-486l-15 30h501v-30zM1544 380h-505l15 29h490v-29zM1382 304h-381l28 32h353
v-32zM1373 575h-353l-28 30h381v-30zM262 290l2 30h353l28 -30h-383zM994 -100l-32 5v343l32 28v-376zM689 -103l-28 -2v383l28 -40v-341zM776 -273l-28 2v501l31 -14zM70 408h516l17 -30h-533v30zM872 -265v488l32 15l-3 -503h-29zM1038 448q0 -92 -63 -155
q-63 -64 -153 -64q-90 -1 -154 63t-63 156q0 92 63 154q63 63 154 63q92 -1 154 -63t62 -154z" />
    <glyph glyph-name="guillemotright" unicode="&#xbb;" horiz-adv-x="864" 
d="M633 24q0 14 -13 14t-13 -14t13 -13q13 -1 13 13zM812 94q0 13 -12 13t-12 -13t12 -13t12 13zM549 383q-1 13 -13 13t-12 -13t12 -13t13 13zM797 280q13 0 13 12t-13 12t-13 -12t13 -12zM705 434q13 0 13 13t-13 13t-13 -13t13 -13zM672 104q46 0 47 49q0 32 -54 32
l-44 -1q-3 26 9 114q14 -2 27 -2q49 0 49 28t-31 29q-20 1 -29 -9t-13 -14h-51q20 19 27 32q0 8 -2 28t0 27q25 -4 49 -17t34 -12q10 0 31 4q20 4 59 8q-18 -47 -22 -56t-43 -79q51 -59 61 -71t10 -20q-2 -8 -20 -21q-18 -14 -33 -34q-4 -29 -7 -53t-15 -24q-90 40 -99 46
l-53 -14q-3 15 26 79l27 5q10 -18 22 -36t38 -18zM852 358q0 -70 -37 -98q20 -27 41 -53q18 -34 18 -67q0 -66 -56 -109t-142 -43t-130 29t-58 111q46 10 68 17l-18 -72q0 -15 17 -15t57 12q86 -46 116 -51q16 61 21 98q11 9 21 19t45 33l-74 97l57 148q-7 1 -13 1t-91 -13
l-95 44q-10 -10 -13 -78q-5 -6 -16 -18t-16 -19l-64 3q0 54 59 104t124 50t111 -24q68 -36 68 -106zM213 874q0 13 -13 13t-13 -13t13 -13t13 13zM203 1018q13 0 13 13t-13 13t-13 -13t13 -13zM219 1190q0 12 -12 12t-12 -12t12 -13q12 1 12 13zM139 1183q9 -14 39 -66
q-1 -2 -56 -91l47 -78l-47 -69q23 -53 38 -79l-62 -13h-21l-3 325h-20l-27 91l93 70l54 -15zM164 1184q6 18 37 80h43l-3 -454q-37 -7 -53 -7q-29 53 -46 77q19 19 51 67q-3 6 -47 74q38 57 55 91zM90 162q4 13 4 28l-22 3q-7 -5 -13 -10q3 -11 2 -16zM199 389l17 -11l18 2
l4 20q-9 14 -12 15q-2 1 -14 -11t-13 -15zM387 661l2 16l-24 3l-11 -17l17 -12q13 9 16 10zM498 832q4 -26 3 -47q0 -22 -40 -162q0 -13 -73 -47t-89 -47q0 -59 -23 -179q-26 -16 -71 -34t-53 -24t-10 -48t-3 -96q-31 -23 -57 -38t-27 -16q-44 38 -64 57l519 830
q14 -15 40 -38t38 -34q-90 -35 -92 -39q-2 -12 2 -38zM619 886q32 -22 54 -44l-522 -835q-44 28 -70 58q20 19 46 31t39 27q6 27 6 85l-1 48q3 4 57 31t78 47q3 11 10 84t8 81q28 27 86 56t79 50q40 146 40 237z" />
    <glyph glyph-name="onequarter" unicode="&#xbc;" horiz-adv-x="882" 
d="M830 36q0 13 -12 13t-13 -13q1 -13 13 -13t12 13zM702 250v36q0 15 1 27q-15 -33 -27 -55t-19 -33l46 1q-1 4 -1 24zM827 177q-1 13 -13 13t-12 -13t12 -13t13 13zM821 332q-1 13 -13 13t-12 -13t12 -13t13 13zM796 409q-16 -46 -57 -99l40 -74l-21 -33q-7 -11 -33 -48
l64 -92l-42 -62l-46 -8v102l-187 -2l-9 132l152 257l79 -2q19 -22 34 -39t26 -32zM880 102h-35q-2 -26 -2 -61v-27q-19 -2 -38 -3q-17 -5 -28 -7q17 37 31 59q0 16 -56 94l51 79q-24 33 -42 76q25 28 60 102q-9 9 -25 34t-21 32l70 2v-259l62 1q-27 -102 -27 -122zM182 935
q0 13 -13 13t-13 -13t13 -13t13 13zM172 1079q13 0 13 13t-13 13t-13 -13t13 -13zM188 1250q0 12 -12 13q-12 -1 -12 -13t12 -12t12 12zM108 1244q9 -14 39 -66q-1 -2 -56 -91l47 -78l-47 -69q23 -53 38 -79l-62 -13h-21l-3 325h-20l-27 91l93 70l54 -15zM133 1245
q6 18 37 80h43l-3 -454q-37 -7 -53 -7q-29 53 -46 77q19 19 51 67q-3 6 -47 74q38 57 55 91zM90 162q4 13 4 28l-22 3q-7 -5 -13 -10q3 -11 2 -16zM199 389l17 -11l18 2l4 20q-9 14 -12 15q-2 1 -14 -11t-13 -15zM387 661l2 16l-24 3l-11 -17l17 -12q13 9 16 10zM498 832
q4 -26 3 -47q0 -22 -40 -162q0 -13 -73 -47t-89 -47q0 -59 -23 -179q-26 -16 -71 -34t-53 -24t-10 -48t-3 -96q-31 -23 -57 -38t-27 -16q-44 38 -64 57l519 830q14 -15 40 -38t38 -34q-90 -35 -92 -39q-2 -12 2 -38zM619 886q32 -22 54 -44l-522 -835q-44 28 -70 58
q20 19 46 31t39 27q6 27 6 85l-1 48q3 4 57 31t78 47q3 11 10 84t8 81q28 27 86 56t79 50q40 146 40 237z" />
    <glyph glyph-name="onehalf" unicode="&#xbd;" horiz-adv-x="927" 
d="M850 112q13 0 13 13t-13 13t-13 -13t13 -13zM850 217q0 13 -13 13t-13 -13t13 -13t13 13zM711 464q-1 14 -13 13q-12 1 -12 -13t12 -14t13 14zM865 377q13 -1 13 13t-13 14t-13 -14t13 -13zM642 326l-16 65q22 7 88 10q61 43 90 43l-16 -85q36 -29 71 -53l-92 -66l-2 -71
q-35 -21 -78 -47t-43 -39t13 -15l118 28l72 -29l50 34q20 0 30 -6q-11 -30 -11 -74q-9 -2 -74 1q-175 0 -293 -34q-1 22 1 57t-4 46q20 13 40 25t64 58l70 69q39 44 39 67t-10 35t-23 12q-33 0 -33 -28q-15 -3 -51 -3zM762 505q72 0 118 -44t47 -102q0 -59 -36 -123t-40 -73
q17 2 36 2h65q0 -2 -18 -47l-37 4l-55 -32q-34 24 -52 24q-70 -12 -90 -18l-3 5q-1 9 43 33t48 27q-4 28 -4 75q20 16 50 38t47 33q-36 29 -71 59q10 53 10 94q-8 1 -24 1t-44 -15t-52 -28q-48 -8 -92 -8l12 -82q-11 -4 -36 -11t-43 -14q0 69 42 124q59 78 179 78zM185 852
q0 13 -13 13t-13 -13t13 -13t13 13zM175 996q13 0 13 13t-13 13t-13 -13t13 -13zM191 1168q0 12 -12 12t-12 -12t12 -13q12 1 12 13zM111 1161q9 -14 39 -66q-1 -2 -56 -91l47 -78l-47 -69q23 -53 38 -79l-62 -13h-21l-3 325h-20l-27 91l93 70l54 -15zM136 1162q6 18 37 80
h43l-3 -454q-37 -7 -53 -7q-29 53 -46 77q19 19 51 67q-3 6 -47 74q38 57 55 91zM90 162q4 13 4 28l-22 3q-7 -5 -13 -10q3 -11 2 -16zM199 389l17 -11l18 2l4 20q-9 14 -12 15q-2 1 -14 -11t-13 -15zM387 661l2 16l-24 3l-11 -17l17 -12q13 9 16 10zM498 832q4 -26 3 -47
q0 -22 -40 -162q0 -13 -73 -47t-89 -47q0 -59 -23 -179q-26 -16 -71 -34t-53 -24t-10 -48t-3 -96q-31 -23 -57 -38t-27 -16q-44 38 -64 57l519 830q14 -15 40 -38t38 -34q-90 -35 -92 -39q-2 -12 2 -38zM619 886q32 -22 54 -44l-522 -835q-44 28 -70 58q20 19 46 31t39 27
q6 27 6 85l-1 48q3 4 57 31t78 47q3 11 10 84t8 81q28 27 86 56t79 50q40 146 40 237z" />
    <glyph glyph-name="threequarters" unicode="&#xbe;" horiz-adv-x="990" 
d="M148 796q0 14 -13 14t-13 -14t13 -13q13 -1 13 13zM327 866q0 13 -12 13t-12 -13t12 -13t12 13zM64 1155q0 13 -12 13t-13 -13q1 -13 13 -13t12 13zM312 1052q13 0 13 12t-13 12t-13 -12t13 -12zM220 1206q13 0 13 13t-13 13t-13 -13t13 -13zM188 876q46 0 46 49
q0 32 -54 32l-44 -1q-3 26 9 114q14 -2 27 -2q49 0 49 28t-31 29q-20 1 -29 -9t-13 -14h-51q20 19 27 32q0 8 -2 28t0 27q26 -4 50 -17t34 -12q10 0 30 4t59 8q-18 -47 -22 -56t-43 -79q52 -59 62 -71t8 -20t-19 -21q-18 -14 -33 -34q-4 -29 -7 -53t-15 -24q-90 40 -99 46
l-53 -14q-3 15 26 79l27 5q11 -18 23 -36t38 -18zM367 1130q0 -70 -37 -98q20 -27 41 -53q18 -34 18 -67q1 -66 -55 -109t-142 -43t-132 29q-44 29 -57 111q46 10 68 17l-18 -72q0 -15 17 -15t57 12q86 -46 116 -51q16 61 21 98q12 9 22 19t44 33l-74 97l57 148q-7 1 -13 1
t-91 -13l-95 44q-10 -10 -13 -78q-5 -6 -16 -18t-16 -19l-64 3q0 54 59 104t124 50t111 -24q68 -36 68 -106zM937 39q-1 13 -13 13t-12 -13t12 -13t13 13zM809 254v35q0 15 1 27q-16 -33 -28 -55l-18 -33l46 1q-1 5 -1 25zM934 180q0 13 -12 13t-13 -13q1 -13 13 -13t12 13z
M928 335q0 13 -12 13t-13 -13q1 -13 13 -13t12 13zM903 412q-16 -46 -57 -99l40 -74l-21 -33q-7 -11 -33 -48l64 -92l-42 -62l-46 -8v102l-187 -2l-9 132l152 257l79 -2q19 -22 34 -39t26 -32zM987 105h-35q-2 -26 -2 -61v-27q-19 -2 -38 -3q-17 -5 -28 -7q17 37 31 59
q0 16 -56 94l51 79q-24 33 -42 76q25 28 60 102q-8 9 -24 34t-22 32l70 2v-259l62 1q-27 -102 -27 -122zM208 162q6 21 6 28l-24 3q-6 -5 -11 -10q3 -11 2 -16zM319 389l17 -11l18 2l1 20q-5 14 -10 15q-5 -1 -15 -11t-11 -15zM505 661l3 16l-23 3q-7 -12 -13 -17l17 -12z
M174 94q-9 10 -65 57l521 830q16 -18 42 -41t35 -31q-90 -36 -91 -39q-2 -12 2 -38t3 -53q0 -28 -41 -156q0 -13 -73 -47t-89 -47q0 -77 -22 -179q-26 -16 -72 -34t-52 -24q-7 -6 -9 -62t-7 -82q-29 -23 -82 -54zM290 214v42q4 4 58 31t76 47q5 16 12 86t9 79q28 27 85 56
t77 50q42 141 42 237q57 26 88 44q21 -9 56 -44l-522 -835q-44 28 -70 58q19 19 45 31t39 27q5 30 5 91z" />
    <glyph glyph-name="questiondown" unicode="&#xbf;" horiz-adv-x="972" 
d="M208 348q0 32 -32 33q-32 -1 -31 -33q-1 -32 31 -32t32 32zM626 216q0 32 -30 32t-30 -32t30 -32t30 32zM304 696q29 0 29 34t-29 33q-34 1 -34 -33t34 -34zM455 1143q1 32 -31 32t-32 -32t32 -32t31 32zM31 465q0 303 357 342q-11 -42 -20 -116q-62 -37 -142 -93
t-102 -68q73 -65 198 -153q6 -33 9.5 -79t7.5 -89q28 5 117 36t126 47q148 -11 184 -11q9 70 9 185q94 6 144 16q0 -43 -26 -103q-101 -234 -426 -234q-177 0 -295 73q-141 87 -141 247zM395 482q0 -33 27.5 -62.5t61.5 -29.5t49.5 9t33.5 46q76 0 166 13l-2 -123l-158 2
q-32 -17 -205 -87l-29 162q-38 28 -157 110q34 24 106 69t123 77q6 19 16.5 59.5t21.5 80.5q42 8 115 26t134 33v-46q-46 -99 -127 -161q-61 -40 -121 -80q-55 -41 -55 -98zM314 1122q0 67 28 120q40 75 124 84l117 -199q-57 -63 -92 -96t-88 -62q-89 36 -89 153zM547 1341
q65 1 125 -59t61 -150q-1 -90 -69 -141q-68 -52 -153 -52l-45 15q179 133 179 162q-103 171 -120 223q14 2 22 2z" />
    <glyph glyph-name="Agrave" unicode="&#xc0;" horiz-adv-x="2239" 
d="M1196 486q-4 61 -70 219t-150 317.5t-121 186.5zM631 887q0 273 147 341q35 16 76 16q147 0 297.5 -188.5t210.5 -452.5q303 110 530 110q158 0 246 -52t89 -144q0 -91 -98.5 -204.5t-246.5 -188.5q-288 -150 -669 -276q-216 -72 -344 -84t-216 -12q-262 0 -423 61
q-193 73 -193 219q0 222 384 390q113 50 233 83q-23 268 -23 382z" />
    <glyph glyph-name="Aacute" unicode="&#xc1;" horiz-adv-x="1163" 
d="M43 966q0 86 0.5 133.5t8.5 113t62 98.5t122 33q142 0 221 -68q4 -8 23 -44q20 -36 32 -36t63 58q47 14 104 14q110 0 186 -58t76 -127q0 -18 -6 -36q-30 -39 -138 -282q-109 -244 -116.5 -256.5t-7.5 -17.5l17 -25q0 -13 -12 -28q-12 -14 -12 -34t39 -88t72 -133
q63 -126 200 -126q24 0 45 3q62 0 62 -46q0 -9 -9 -50q8 0 14.5 -23t9.5 -27q-87 -63 -275 -63q-189 0 -260 47q-20 13 -60 52t-69 44q-36 1 -55 3l15 -144q-158 10 -225 10q-28 62 -66 140t-26 84q-10 7 -24 79t-14 94t16 57t17 58l-8 48l8 119q1 18 -5 42t-15.5 160
t-9.5 222z" />
    <glyph glyph-name="agrave" unicode="&#xe0;" horiz-adv-x="1110" 
d="M616 368v45q0 79 -17 105t-74 26t-88 -38t-31 -85q0 -48 35 -81t81 -33q46 1 70 11t24 50zM68 188q-64 104 -64 259q0 154 93 273q112 132 332 132q123 0 164 -30q3 4 14 38q12 0 86 4t144 3l-109 -235l78 -153q-46 -102 -88 -172q61 -87 125 -155q-15 -32 -35 -76
t-28 -52q-8 -10 -42 -19q-33 -9 -59 -24q-13 19 -19 27t-16 8q-215 -35 -275 -35q-59 -1 -148 51t-153 156zM860 479q-24 30 -84 153q20 41 51 107t65 136l123 7l1 -560q0 -100 20 -258q-87 -11 -136 -21t-66 -13q21 40 55 122q-41 41 -127 149zM275 1194q0 -6 15 -13
q16 -1 24 17t-13 22q-7 4 -15 0t-10 -12t-1 -14zM540 1074q8 22 -11 24t-25 -13q-2 -20 16 -25t20 14zM620 1036q0 -62 -25 -62q-8 0 -10 -1l-389 232l15 65l49 2q26 0 53 -6q25 -16 43 -36t82 -99q82 10 107 15q53 -36 66 -48q9 -35 9 -62zM240 1307h-18l42 160
q120 -76 339 -250q9 -21 9 -76q-18 3 -34 18t-24 21l-79 -8q-16 0 -43 8q-31 45 -46 63t-53 53q-42 11 -93 11z" />
    <glyph glyph-name="aacute" unicode="&#xe1;" horiz-adv-x="1110" 
d="M621 378v45q0 79 -17 105t-74 26t-88 -38t-31 -85q0 -48 35 -81t81 -33q46 1 70 11t24 50zM73 198q-64 104 -64 259q0 154 93 273q112 132 332 132q123 0 164 -30q3 4 14 38q12 0 86 4t144 3l-109 -235l78 -153q-46 -102 -88 -172q61 -87 125 -155q-16 -32 -36 -76
t-28 -52q-8 -10 -41 -19t-59 -24q-12 19 -18 27t-17 8q-215 -35 -275 -35q-59 -1 -148 51t-153 156zM865 489q-24 30 -84 153q20 41 51 107t65 136l123 7l1 -560q0 -100 20 -258q-87 -11 -136 -21t-66 -13q21 40 55 122q-41 41 -127 149zM488 987q19 0 19 20q0 9 -8 15
t-15 6t-12 -9t-5 -15t8 -14q8 -3 13 -3zM682 1159q7 0 13 7t6 15t-12 13q-7 7 -13 7t-11 -8q-5 -7 -5 -15t8 -14t14 -5zM717 1270q25 -12 55 -35q-17 -62 -37 -96q-39 -27 -169 -70l-26 -105q-24 -18 -36 -28t-31 -18q-57 5 -102 35q-9 8 -9 16l3 17zM938 1117
q-144 -114 -350 -232q-9 -1 -32 5t-44 11q12 17 26 25t33 18q10 46 14 66t25 48q63 16 82 22t64 31q22 37 48 102z" />
    <glyph glyph-name="acircumflex" unicode="&#xe2;" horiz-adv-x="1090" 
d="M621 378v45q0 79 -17 105t-74 26t-88 -37.5t-31 -85.5t35 -81t81 -33q46 1 70 11t24 50zM73 198q-64 104 -64 259q0 154 93 273q112 132 332 132q123 0 164 -30q3 4 14 38q12 0 86 3.5t144 3.5l-109 -235l78 -153q-46 -102 -88 -172q61 -87 125 -155q-16 -32 -36 -76
t-28 -53t-41 -18t-59 -24q-12 19 -18 27t-17 8q-215 -35 -275 -35q-59 -1 -148 51t-153 156zM865 489q-24 30 -84 153q20 41 51 107t65 136l123 7l1 -560q0 -100 20 -258q-87 -11 -136 -21t-66 -13q21 40 55 122q-41 41 -127 149zM684 929h-149l-100 91l-83 -141l-192 50
l275 265z" />
    <glyph glyph-name="atilde" unicode="&#xe3;" horiz-adv-x="1080" 
d="M621 378v45q0 79 -17 105t-74 26t-88 -38t-31 -85q0 -48 35 -81t81 -33q46 1 70 11t24 50zM73 198q-64 104 -64 259q0 154 93 273q112 132 332 132q123 0 164 -30q3 4 14 38q12 0 86 4t144 3l-109 -235l78 -153q-46 -102 -88 -172q61 -87 125 -155q-16 -32 -36 -76
t-28 -52q-8 -10 -41 -19t-59 -24q-12 19 -18 27t-17 8q-215 -35 -275 -35q-59 -1 -148 51t-153 156zM865 489q-24 30 -84 153q20 41 51 107t65 136l123 7l1 -560q0 -100 20 -258q-87 -11 -136 -21t-66 -13q21 40 55 122q-41 41 -127 149zM265 1119q1 26 -27 26t-28 -26
t28 -26t27 26zM651 1158q1 27 -27 27t-28 -27t28 -27t27 27zM646 1036q12 0 68 44t73 44q24 0 34 -33q7 -29 14 -57v-68q-6 1 -12 1h-9l-56 -3q-45 0 -134 24t-119 24q-81 0 -310 -135q-21 32 -51 122h134q30 17 82 55t73 52q200 -70 213 -70zM632 1099q-43 0 -219 58
q-2 0 -96 -78q-46 -38 -94 -38l-58 -3q-18 0 -30 3q-28 50 -35 69q0 32 110 86t214 54l183 -31l174 9q15 0 24 -67q-66 0 -98 -31t-75 -31z" />
    <glyph glyph-name="adieresis" unicode="&#xe4;" horiz-adv-x="1110" 
d="M621 378v45q0 79 -17 105t-74 26t-88 -38t-31 -85q0 -48 35 -81t81 -33q46 1 70 11t24 50zM73 198q-64 104 -64 259q0 154 93 273q112 132 332 132q123 0 164 -30q3 4 14 38q12 0 86 4t144 3l-109 -235l78 -153q-46 -102 -88 -172q61 -87 125 -155q-16 -32 -36 -76
t-28 -52q-8 -10 -41 -19t-59 -24q-12 19 -18 27t-17 8q-215 -35 -275 -35q-59 -1 -148 51t-153 156zM865 489q-24 30 -84 153q20 41 51 107t65 136l123 7l1 -560q0 -100 20 -258q-87 -11 -136 -21t-66 -13q21 40 55 122q-41 41 -127 149zM302 1034q-9 4 -19 4q-8 -6 -18 -28
q7 0 13 -7l24 10v21zM663 1010q-6 7 -7 11l-18 6l-2 -23q6 0 11 -5zM229 1029q1 15 9 39t13 40l99 -81q-27 -58 -67 -111q-54 54 -54 113zM290 1136q25 46 126 46q42 0 84 -37t42 -102t-45 -111t-114 -46q-29 0 -61 8q67 119 67 129t-19 31t-80 82zM612 1030q0 24 11 61
q13 -5 45 -40t32 -43t-14 -30t-30 -49q-44 35 -44 101zM909 1040q0 -52 -48 -102q-48 -52 -106 -52q-10 -1 -20 -1t-46 19q5 14 29 56t24 52t-38 58q-38 46 -39 57q0 11 21 27t85 16t101 -39t37 -91z" />
    <glyph glyph-name="aring" unicode="&#xe5;" horiz-adv-x="1100" 
d="M621 378v45q0 79 -17 105t-74 26t-88 -37.5t-31 -85.5t35 -81t81 -33q46 1 70 11t24 50zM73 198q-64 104 -64 259q0 154 93 273q104 123 305 131q-46 23 -46 82q0 60 30.5 89.5t80.5 29.5t77.5 -29t27.5 -75q0 -80 -64 -101q63 -9 85 -25q3 4 14 38q12 0 86 3.5t144 3.5
l-109 -235l78 -153q-46 -102 -88 -172q61 -87 125 -155q-16 -32 -36 -76t-28 -53t-41 -18t-59 -24q-12 19 -18 27t-17 8q-215 -35 -275 -35q-59 -1 -148 51t-153 156zM865 489q-24 30 -84 153q20 41 51 107t65 136l123 7l1 -560q0 -100 20 -258q-87 -11 -136 -21t-66 -13
q21 40 55 122q-41 41 -127 149zM482 914q25 0 25 40t-35 40q-15 0 -26 -14t-11 -26t11 -26t36 -14z" />
    <glyph glyph-name="ccedilla" unicode="&#xe7;" horiz-adv-x="763" 
d="M157 286q1 30 -29 30t-30 -30t30 -31q30 1 29 31zM420 67q0 33 -30 33t-31 -33q1 -27 31 -27t30 27zM290 653q0 32 -30 32t-30 -32q0 -27 30 -27t30 27zM638 -239q0 -89 -126 -103l-74 53l93 60l-19 75h-127l98 107l106 -26l-10 -56q59 -50 59 -110zM462.5 -21
q-95.5 0 -196.5 41q-100 41 -172 139t-72 257q9 57 19 114q38 131 127 212q125 114 337 114q113 0 156 -26q-23 -64 -31 -136h-39q-95 52 -143 67q-54 -93 -129 -176q-83 -14 -192 -70q92 -145 124 -215q-1 -23 -7 -98t-6 -94l166 55q95 -73 127 -85q23 10 50 26.5t61 30.5
l27 -104q-31 -26 -71 -39t-135.5 -13zM535 117l-113 90q-16 -4 -127 -40q-8 19 -8 34l8 76q-16 58 -37.5 101t-69.5 109q84 34 166 54q22 36 70 99t51 68q146 -77 146 -82l-20 -80q-25 5 -44 5q-71 0 -124 -44t-53 -102t46 -87t99 -29q52 0 74 14q9 -32 31 -124
q-37 -30 -95 -62z" />
    <glyph glyph-name="egrave" unicode="&#xe8;" horiz-adv-x="1170" 
d="M192 166q0 34 -32 33q-32 1 -31 -33q-1 -34 31 -34t32 34zM494 -56q0 32 -32 32t-31 -32q-1 -32 31 -32t32 32zM174 512q0 33 -32 33t-33 -33q0 -27 33 -27q16 -1 24 5t8 22zM665 501v44q-11 23 -38 47t-63 24t-73 -30q-36 -30 -36 -85h210zM437 744q31 0 31 34t-31 33
q-31 1 -31 -33t31 -34zM865 663q32 -1 32 31t-32 32t-32 -32t32 -31zM355 105l-33 -2q-4 21 -6 63t-3 54q-36 49 -52 68t-73 62q34 20 84 64t50 58q-37 123 -37 145q0 30 71 30l107 -5q103 0 141 50t39 52q18 -17 37 -33q32 -65 64 -129q118 -88 144 -108t26 -31
q-137 -158 -188 -158h-206q0 -30 58 -69q64 -33 129 -65q-3 -14 -33 -58t-57 -84l-162 91zM450 685l-62 -2h-37q-15 1 -44 1q-73 1 -73 -41q0 -26 15 -65t15 -74q0 -36 -53 -80t-102 -83q43 -28 83 -66t73 -69l-9 -171q38 0 94 9t81 9q3 -3 62 -40t93 -64q-21 -37 -59 -79
q-83 0 -197 52t-202 161q-88 110 -88 274q0 245 142 383t368 137q397 0 507 -307l40 -148q5 -45 5 -137q-2 -2 -87 -2t-162 2l-9 14q0 5 58 65t84 81v16q-68 53 -128 95t-75 63q-50 71 -86 131t-52 61l-102 -104q-31 -22 -79 -22h-14zM411 1132q0 13 -13 15q-8 4 -18 -1
t-9 -18q0 -13 16 -20q24 0 24 24zM638 1002q7 20 -12 22t-25 -12q-3 -21 15 -25t22 15zM718 965q0 -24 -6 -51q-5 -11 -14 -12t-16 -2l-389 232l15 65l48 2q26 0 53 -6q29 -17 47 -39t79 -96q78 9 107 16q50 -34 65 -49q11 -36 11 -60zM651 1106q-56 -7 -76 -7t-46 7
q-43 65 -100 116q-43 12 -110 12l42 160q101 -64 201 -143q101 -80 138 -108q9 -20 9 -76q-18 5 -30 15z" />
    <glyph glyph-name="eacute" unicode="&#xe9;" horiz-adv-x="1170" 
d="M192 166q0 34 -32 33q-32 1 -31 -33q-1 -34 31 -34t32 34zM494 -56q0 32 -32 32t-31 -32q-1 -32 31 -32t32 32zM174 512q0 33 -32 33t-33 -33q0 -27 33 -27q16 -1 24 5t8 22zM665 501v44q-11 23 -38 47t-63 24t-73 -30q-36 -30 -36 -85h210zM437 744q31 0 31 34t-31 33
q-31 1 -31 -33t31 -34zM865 663q32 -1 32 31t-32 32t-32 -32t32 -31zM355 105l-33 -2q-4 21 -6 63t-3 54q-36 49 -52 68t-73 62q34 20 84 64t50 58q-37 123 -37 145q0 30 71 30l107 -5q103 0 141 50t39 52q18 -17 37 -33q32 -65 64 -129q118 -88 144 -108t26 -31
q-137 -158 -188 -158h-206q0 -30 58 -69q64 -33 129 -65q-3 -14 -33 -58t-57 -84l-162 91zM450 685l-62 -2h-37q-15 1 -44 1q-73 1 -73 -41q0 -26 15 -65t15 -74q0 -36 -53 -80t-102 -83q43 -28 83 -66t73 -69l-9 -171q38 0 94 9t81 9q3 -3 62 -40t93 -64q-21 -37 -59 -79
q-83 0 -197 52t-202 161q-88 110 -88 274q0 245 142 383t368 137q397 0 507 -307l40 -148q5 -45 5 -137q-2 -2 -87 -2t-162 2l-9 14q0 5 58 65t84 81v16q-68 53 -128 95t-75 63q-50 71 -86 131t-52 61l-102 -104q-31 -22 -79 -22h-14zM588 1041q19 0 19 20q0 9 -8 16
q-10 5 -15 5q-17 0 -17 -23q0 -7 7 -13t14 -5zM760 1233q0 -20 22 -20q8 0 13 7q6 7 6 15t-12 13q-7 7 -13 7t-11 -8t-5 -14zM872 1289q-16 -59 -37 -96q-38 -26 -170 -70l-25 -105q-24 -18 -36 -28t-31 -18q-60 6 -103 35q-9 8 -6 33l352 284q21 -11 56 -35zM1038 1171
q-144 -114 -350 -232q-9 -1 -32 5t-44 11q11 17 26 25t32 18q10 46 14 66t25 48q63 16 83 22t63 31q17 28 49 102z" />
    <glyph glyph-name="ecircumflex" unicode="&#xea;" horiz-adv-x="1160" 
d="M192 166q0 34 -32 33q-32 1 -31 -33q-1 -34 31 -34t32 34zM494 -56q0 32 -32 32t-31 -32q-1 -32 31 -32t32 32zM174 512q0 33 -32 33t-33 -33q0 -27 33 -27q16 -1 24 5t8 22zM665 501v44q-11 23 -38 47t-63 24t-73 -30q-36 -30 -36 -85h210zM437 744q31 0 31 34t-31 33
q-31 1 -31 -33t31 -34zM865 663q32 -1 32 31t-32 32t-32 -32t32 -31zM355 105l-33 -2q-4 21 -6 63t-3 54q-36 49 -52 68t-73 62q34 20 84 64t50 58q-37 123 -37 145q0 30 71 30l107 -5q103 0 141 50t39 52q18 -17 37 -33q32 -65 64 -129q118 -88 144 -108t26 -31
q-137 -158 -188 -158h-206q0 -30 58 -69q64 -33 129 -65q-3 -14 -33 -58t-57 -84l-162 91zM450 685l-62 -2h-37q-15 1 -44 1q-73 1 -73 -41q0 -26 15 -65t15 -74q0 -36 -53 -80t-102 -83q43 -28 83 -66t73 -69l-9 -171q38 0 94 9t81 9q3 -3 62 -40t93 -64q-21 -37 -59 -79
q-83 0 -197 52t-202 161q-88 110 -88 274q0 245 142 383t368 137q397 0 507 -307l40 -148q5 -45 5 -137q-2 -2 -87 -2t-162 2l-9 14q0 5 58 65t84 81v16q-68 53 -128 95t-75 63q-50 71 -86 131t-52 61l-102 -104q-31 -22 -79 -22h-14zM680 983h-149l-100 91l-83 -141
l-191 50l274 265z" />
    <glyph glyph-name="edieresis" unicode="&#xeb;" horiz-adv-x="1150" 
d="M192 166q0 34 -32 33q-32 1 -31 -33q-1 -34 31 -34t32 34zM494 -56q0 32 -32 32t-31 -32q-1 -32 31 -32t32 32zM174 512q0 33 -32 33t-33 -33q0 -27 33 -27q16 -1 24 5t8 22zM665 501v44q-11 23 -38 47t-63 24t-73 -30q-36 -30 -36 -85h210zM437 744q31 0 31 34t-31 33
q-31 1 -31 -33t31 -34zM865 663q32 -1 32 31t-32 32t-32 -32t32 -31zM355 105l-33 -2q-4 21 -6 63t-3 54q-36 49 -52 68t-73 62q34 20 84 64t50 58q-37 123 -37 145q0 30 71 30l107 -5q103 0 141 50t39 52q18 -17 37 -33q32 -65 64 -129q118 -88 144 -108t26 -31
q-137 -158 -188 -158h-206q0 -30 58 -69q64 -33 129 -65q-3 -14 -33 -58t-57 -84l-162 91zM450 685l-62 -2h-37q-15 1 -44 1q-73 1 -73 -41q0 -26 15 -65t15 -74q0 -36 -53 -80t-102 -83q43 -28 83 -66t73 -69l-9 -171q38 0 94 9t81 9q3 -3 62 -40t93 -64q-21 -37 -59 -79
q-83 0 -197 52t-202 161q-88 110 -88 274q0 245 142 383t368 137q397 0 507 -307l40 -148q5 -45 5 -137q-2 -2 -87 -2t-162 2l-9 14q0 5 58 65t84 81v16q-68 53 -128 95t-75 63q-50 71 -86 131t-52 61l-102 -104q-31 -22 -79 -22h-14zM278 1052q0 15 -16 15t-15 -15
q-1 -15 15 -15t16 15zM614 1052q0 15 -17 15t-17 -15t17 -15t17 15zM221 1066q-1 9 7 34t14 25q6 -1 42 -33t35 -39q0 -7 -46 -85q-52 30 -52 98zM356 1180q60 0 88 -31q29 -31 29 -82q1 -51 -37 -89t-90 -39q-52 0 -51 20q43 65 55 98q-67 73 -83 94q29 29 89 29zM561 1056
q0 38 14 74q60 -54 74 -68q-14 -25 -44 -88q-44 44 -44 82zM596 1150q0 6 30 24t70 18q41 0 78 -34t37 -87t-33 -90t-90 -37h-20q-16 0 -22 4t-23 19q29 54 50 107q-17 20 -47 45t-30 31z" />
    <glyph glyph-name="igrave" unicode="&#xec;" horiz-adv-x="527" 
d="M169 252q0 30 -31 30t-31 -30t31 -29q31 -1 31 29zM158 566q0 30 -30 30t-30 -30t30 -30t30 30zM85 1069q17 0 23 16t-13 19q-7 4 -14 0t-7 -11q-9 -13 11 -24zM290 962q16 -5 22 13q6 19 -13 21q-18 2 -23 -11q-2 -18 14 -23zM236 264q0 -10 -53 -84t-53 -82t34 -57
t46 -78q-108 -40 -155 -40v763l87 21q50 -57 64 -74t21 -49l-76 -232q5 -6 45 -42t40 -46zM292 274q0 12 -39 42t-39 45q0 1 36.5 113.5t36.5 130.5l-85 118q72 0 202 23l4 -739q-81 -14 -152 -31q-45 74 -72 103q0 4 54 93.5t54 101.5zM383 936q0 -53 -22 -53h-11l-348 208
q8 48 12 59l46 2q20 0 47 -5q38 -28 111 -122l97 13q15 -11 30 -21t29 -22q9 -45 9 -59zM322 1069l-70 -8q-15 0 -38 8q-32 45 -40 55q-15 17 -51 49q-39 10 -99 10l39 144q64 -41 304 -225q5 -12 9 -68q-18 3 -28 12t-26 23z" />
    <glyph glyph-name="iacute" unicode="&#xed;" horiz-adv-x="746" 
d="M169 252q0 30 -31 30t-31 -30t31 -29q31 -1 31 29zM158 566q0 30 -30 30t-30 -30t30 -30t30 30zM169 1021q0 -18 20 -18q8 0 17 9q3 9 3 15t-8 12q-10 5 -16 5t-11 -8t-5 -15zM383 1176q7 0 13 7t6 15t-11 13q-6 7 -12 7t-12 -8t-6 -16t10 -12q5 -6 12 -6zM236 264
q0 -10 -53 -84t-53 -82t34 -57t46 -78q-108 -40 -155 -40v763l87 21q50 -57 64 -74t21 -49l-76 -232q5 -6 45 -42t40 -46zM292 274q0 12 -39 42t-39 45q0 1 36.5 113.5t36.5 130.5l-85 118q72 0 202 23l4 -739q-81 -14 -152 -31q-45 74 -72 103q0 4 54 93.5t54 101.5z
M473 1252q-16 -60 -37 -96q-26 -19 -76 -37l-93 -34l-26 -104q-17 -13 -32 -24.5t-34 -22.5q-58 5 -103 35q-10 9 -5 34l351 284zM640 1134q-138 -108 -350 -233q-10 -1 -30 5t-46 12q11 16 25 24t34 18q9 47 13 66.5t25 48.5q56 13 79 21t67 32q20 31 48 101z" />
    <glyph glyph-name="icircumflex" unicode="&#xee;" horiz-adv-x="598" 
d="M169 252q0 30 -31 30t-31 -30t31 -29q31 -1 31 29zM158 566q0 30 -30 30t-30 -30t30 -30t30 30zM236 264q0 -10 -53 -84t-53 -82t34 -57t46 -78q-108 -40 -155 -40v763l87 21q50 -57 64 -74t21 -49l-76 -232q5 -6 45 -42t40 -46zM292 274q0 12 -39 42t-39 45
q0 1 36.5 113.5t36.5 130.5l-85 118q72 0 202 23l4 -739q-81 -14 -152 -31q-45 74 -72 103q0 4 54 93.5t54 101.5zM517 946h-148l-100 90l-83 -141l-191 51l274 265z" />
    <glyph glyph-name="ntilde" unicode="&#xf1;" horiz-adv-x="1020" 
d="M197 162q1 26 -27 26t-28 -26t28 -27q28 1 27 27zM188 508q0 28 -30 28q-23 0 -23 -26q1 -26 27 -25q26 0 26 23zM199 1060q-1 26 -27 25q-26 1 -26 -25t26 -26t27 26zM586 1098q0 26 -28 26t-27 -26q-1 -26 27 -27q28 1 28 27zM260 157q0 -11 -51.5 -68.5t-51.5 -65.5
t15 -38.5t20 -60.5l-109 -31l-2 745q49 0 85 9q53 -27 92 -125q-81 -191 -83 -198q11 -30 48 -93t37 -74zM861 -68q-16 0 -24 7q-43 -1 -117 -17t-86 -22h-63v437q0 31 -26.5 52.5t-52.5 21.5q-72 0 -72 -116v-354q-102 0 -181 -17q-35 85 -35 91q0 7 50 67t66 85l-104 150
q18 27 92 216q0 10 -78 127q72 6 178 33l3 -24q1 -4 79 12t127 16q107 0 192.5 -67.5t85.5 -156.5l6 -536q-24 -5 -40 -5zM721 1066q29 0 40 -50q4 -22 9 -43v-68q-18 2 -24 2l-53 -3q-52 0 -132.5 24.5t-120.5 24.5q-82 0 -310 -135q-21 32 -51 120h135q33 20 155 109
l215 -72q11 0 66.5 45.5t70.5 45.5zM568 1038q-42 0 -220 61q-16 0 -73 -58t-117 -58l-59 -4q-20 0 -29 4q-26 43 -35 67q0 31 111 86t213 55l183 -30q7 -1 26 -1l149 8q15 0 24 -66q-67 0 -99 -32t-74 -32z" />
    <glyph glyph-name="ograve" unicode="&#xf2;" horiz-adv-x="1130" 
d="M688 440q0 64 -32 110t-99 46q-66 0 -105 -44t-39 -106t37 -104q36 -43 100 -43t101 39q37 38 37 102zM447 223q-25 0 -137 -26l18 190q-23 19 -73 47t-88 53q9 18 64 45t114 57q17 105 40 172q106 -81 142 -100q62 26 238 81q2 -10 2 -34q-1 -24 -19 -102t-22 -98
q42 -52 76 -97t35 -75q1 -18 -63 -32t-90 -31q-44 -25 -50 -108q-2 -35 -17 -35q-57 36 -101 64t-69 29zM151 274q30 0 30 25q0 31 -30 31t-30 -31q0 -25 30 -25zM463 81q0 31 -31 31t-31 -31q0 -26 31 -26t31 26zM221 667q26 -1 26 29t-26 30q-33 0 -33 -30t33 -29z
M358 168q60 20 70 20t202 -120q14 29 30 80t28 88q92 44 216 94q-60 96 -128 187q29 145 29 279q-41 -10 -143 -44t-131 -35q-1 1 -55 33t-124 59q-16 -43 -33 -121t-31 -88t-96 -44t-113 -51q30 -22 197 -150q0 -22 -7 -97t-7 -116q36 6 96 26zM839 180q0 28 -29 28
t-29 -28t29 -29q29 1 29 29zM508 818q0 -23 29 -23t29 23q0 32 -28 32q-10 0 -20 -10t-10 -22zM931 572q1 27 -29 27t-30 -27t30 -27t29 27zM21 452q1 198 155 326q154 127 374 127t362 -123q142 -122 142 -346t-169 -348q-149 -109 -386 -109q-199 -1 -339 137t-139 336z
M394 1168q0 13 -12 15q-8 4 -18 -1t-10 -18t17 -20q23 0 23 24zM621 1038q7 20 -12 22t-25 -12q-3 -21 14 -24q20 -5 23 14zM701 999q0 -22 -5 -41q-4 -19 -14 -20t-17 -2l-389 232l16 65l48 2q27 0 52 -6q29 -17 51 -43t74 -92q73 8 108 16q49 -34 66 -49q10 -40 10 -62z
M634 1142q-56 -7 -76 -7t-46 7q-45 66 -99 116q-42 12 -111 12l43 160q129 -82 339 -251q3 -9 9 -76q-20 5 -33 17t-26 22z" />
    <glyph glyph-name="oacute" unicode="&#xf3;" horiz-adv-x="1130" 
d="M688 440q0 64 -32 110t-99 46q-66 0 -105 -44t-39 -106t37 -104q36 -43 100 -43t101 39q37 38 37 102zM447 223q-25 0 -137 -26l18 190q-23 19 -73 47t-88 53q9 18 64 45t114 57q17 105 40 172q106 -81 142 -100q62 26 238 81q2 -10 2 -34q-1 -24 -19 -102t-22 -98
q42 -52 76 -97t35 -75q1 -18 -63 -32t-90 -31q-44 -25 -50 -108q-2 -35 -17 -35q-57 36 -101 64t-69 29zM151 274q30 0 30 25q0 31 -30 31t-30 -31q0 -25 30 -25zM463 81q0 31 -31 31t-31 -31q0 -26 31 -26t31 26zM221 667q26 -1 26 29t-26 30q-33 0 -33 -30t33 -29z
M358 168q60 20 70 20t202 -120q14 29 30 80t28 88q92 44 216 94q-60 96 -128 187q29 145 29 279q-41 -10 -143 -44t-131 -35q-1 1 -55 33t-124 59q-16 -43 -33 -121t-31 -88t-96 -44t-113 -51q30 -22 197 -150q0 -22 -7 -97t-7 -116q36 6 96 26zM839 180q0 28 -29 28
t-29 -28t29 -29q29 1 29 29zM508 818q0 -23 29 -23t29 23q0 32 -28 32q-10 0 -20 -10t-10 -22zM931 572q1 27 -29 27t-30 -27t30 -27t29 27zM21 452q1 198 155 326q154 127 374 127t362 -123q142 -122 142 -346t-169 -348q-149 -109 -386 -109q-199 -1 -339 137t-139 336z
M488 1077q19 0 19 20q0 9 -8 15t-15 6t-12 -9t-5 -15t8 -14q8 -3 13 -3zM682 1249q7 0 13 7t6 15t-12 13q-7 7 -13 7t-11 -8q-5 -7 -5 -15t8 -14t14 -5zM717 1360q25 -12 55 -35q-17 -62 -37 -96q-39 -27 -169 -70l-26 -105q-24 -18 -36 -28t-31 -18q-57 5 -102 35
q-9 8 -9 16l3 17zM938 1207q-144 -114 -350 -232q-9 -1 -32 5t-44 11q12 17 26 25t33 18q10 46 14 66t25 48q63 16 82 22t64 31q22 37 48 102z" />
    <glyph glyph-name="ocircumflex" unicode="&#xf4;" horiz-adv-x="1150" 
d="M688 440q0 64 -32 110t-99 46q-66 0 -105 -44t-39 -106t37 -104q36 -43 100 -43t101 39q37 38 37 102zM447 223q-25 0 -137 -26l18 190q-23 19 -73 47t-88 53q9 18 64 45t114 57q17 105 40 172q106 -81 142 -100q62 26 238 81q2 -10 2 -34q-1 -24 -19 -102t-22 -98
q42 -52 76 -97t35 -75q1 -18 -63 -32t-90 -31q-44 -25 -50 -108q-2 -35 -17 -35q-57 36 -101 64t-69 29zM151 274q30 0 30 25q0 31 -30 31t-30 -31q0 -25 30 -25zM463 81q0 31 -31 31t-31 -31q0 -26 31 -26t31 26zM221 667q26 -1 26 29t-26 30q-33 0 -33 -30t33 -29z
M358 168q60 20 70 20t202 -120q14 29 30 80t28 88q92 44 216 94q-60 96 -128 187q29 145 29 279q-41 -10 -143 -44t-131 -35q-1 1 -55 33t-124 59q-16 -43 -33 -121t-31 -88t-96 -44t-113 -51q30 -22 197 -150q0 -22 -7 -97t-7 -116q36 6 96 26zM839 180q0 28 -29 28
t-29 -28t29 -29q29 1 29 29zM508 818q0 -23 29 -23t29 23q0 32 -28 32q-10 0 -20 -10t-10 -22zM931 572q1 27 -29 27t-30 -27t30 -27t29 27zM21 452q1 198 155 326q154 127 374 127t362 -123q142 -122 142 -346t-169 -348q-149 -109 -386 -109q-199 -1 -339 137t-139 336z
M684 1010h-149l-100 91l-83 -141l-192 50l275 265z" />
    <glyph glyph-name="otilde" unicode="&#xf5;" horiz-adv-x="1120" 
d="M688 440q0 64 -32 110t-99 46q-66 0 -105 -44t-39 -106t37 -104q36 -43 100 -43t101 39q37 38 37 102zM447 223q-25 0 -137 -26l18 190q-23 19 -73 47t-88 53q9 18 64 45t114 57q17 105 40 172q106 -81 142 -100q62 26 238 81q2 -10 2 -34q-1 -24 -19 -102t-22 -98
q42 -52 76 -97t35 -75q1 -18 -63 -32t-90 -31q-44 -25 -50 -108q-2 -35 -17 -35q-57 36 -101 64t-69 29zM151 274q30 0 30 25q0 31 -30 31t-30 -31q0 -25 30 -25zM463 81q0 31 -31 31t-31 -31q0 -26 31 -26t31 26zM221 667q26 -1 26 29t-26 30q-33 0 -33 -30t33 -29z
M358 168q60 20 70 20t202 -120q14 29 30 80t28 88q92 44 216 94q-60 96 -128 187q29 145 29 279q-41 -10 -143 -44t-131 -35q-1 1 -55 33t-124 59q-16 -43 -33 -121t-31 -88t-96 -44t-113 -51q30 -22 197 -150q0 -22 -7 -97t-7 -116q36 6 96 26zM839 180q0 28 -29 28
t-29 -28t29 -29q29 1 29 29zM508 818q0 -23 29 -23t29 23q0 32 -28 32q-10 0 -20 -10t-10 -22zM931 572q1 27 -29 27t-30 -27t30 -27t29 27zM21 452q1 198 155 326q154 127 374 127t362 -123q142 -122 142 -346t-169 -348q-149 -109 -386 -109q-199 -1 -339 137t-139 336z
M328 1155q0 26 -28 26t-27 -26q-1 -26 27 -26t28 26zM714 1194q0 27 -28 27t-27 -27q-1 -27 27 -27t28 27zM708 1072q13 0 69 44t73 44q24 0 34 -33q7 -29 14 -57v-68q-6 1 -12 1h-9l-56 -3q-45 0 -134 24t-119 24q-81 0 -310 -135q-21 32 -51 122h134q29 17 81 55t74 52
q199 -70 212 -70zM695 1135q-43 0 -219 58q-2 0 -96 -78q-46 -38 -94 -38l-58 -3q-18 0 -30 3q-28 50 -35 69q1 32 111 86t213 54l183 -31l174 9q15 0 24 -67q-66 0 -98 -31t-75 -31z" />
    <glyph glyph-name="odieresis" unicode="&#xf6;" horiz-adv-x="1130" 
d="M688 440q0 64 -32 110t-99 46q-66 0 -105 -44t-39 -106t37 -104q36 -43 100 -43t101 39q37 38 37 102zM447 223q-25 0 -137 -26l18 190q-23 19 -73 47t-88 53q9 18 64 45t114 57q17 105 40 172q106 -81 142 -100q62 26 238 81q2 -10 2 -34q-1 -24 -19 -102t-22 -98
q42 -52 76 -97t35 -75q1 -18 -63 -32t-90 -31q-44 -25 -50 -108q-2 -35 -17 -35q-57 36 -101 64t-69 29zM151 274q30 0 30 25q0 31 -30 31t-30 -31q0 -25 30 -25zM463 81q0 31 -31 31t-31 -31q0 -26 31 -26t31 26zM221 667q26 -1 26 29t-26 30q-33 0 -33 -30t33 -29z
M358 168q60 20 70 20t202 -120q14 29 30 80t28 88q92 44 216 94q-60 96 -128 187q29 145 29 279q-41 -10 -143 -44t-131 -35q-1 1 -55 33t-124 59q-16 -43 -33 -121t-31 -88t-96 -44t-113 -51q30 -22 197 -150q0 -22 -7 -97t-7 -116q36 6 96 26zM839 180q0 28 -29 28
t-29 -28t29 -29q29 1 29 29zM508 818q0 -23 29 -23t29 23q0 32 -28 32q-10 0 -20 -10t-10 -22zM931 572q1 27 -29 27t-30 -27t30 -27t29 27zM21 452q1 198 155 326q154 127 374 127t362 -123q142 -122 142 -346t-169 -348q-149 -109 -386 -109q-199 -1 -339 137t-139 336z
M229 1066l24 10v21q-11 4 -19 4q-8 -6 -18 -28q7 0 13 -7zM598 1062q2 4 16 11q-7 7 -7 11l-19 6l-2 -23q10 -2 12 -5zM179 1092q1 14 9 38t13 41l100 -81q-27 -58 -67 -111q-55 55 -55 113zM239 1199q27 46 127 46q42 0 84 -37q42 -38 42 -102t-44 -110t-114 -47
q-32 0 -61 8q66 117 66 129t-19 32t-81 81zM562 1093q0 25 11 61q10 -4 44 -38t34 -44q-1 -10 -15 -30q-14 -22 -29 -50q-45 35 -45 101zM734 1233q52 -1 88 -39t37 -90q0 -52 -48 -104t-107 -51q-9 -1 -19 -1t-45 19q3 8 28 54q25 45 25 55q-1 10 -39 56t-38 62q0 15 32 27
q34 12 86 12z" />
    <glyph glyph-name="ugrave" unicode="&#xf9;" horiz-adv-x="1140" 
d="M188 326q0 31 -34 31t-33 -31q-1 -31 33 -31t34 31zM556 61q0 31 -33 31t-33 -31t33 -31t33 31zM155 764q0 32 -30 32t-30 -32t30 -32t30 32zM888 267q34 1 34 33t-34 32q-29 0 -29 -32t29 -33zM931 744q33 0 33 32t-33 33q-15 0 -21 -7t-6 -24q0 -34 27 -34zM1047 885
v-479q0 -221 -168 -334q-138 -93 -350 -93q-137 0 -259 69t-161 140q-3 0 -19 34q-48 96 -48 277l-2 373h118q69 -77 83 -109l-127 -230q4 -5 62 -65t100 -122q4 -24 14 -112t16 -136q123 44 221 90q33 -8 109 -38t106 -38l6 249q51 46 183 184q-46 59 -94 125t-48 90
q22 33 94 125h164zM553 354q100 0 100 159q0 36 -11 113v301q178 -34 178 -51q-51 -87 -92 -144q22 -27 70 -82t69 -86q-118 -128 -161 -158q-8 -80 -8 -225l-182 60q-73 -39 -182 -67l-6 187q0 23 -68 97t-79 86q59 77 114 216q-19 32 -41 69t-31 52q65 0 119 15t112 31
v-260l-2 -120q0 -93 16 -134q23 -59 85 -59zM273 1139q9 16 -9 20q-8 4 -16 0t-7 -11q-9 -13 11 -24q15 0 21 15zM479 1029q3 19 -13 21q-18 4 -21 -11q0 -19 12 -21q18 -7 22 11zM529 939h-12l-350 208l16 59h19q10 0 25 1q16 1 46 -6q27 -17 47 -41t65 -80l96 13
q45 -28 61 -43q8 -34 8 -72t-21 -39zM490 1124l-70 -7q-18 0 -38 7q-47 64 -91 104q-40 10 -99 10l38 144q96 -62 184 -131t121 -94q3 -9 9 -68q-23 4 -54 35z" />
    <glyph glyph-name="uacute" unicode="&#xfa;" horiz-adv-x="1110" 
d="M178 316q0 31 -34 31t-33 -31q-1 -31 33 -31t34 31zM546 51q0 31 -33 31t-33 -31t33 -31t33 31zM145 754q0 32 -30 32t-30 -32t30 -32t30 32zM878 257q34 1 34 33t-34 32q-29 0 -29 -32t29 -33zM921 734q33 0 33 32t-33 33q-15 0 -21 -7t-6 -24q0 -34 27 -34zM1037 875
v-479q0 -221 -168 -334q-138 -93 -350 -93q-137 0 -259 69t-161 140q-3 0 -19 34q-48 96 -48 277l-2 373h118q69 -77 83 -109l-127 -230q4 -5 62 -65t100 -122q4 -24 14 -112t16 -136q123 44 221 90q33 -8 109 -38t106 -38l6 249q51 46 183 184q-46 59 -94 125t-48 90
q22 33 94 125h164zM543 344q100 0 100 159q0 36 -11 113v301q178 -34 178 -51q-51 -87 -92 -144q22 -27 70 -82t69 -86q-118 -128 -161 -158q-8 -80 -8 -225l-182 60q-73 -39 -182 -67l-6 187q0 23 -68 97t-79 86q59 77 114 216q-19 32 -41 69t-31 52q65 0 119 15t112 31
v-260l-2 -120q0 -93 16 -134q23 -59 85 -59zM478 1151q-15 -1 -15 -19q1 -18 21 -18q4 0 14 7q0 20 -6 26q-7 4 -14 4zM636 1286q0 -6 7 -12t13 -5q6 0 12 7t5 14q1 7 -7 12t-14 5t-10 -7q-6 -8 -6 -14zM737 1337q-9 -35 -12 -45t-21 -39q-26 -18 -153 -65q-1 -12 -11 -50
t-11 -45q-42 -30 -61 -40q-46 0 -92 31q-8 8 -8 15q1 7 2 15l318 255zM886 1232q-108 -87 -315 -210q-9 0 -32 6t-36 9q9 15 22 22t31 16q8 42 12 60t23 44q76 17 132 48q17 29 42 91z" />
    <glyph glyph-name="ucircumflex" unicode="&#xfb;" horiz-adv-x="1150" 
d="M188 326q0 31 -34 31t-33 -31q-1 -31 33 -31t34 31zM556 61q0 31 -33 31t-33 -31t33 -31t33 31zM155 764q0 32 -30 32t-30 -32t30 -32t30 32zM888 267q34 1 34 33t-34 32q-29 0 -29 -32t29 -33zM934 744q30 0 30 32t-33 33q-16 0 -21.5 -7t-5.5 -24q0 -34 30 -34z
M1047 885v-479q0 -221 -168 -334q-138 -93 -350 -93q-137 0 -259 69t-161 140q-3 0 -19 34q-48 96 -48 277l-2 373h118q69 -77 83 -109l-127 -230q4 -5 62 -65t100 -122q4 -24 14 -112t16 -136q123 44 221 90q33 -8 109 -38t106 -38l6 249q51 46 183 184q-46 59 -94 125
t-48 90q22 33 94 125h164zM553 354q100 0 100 159q0 36 -11 113v301q178 -34 178 -51q-51 -87 -92 -144q22 -27 70 -82t69 -86q-118 -128 -161 -158q-8 -80 -8 -225l-182 60q-73 -39 -182 -67l-6 187q0 23 -68 97t-79 86q59 77 114 216q-19 32 -41 69t-31 52q65 0 119.5 15
t111.5 31v-260l-2 -120q0 -93 16 -134q23 -59 85 -59zM684 1049h-149l-100 90l-83 -139l-192 49l275 266z" />
    <glyph glyph-name="udieresis" unicode="&#xfc;" horiz-adv-x="1140" 
d="M188 326q0 31 -34 31t-33 -31q-1 -31 33 -31t34 31zM556 61q0 31 -33 31t-33 -31t33 -31t33 31zM155 764q0 32 -30 32t-30 -32t30 -32t30 32zM888 267q34 1 34 33t-34 32q-29 0 -29 -32t29 -33zM931 744q33 0 33 32t-33 33q-15 0 -21 -7t-6 -24q0 -34 27 -34zM1047 885
v-479q0 -221 -168 -334q-138 -93 -350 -93q-137 0 -259 69t-161 140q-3 0 -19 34q-48 96 -48 277l-2 373h118q69 -77 83 -109l-127 -230q4 -5 62 -65t100 -122q4 -24 14 -112t16 -136q123 44 221 90q33 -8 109 -38t106 -38l6 249q51 46 183 184q-46 59 -94 125t-48 90
q22 33 94 125h164zM553 354q100 0 100 159q0 36 -11 113v301q178 -34 178 -51q-51 -87 -92 -144q22 -27 70 -82t69 -86q-118 -128 -161 -158q-8 -80 -8 -225l-182 60q-73 -39 -182 -67l-6 187q0 23 -68 97t-79 86q59 77 114 216q-19 32 -41 69t-31 52q65 0 119 15t112 31
v-260l-2 -120q0 -93 16 -134q23 -59 85 -59zM212 1108l24 11v20l-18 4q-4 -3 -8 -5t-11 -23q7 0 13 -7zM598 1115q-8 8 -9 11l-18 6l-1 -22q6 -1 10 -6q5 5 18 11zM162 1134q0 14 8 38t14 41l99 -81q-31 -63 -65 -111q-56 56 -56 113zM223 1240q27 47 127 47q42 0 84 -37
q42 -36 41 -102q0 -66 -44 -111t-114 -45q-30 0 -61 7q66 117 66 131q0 13 -99 110zM545 1136q0 24 11 60q10 -4 44 -38t34 -43t-17 -35t-28 -46q-44 35 -44 102zM715 1275q55 0 91 -38q36 -39 36 -91t-48 -103t-106 -51q-10 -1 -20 -1t-45 17q6 15 30 57q24 43 24 53
t-39 57t-39 62t31 27t85 11z" />
    <glyph glyph-name="Ydieresis" unicode="&#x178;" horiz-adv-x="1639" 
d="M836 952l-1 -111q-92 0 -168 -41l-9 2q-70 59 -134 87t-70 24l-50 -40q-56 -46 -56 -62q13 -21 35 -30q7 5 29 29t38 27l112 -104q-28 -33 -56 -67t-40 -73q-5 -2 -16.5 -3t-76.5 -19t-100 -35l-37 -20q-5 -20 -5 -66t8 -102l6 -3l48 7l-3 94q24 4 56 4l49 -1q24 0 48 3
q0 -91 42 -162q-73 -118 -105 -213q48 -63 128 -114l21 37q-53 39 -68 59l93 98q8 5 12 14q89 -64 153 -85q17 -73 79 -225h6l144 7l-8 51l-85 -4l-5 142l3 6q81 0 168 40l31 -15q128 -64 194 -86q47 31 101 105q-5 8 -14.5 13t-16 10t-11.5 5q-5 -5 -21 -27t-30 -34
l-113 97l-5 12q61 72 86 137q111 26 234 93l-12 131q-4 4 -11 4l-26 -4q-2 -2 -7 -4.5t-7 -4.5l5 -65q-1 -9 -1 -13l-143 -2q-10 -3 -19 -3l3 9v14q0 81 -24 116t-27 35q2 7 36 59t68 163q-7 7 -106 88l-9 -2l-26 -35l23 -16l58 -50v-5q-21 -12 -59 -52t-55 -52
q-62 64 -160 94q-8 0 -8 15l-15 78q-17 71 -55 132h-59q-49 0 -72 -7l4 -46l53 2q5 1 12.5 0.5t14.5 -0.5q4 -18 4 -40zM193 271q-31 87 -31 169t7 140q6 6 14 6q79 40 255 81l45 66q-26 22 -28 23q-37 -42 -49 -63q-32 18 -133 90h-13q-10 14 -4 21q38 56 94 110t109 81
q56 -17 162 -77l67 -46l86 23l-4 32l-68 -5l-32 147l-7 16q85 25 224 25h31q80 -108 94 -250q6 -4 44 -22t54 -27l16 22l-51 37q-4 4 -4 16q13 10 14 18l74 123q9 -5 21 -7q145 -90 204 -183q-8 -11 -16 -11q-17 -48 -30 -85t-75 -129l3 -5q10 -26 16 -43t7 -34t3 -22
q20 -1 30 -1t13 1l-12 46q-2 8 -2 16t4.5 11.5t14.5 5.5t18 6t51.5 14t59.5 25l15 -6q10 -10 24 -62q13 -52 13 -191q-1 -6 -56 -38t-88 -43q-32 -12 -56 -20t-37 -8q-6 -3 -12 -4t-11 -2l-42 -65l31 -26l39 51l137 -78q10 -3 8 -15l-55 -85q1 0 2 -1l-48 -50
q-41 -34 -81 -68q-39 11 -83 27t-67 24l-112 58q-64 -18 -86 -23l1 -33l68 8l8 -6q4 -16 22 -70t18 -90l-112 -22l-148 7q-13 0 -13 15q-55 92 -106 241l-62 33l-24 -27l49 -39l-69 -136q-11 -9 -20 -9q-42 18 -77 45t-96 81q-33 36 -44 56q24 98 110 247q-3 10 -8 41
t-12 45l-34 -3l8 -72l-157 -48h-13zM1546 460q0 140 -53 270t-209.5 279.5t-448.5 149.5q-293 0 -493.5 -208.5t-200.5 -500.5t209 -494t495 -202q142 0 273 54t231 159q197 204 197 493zM850 -305q-310 0 -531 213q-115 110 -174 252t-59 292t54 285.5t161.5 247
t249.5 170.5t291 59t286 -54t248.5 -161.5t170.5 -250t59 -291.5q0 -310 -213 -531q-110 -113 -252 -172t-291 -59z" />
    <glyph glyph-name="tilde" unicode="&#x2dc;" horiz-adv-x="1633" 
d="M155 978q-8 8 -8 51t39 154q32 8 65 8t86 -15q-149 -208 -182 -198zM336 911q-20 -24 -65 -24l-88 7l-4 1q33 57 75 125q107 172 205 172q9 -6 49 -20t48 -34q0 -28 -164 -178q-54 -48 -56 -49zM682 1112q32 0 70 -11t41 -21q-29 -28 -93 -101t-102 -96l-167 21
q-7 29 47 68q104 76 158 132q13 8 46 8zM642 850q23 30 128 122q104 92 116 93l35 3q40 0 60 -32l-130 -234q-27 -32 -64 -32q-43 14 -90 32t-55 48zM915 794q0 82 97 226q28 46 50 49l110 15t161 12q74 0 151 -29q1 -3 35 -165t34 -187q-1 -25 -5 -39t-22 -18t-55 -4
q-33 4 -53 30t-41 53q-35 -7 -121 -65q-30 -21 -78 -21q-66 0 -87 103q-16 4 -34 4l-95 -10q-18 0 -39 6q-8 19 -8 40zM127 817q0 10 5 22q36 20 110 20t268 -57l244 -70q38 -20 132 -32l120 8q46 0 58 -17q2 -10 6 -23t3 -28q0 -15 -25 -26l-169 -11q-81 0 -175 23
q-53 18 -199 65q-44 22 -115 22l-204 -16q-59 77 -59 120zM412 468q0 44 73 44q42 0 64 -16q5 -23 5 -41q0 -69 -53 -112q-13 -24 -55 -24t-64 6q-22 5 -32 15t-28 33q-4 33 -4 69t8 68q8 12 23 12t38 -15q3 -14 3 -26l-7 -81q17 -23 39 -23t37 13t18 32q-23 -13 -36 -13
t-21 19q-8 20 -8 40zM884 419q-53 0 -53 48q1 35 7 49t16 33t25 19q27 10 61 10t70 -12q49 -36 49 -107v-13q-2 -9 -2 -13q-29 -50 -53 -136q-28 -7 -84 -7t-56 29q0 15 16 33t40 24q72 46 72 81q0 18 -16 48q-9 11 -56 11q-16 -22 -13 -33l22 -31q-15 -33 -45 -33z
M1551 354q0 -49 -47 -77q-17 -10 -33 -10t-27 4l-128 361q4 22 21 32t36 6l171 -281q7 -21 7 -35zM774 131q0 11 1 18v18q0 32 8 49t37 27q62 12 121 12q60 0 117 -16q31 -27 31 -88q0 -63 -8 -113t-8 -52q-6 -18 -69 -41l-91 2q-29 3 -60 7t-49 22q-18 20 -24 60
q-4 40 -8 78q2 6 2 17zM1252 619q20 0 32 -5q12 -22 113 -388q102 -366 103 -366q-7 -33 -14 -41t-65 -21q-59 21 -93 200q-7 37 -23 146q-1 0 -43 167t-43 296q13 12 33 12zM1148 41q0 313 -46 552q12 16 26 16l31 -6q28 -73 61 -310t43 -306q0 -111 -16 -219
q-23 -33 -71 -33q-32 0 -37 45q9 216 9 261zM269 465l2 -25q19 -159 137 -159q47 0 102 21l62 48q62 48 73 50l75 7q38 0 49 -25q0 -41 -34 -109q-34 -67 -34 -161q-1 -94 27 -214t28 -149q-49 -31 -94 -31t-87 27q2 8 2 26q0 97 -122 243q-13 8 -64 31t-71 45q6 12 6 42
t-41 74q-18 3 -40 3q-60 0 -74 -38q8 -9 43 -2q45 -4 45 -45q0 -24 -14 -48q-35 -29 -82 -29t-84 10q-8 47 -8 97q0 113 52 180q43 51 50 62q7 12 12 34t17 100t37 119q67 26 129 26q114 0 220 -59q108 -22 131 -28t60 -22q13 -29 13 -51q0 -61 -78 -61t-128 35
q-79 73 -188 73q-53 0 -101 -24q-28 -22 -28 -73zM531 -227q0 -40 -39 -55q-37 -5 -71 -5h-53q-14 3 -20 4l-36 30q-22 19 -50 24t-57 11t-39 30q-6 9 -6 24t11 24q22 7 45 7l114 -17q46 0 46 27q0 17 -22 33t-48 16q-27 7 -89 7h-12q-50 0 -80 10q-11 7 -11 27t23 35
l181 12q20 0 30 -1q50 -16 92 -59t68 -97q23 -66 23 -87zM804 -112q0 22 67 22l158 -15q25 -10 25 -36t-92 -142q-14 -16 -30 -16t-25 9q-27 30 -51 56t-38 59q-2 8 -8 30q-6 21 -6 33z" />
    <glyph glyph-name="endash" unicode="&#x2013;" horiz-adv-x="1588" 
d="M139 51q-13 0 -43 55t-24 75q12 43 54 47t80 6q12 4 78 16t75 9t21 -15t9 -23q-12 -39 -90 -105t-160 -65zM189 -15q0 16 3 23q2 8 118 76t147 58q5 -2 17 -10t11 -12q-43 -87 -67 -129q-74 -127 -107 -116q-35 14 -79 54t-43 56zM369 -151q0 3 2 9q0 20 53 108t105 88
q8 0 19 -2q12 -2 20 -30q8 -26 8 -80t-20 -114t-50 -60q-2 0 -31 8t-67 28t-39 45zM354 341q-2 -10 -116 -10t-181 21q-32 11 -32 122q0 177 85 307q51 79 89 69q24 -7 118 -102q95 -94 89 -114q-10 -36 -79 -37l-188 16q-24 0 -47 -5q14 -46 98 -82t173 -69q5 -10 -9 -116z
M704 -269q-30 0 -40 4t-26 19t-19 21q15 15 25 73t19 117q8 35 58 35q11 0 33 -5q8 -2 30 -86t22 -113t-2 -37t-36 -18t-64 -10zM373 1023q4 0 12 -2q65 -91 101 -149t36 -90q0 -4 -2 -12q-88 -76 -100 -72q-25 14 -112 102t-78 123q94 100 143 100zM974 -257q-30 0 -42 4
q-26 9 -50 95t-23 114q0 26 1 28q78 36 101 28q24 -8 92 -64t68 -117q0 -16 -4 -28q-7 -11 -59 -35q-54 -24 -84 -25zM1033 427q-1 80 -57 137t-139 85q-13 5 -35 5q-64 0 -134 -58t-80 -89t-10 -83t24 -110t77 -75q30 -13 71 -13t50 25q8 23 -68 43t-76 60q0 47 58 98
t104 51q45 0 88 -23q42 -24 42 -68t-27 -128q-49 -154 -176 -155q-39 0 -76 13l-142 48q-90 90 -90 256q0 57 18 147q16 39 128 121t197 82q22 0 34 -2t104 -50t170 -112t78 -129q-10 -61 -18 -121t-10 -62q-16 -49 -97 -160t-137 -125q-169 3 -256 39q-34 14 -43 21
q16 13 47 13l146 -17q49 0 74 27q122 147 148 230q13 40 13 79zM628 1152q32 0 44 -4q10 -4 27 -110q17 -107 17 -135t-3 -35t-117 -42q-9 2 -49 86t-62 166q3 18 57 46t86 28zM1099 89q0 10 3 18l41 18q69 -62 151 -102t83 -49q1 -24 -55 -69t-78 -37q-55 14 -100 90
t-45 131zM858 861q-64 0 -92 66q-16 37 -16 77q0 68 10 102q10 35 40 35t65 -12q67 -20 67 -154q0 -59 -10 -89q-4 -8 -26 -16t-38 -9zM1412 63q-35 0 -153 85q-63 45 -57 72q12 56 91 56t145 -34t55 -65q-36 -114 -81 -114zM1029 1063q21 0 38 -4t80 -44t54 -67
q-10 -25 -96 -87t-106 -55t-28 27l10 206q27 24 48 24zM1551 375q0 -41 -21 -53q-8 -4 -49 -5q-41 0 -215 33q-11 2 -11 29q0 28 4 32q13 -1 84 35t108 36t64 -9q36 -9 36 -98zM1514 599q0 -13 -5 -28q-11 -35 -83 -57t-114 -21q-43 0 -53 3q-9 2 -21 34t-12 46t3 23
q95 85 224 113q61 -64 61 -113zM1400 800q-138 -105 -200 -105q-23 0 -34 3q-54 51 -47 72q150 176 184 164q101 -122 97 -134z" />
    <glyph glyph-name="emdash" unicode="&#x2014;" horiz-adv-x="1692" 
d="M494 195q0 -15 6 -33t23 -42t17 -30q0 -23 -37 -26t-37 -15q0 -81 100 -115t99 -71q0 -28 -16 -44q-17 -16 -39 -16t-29 5t-13 6v12q28 4 36 7t8 14t-10 19t-18 7l-49 -15q-55 0 -101 59q-42 69 -54 88q-104 22 -104 148q-47 33 -83 83t-36 86q-1 36 15 48t16 19
q0 20 -25 20t-29 -22t-5 -42q-31 25 -31 43t22 42q22 25 52 25t60 -49q29 -49 42 -70q2 4 2 16t-26 63t-27 62q0 11 24 31q0 14 -17 14t-40 -37h-9v46q22 28 46 28q24 1 52 -25t43 -77l-12 -112q7 -34 15 -68q8 -22 43 -45t60 -23q26 0 46 1t20 -15zM643 72q-21 0 -75 39
t-54 77q26 57 26 111l14 7q10 0 32 -16t25 -24q4 -9 4 -25l-2 -34q0 -31 17 -62q17 -32 33 -59q0 -14 -20 -14zM867 -85q0 142 53 142q14 -1 29 -49t15 -121t-50 -73q-14 0 -34 10t-21 19q8 24 8 72zM709 164q-1 -30 -11 -44t-16 -15q-14 1 -33 31t-19 60t12 64t24 35
q11 0 27 -50q16 -51 16 -81zM762 26q-28 0 -37 17q-8 17 -8 45q1 28 7 61q6 34 13 34l114 -111q-1 -14 -31 -30t-58 -16zM976 59q0 9 24 21t36 12q92 -113 92 -186q-21 -59 -70 -59q-34 -1 -58 89t-24 123zM754 441q0 -3 -15 -35t-15 -56q-17 -40 -35 -40q-12 0 -20 28
t-24 27q-10 -1 -17 -23t-18 -22q-24 0 -24 25q0 47 32 75t80 28l37 11q5 0 12 -7t7 -11zM778 389q9 0 19 -20q49 -96 207 -185q44 -25 44 -44q-44 -54 -144 -54q-38 0 -46 18q-5 31 -8 54l-8 6l-29 -24q-76 61 -76 103q27 34 27 67l-5 56q0 23 19 23zM612 440q-20 0 -44 40
t-23 109q0 19 19 19q39 0 48 -42t30 -52q4 15 4 22l-8 30q0 36 15 45q23 5 35 10h45q-5 -30 -5 -60l7 -47q0 -16 -39 -45t-84 -29zM1075 112q0 33 68 45q6 0 31 -31q24 -30 34 -48t34 -47t24 -41t-28 -34q-28 -24 -53 -24q-110 128 -110 180zM1370 77q0 -11 -26 -39t-44 -27
q-36 21 -78 71t-42 69q0 7 36 23t43 16q111 -102 111 -113zM489 886l-12 48q0 8 13 18t36 10q22 0 80 -62t137 -63q79 0 102 45q11 22 22 22t25 -40t15 -64q-1 -24 -41 -62q-40 -40 -90 -40q-2 0 -27 -33t-89 -33h-122q-24 0 -84 14t-60 34q0 43 111 43q13 -1 77 -9t111 -8
q3 0 9 8q-12 10 -58 14t-95 9q-2 1 -25 21t-60 21q-81 0 -92 -69q-3 -31 -5 -61q-7 -2 -13 -4q-10 -1 -29 39t-19 90t44 100t86 51q13 0 23 -34t48 -34q17 0 31 9t15 18q0 9 -17 21h-10l-4 -22q-12 -2 -33 3zM862 533q0 -53 47 -130t89 -101t138 -36t95 -46q0 -34 -107 -34
l-72 4q-26 0 -96 46t-126 140q-58 93 -58 229q0 65 56 65l21 9q23 9 27 9t10 -12t6 -18q-30 -72 -30 -125zM1085 354q0 -26 -4 -30t-23 -4q-60 0 -113 74t-53 141q15 86 37 86q37 -1 97 -83t59 -184zM805 911q0 -54 -54 -54q-27 0 -47 14t-20 38q0 25 25 37t45 12t36 -14
q15 -14 15 -33zM1489 605q-1 -37 -51 -37t-145 66t-192 136q-9 0 -30 -18t-39 -43q8 -7 16 -7t22 11t17 11q25 0 58 -36q110 -119 142 -141q85 -57 147 -79t63 -30q0 -65 -67 -65q-56 0 -120 34t-127 70q29 -79 110 -131t161 -101q0 -21 -16 -37t-31 -15q-45 0 -129 65
t-93 70q-3 -20 -3 -28t3 -22q-11 -4 -21 -4q-26 0 -26 44t-22 110q-22 64 -43 102q-23 38 -89 105t-66 79t74 92q74 82 98 82q26 0 86 -52t126 -98q66 -45 126 -79t61 -54zM834 1075q98 -1 98 -67q0 -28 -19 -52t-36 -24t-53 27t-76 27t-74 -34t-53 -34q-18 0 -30 21t-12 47
t98 58t157 31zM992 1045q22 -1 50 -33t29 -56q0 -24 -51 -79q-51 -54 -84 -54q-4 0 -18 25t-14 38q72 159 88 159zM1519 507q0 144 -154 330q-45 51 -90 103q-61 78 -187 124t-231 47q-409 0 -645 -315q-34 -44 -68 -90q-70 -92 -70 -218q0 -127 40 -222q79 -190 216 -321
q182 -177 308 -177l145 -6q292 0 514 215t222 530zM814 -321q-86 0 -226 26q-58 0 -166 57t-202 177q-65 79 -129 159q-50 68 -67 148t-17 227q0 148 33 235t118 166q75 90 149 144q75 54 209 103t192 61q57 12 120 12q164 0 305 -72t239 -171t135 -161t67 -156t30 -166
t-18 -143l-42 -124q0 -18 -28 -70q-68 -129 -191 -229q-124 -100 -224 -148t-135 -49q-66 -26 -152 -26z" />
    <glyph glyph-name="quotedblleft" unicode="&#x201c;" horiz-adv-x="1085" 
d="M785 -10q-1 8 1 27t-7 29.5t-36 40.5t-43 55q-24 12 -46 12t-38 -5q-59 0 -117 -55q-36 -38 -51 -54l16 -19l6 23q24 43 70.5 65t85.5 22t63 -6q45 -41 67 -103l9 -43l-63 -128q5 -16 37 -31t42 -15l32 -63l59 -2l-37 42l-46 44l-41 23q-2 20 18 66q20 47 20 57
q-1 10 -1 18zM491 655l8 -47q3 -2 55 -26t54 -28q30 -40 98 -104t96 -77q11 -11 32 -45l42 -68q6 -16 14 -30t23 -10q3 6 3 22l-4 60q0 6 1 28t-11 78t-12 81q-4 10 -4 25l-318 105q-25 0 -46 13t-28 35q-3 -5 -3 -12zM663 848q8 -2 36 -2q45 0 45 36t-16 40
q-7 4 -29.5 -8.5t-32.5 -24.5q-10 -13 -10 -27t7 -14zM1009 -246q0 -18 -6 -27q-15 -1 -45 -7t-210 -6t-428 24q-114 0 -192.5 82.5t-96.5 218.5q-11 57 -11 125q0 152 85 218q26 -23 26 -79l-6 -103q0 -24 4 -43q23 -59 40 -101t41 -63l18 -22t13 -10q24 51 112 239
t160 305q20 32 18 56l-50 40l-4 55q0 16 8 28q7 -3 15 -16q8 -14 21 -26q13 -13 27 -12q13 0 23 2q8 7 17 15q1 4 1 11q0 41 -48 41q-5 0 -17 -2q-5 2 -34.5 5.5t-34.5 18.5l2 51q18 30 88 78t89.5 80t85.5 96t80 89q22 27 38 45q24 28 46 17t29 -27q1 -21 -13 -58t-15 -40
l-13 -71q67 63 88 86q9 6 21 6t23 -7q2 -8 2 -14q0 -56 -90 -263l-15 -146q2 -3 2.5 -24.5t1.5 -43.5l15 -5l5 -41q-6 -9 -6 -11l17 -45l17 -183q0 -66 -30 -119h-19q-9 2 -13 13.5t-12 12.5q-3 -2 -11.5 -4.5t-8.5 -6.5q-9 -34 59 -321q8 -21 40 -45t43 -34q8 -14 8 -32z
" />
    <glyph glyph-name="quotedblright" unicode="&#x201d;" horiz-adv-x="1128" 
d="M932 489l26 -209q0 -54 -22 -96l-18 -3q-6 2 -14 13t-18 12q-4 -5 -9 -5q-5 -6 -5 -8l7 -61q52 -212 67 -255q8 -17 32 -35t54 -39q12 -21 12 -35t-6 -24q-13 -4 -25 -9q-121 -17 -658 -17q-66 0 -132 47q-7 5 -68 54q-41 56 -67 96q-48 72 -48 237v52q14 18 31 74t36 72
q31 -24 31 -96l-2 -69q0 -39 6 -60q10 -18 26.5 -56.5t23.5 -52.5q0 -17 15 -30t34 -32t23 -15q141 348 215 497q4 12 24 48t20 51q0 14 -1 18l-50 35l-8 56q0 15 8 26q6 -3 12.5 -11t24.5 -25t47 -13q20 14 20 31q0 16 -11 28t-23 13q-12 0 -32 -5q-12 3 -38 3t-34 16v53
q18 30 86 81t84.5 84t78.5 99t78 95l44 51q13 18 33 15q26 -14 29 -28t-4 -33q-6 -19 -11 -36.5t-8 -27.5l-7 -70q4 -4 7 -4l59 66l16 28q7 5 21 5t25 -7q1 -7 1 -37t-21 -75l-15 -62q-8 -10 -18 -51l-22 -55l-8 -146q8 -6 9 -12l2 -54q8 -6 14 -9l9 -37l-4 -13q3 -3 16 -38
z" />
    <glyph glyph-name="trademark" unicode="&#x2122;" horiz-adv-x="1084" 
d="M157 1013q14 -1 14 13t-14 14t-14 -14t14 -13zM163 1193q0 13 -13 13t-13 -13t13 -13t13 13zM469 1046q-1 13 -13 13t-12 -13t12 -13t13 13zM129 1386q16 0 16 14t-16 14q-11 0 -11 -14t11 -14zM500 1236q0 14 -12 13q-12 1 -13 -13q1 -14 13 -14t12 14zM531 1446
q0 13 -13 13t-13 -13t13 -13t13 13zM213 1017q-27 -40 -31 -40h-72q-3 5 -3 163v182l-90 2l-25 161l142 -1q8 -6 36 -34t43 -40l-65 -121q16 -20 62 -90q-9 -20 -59 -99q15 -24 62 -83zM282 1324v-358q-20 0 -40 2l-30 3q16 27 24 44q-39 56 -61 84q57 95 60 101
q-20 34 -60 92l64 121q-2 2 -25 24t-43 49l202 -1l22 -161h-113zM555 1490q20 -48 24 -62q-65 -85 -76 -101q38 -82 49 -98l-88 -102l58 -94l-30 -33q-14 -2 -40 -4t-53 -8q70 338 70 495q2 1 30 3zM992 1479h48q9 2 13 2l30 -490l-176 -2q-6 162 -6 197l-97 -199l-113 -2
q-15 29 -74 187l-27 -172h-59l22 33q-11 19 -61 95q9 14 84 94q-28 70 -43 100q69 95 69 106q-4 16 -10 34t-11 29l99 5q39 -99 57 -150q9 -37 22 -77q44 100 90 225q107 -15 143 -15z" />
  </font>
</defs>
</svg>
